<!--?xml version="1.0" encoding="UTF-8"?-->

<svg xmlns="http://www.w3.org/2000/svg" version="1.1" width="512px" height="512px" style="shape-rendering:geometricPrecision; text-rendering:geometricPrecision; image-rendering:optimizeQuality; fill-rule:evenodd; clip-rule:evenodd" xmlns:xlink="http://www.w3.org/1999/xlink">
<g><path style="opacity:0.901" fill="#002aff" d="M 221.5,63.5 C 229.813,62.7517 237.813,63.9183 245.5,67C 295.51,86.3395 345.51,105.673 395.5,125C 400.989,127.468 404.489,131.635 406,137.5C 406.333,171.167 406.667,204.833 407,238.5C 413.667,250.5 420.333,262.5 427,274.5C 427.95,283.459 424.117,286.293 415.5,283C 410.293,273.419 404.96,263.919 399.5,254.5C 394.04,263.919 388.707,273.419 383.5,283C 374.763,286.586 370.93,283.752 372,274.5C 378.667,262.5 385.333,250.5 392,238.5C 392.833,212.16 392.667,185.827 391.5,159.5C 378.256,164.189 365.256,169.356 352.5,175C 353.656,188.425 353.822,201.925 353,215.5C 351.126,221.521 347.293,223.354 341.5,221C 340.107,219.829 339.273,218.329 339,216.5C 338.667,204.167 338.333,191.833 338,179.5C 306.251,192.194 274.418,204.694 242.5,217C 234.598,219.767 226.598,220.1 218.5,218C 185.596,205.296 152.763,192.463 120,179.5C 119.167,208.839 119.333,238.172 120.5,267.5C 133.232,269.701 144.565,274.868 154.5,283C 214.167,283.667 273.833,283.667 333.5,283C 335.667,282.167 337.167,280.667 338,278.5C 338.333,266.833 338.667,255.167 339,243.5C 341.072,238.857 344.572,237.357 349.5,239C 351.487,240.319 352.654,242.152 353,244.5C 353.667,255.167 353.667,265.833 353,276.5C 351.182,288.985 344.015,296.151 331.5,298C 277.5,298.333 223.5,298.667 169.5,299C 185.496,324.322 186.33,350.155 172,376.5C 148.033,410.374 116.533,419.874 77.5,405C 46.3858,387.604 33.2191,361.104 38,325.5C 47.1371,290.525 69.6371,271.191 105.5,267.5C 105.667,236.498 105.5,205.498 105,174.5C 92.6627,169.276 80.1627,164.443 67.5,160C 53.4534,155.408 48.9534,146.242 54,132.5C 56.511,129.657 59.3443,127.157 62.5,125C 115.767,104.752 168.767,84.2523 221.5,63.5 Z M 222.5,78.5 C 229.342,78.0385 236.009,78.8718 242.5,81C 287.998,99.0558 333.665,116.723 379.5,134C 337.168,134.5 294.835,134.667 252.5,134.5C 246.133,118.864 234.8,113.697 218.5,119C 206.173,126.167 202.006,136.667 206,150.5C 215.37,166.717 228.203,170.217 244.5,161C 248.248,157.44 250.915,153.273 252.5,148.5C 294.501,148.333 336.501,148.5 378.5,149C 332.257,167.193 285.923,185.193 239.5,203C 233.601,205.646 227.601,205.98 221.5,204C 170.127,184.265 118.794,164.431 67.5,144.5C 66.0623,142.002 66.3956,139.836 68.5,138C 119.994,118.23 171.327,98.3971 222.5,78.5 Z M 224.5,131.5 C 235.49,129.992 240.324,134.658 239,145.5C 233.883,152.788 227.883,153.788 221,148.5C 217.021,141.694 218.188,136.027 224.5,131.5 Z M 99.5,281.5 C 129.648,278.985 151.148,291.318 164,318.5C 173.153,349.384 164.32,373.551 137.5,391C 107.196,404.215 81.6962,398.048 61,372.5C 46.7338,349.085 47.4005,326.085 63,303.5C 72.619,291.67 84.7857,284.336 99.5,281.5 Z"></path></g>
<g><path style="opacity:0.901" fill="#002aff" d="M 107.5,294.5 C 114.858,294.36 118.358,298.027 118,305.5C 123.547,307.606 128.214,310.94 132,315.5C 133.565,321.387 131.398,324.72 125.5,325.5C 120.685,322.551 115.518,320.217 110,318.5C 105.042,319.112 102.708,321.778 103,326.5C 103.5,327 104,327.5 104.5,328C 111.347,331.392 118.347,334.392 125.5,337C 133.876,344.396 135.71,353.229 131,363.5C 127.706,368.291 123.206,371.291 117.5,372.5C 118.976,380.167 115.976,384 108.5,384C 104.331,381.842 102.331,378.342 102.5,373.5C 99.0482,372.274 95.7148,370.774 92.5,369C 87.5385,362.583 88.8719,358.083 96.5,355.5C 102.028,359.086 108.028,360.253 114.5,359C 120.19,356.218 120.857,352.551 116.5,348C 109.393,346.447 102.726,343.78 96.5,340C 88.0687,332.996 86.2353,324.496 91,314.5C 94.1516,310.346 98.1516,307.346 103,305.5C 102.65,300.978 104.15,297.311 107.5,294.5 Z"></path></g>
<g><path style="opacity:0.904" fill="#002aff" d="M 330.5,314.5 C 344.502,312.667 357.169,315.834 368.5,324C 400.214,324.029 431.881,324.696 463.5,326C 468.333,328.167 471.833,331.667 474,336.5C 474.667,351.5 474.667,366.5 474,381.5C 471.414,387.088 467.247,390.921 461.5,393C 431.494,393.167 401.494,393.667 371.5,394.5C 377.266,403.701 382.766,413.034 388,422.5C 389.729,429.205 387.895,434.705 382.5,439C 377.334,441.748 372.334,444.748 367.5,448C 360.831,449.662 355.331,447.828 351,442.5C 347.333,436.167 343.667,429.833 340,423.5C 335.45,431.435 330.284,438.935 324.5,446C 320.858,448.408 316.858,449.075 312.5,448C 305.449,444.28 298.949,439.78 293,434.5C 289.712,428.69 290.046,423.024 294,417.5C 298.959,409.75 303.792,401.917 308.5,394C 297.167,393.667 285.833,393.333 274.5,393C 270.304,390.019 269.471,386.186 272,381.5C 272.75,380.874 273.584,380.374 274.5,380C 282.833,379.667 291.167,379.333 299.5,379C 292.881,365.973 292.881,352.973 299.5,340C 273.167,339.333 246.833,339.333 220.5,340C 220,340.5 219.5,341 219,341.5C 218.333,353.5 218.333,365.5 219,377.5C 219.5,378 220,378.5 220.5,379C 230.5,379.333 240.5,379.667 250.5,380C 255.833,384.333 255.833,388.667 250.5,393C 239.5,393.667 228.5,393.667 217.5,393C 210.903,390.737 206.736,386.237 205,379.5C 204.333,366.167 204.333,352.833 205,339.5C 207.132,332.035 211.965,327.202 219.5,325C 250.167,324.667 280.833,324.333 311.5,324C 317.378,319.727 323.712,316.561 330.5,314.5 Z M 333.5,328.5 C 358.982,327.815 371.149,340.149 370,365.5C 364.141,384.682 351.307,392.516 331.5,389C 317.724,384.044 310.058,374.211 308.5,359.5C 309.94,343.412 318.273,333.078 333.5,328.5 Z M 380.5,340.5 C 406.663,339.337 432.997,339.17 459.5,340C 460.126,340.75 460.626,341.584 461,342.5C 461.667,353.5 461.667,364.5 461,375.5C 460.535,376.931 459.701,378.097 458.5,379C 432.5,379.667 406.5,379.667 380.5,379C 386.921,366.028 386.921,353.195 380.5,340.5 Z M 320.5,400.5 C 326.254,400.918 329.92,403.918 331.5,409.5C 326.987,417.873 321.987,425.873 316.5,433.5C 312.543,431.527 308.876,429.194 305.5,426.5C 310.512,417.806 315.512,409.139 320.5,400.5 Z M 356.5,400.5 C 357.675,400.281 358.675,400.614 359.5,401.5C 364.248,409.999 369.248,418.332 374.5,426.5C 371.052,429.445 367.218,431.778 363,433.5C 356.928,424.364 351.094,415.031 345.5,405.5C 349.066,403.643 352.733,401.977 356.5,400.5 Z"></path></g>
</svg>
