<svg xmlns="http://www.w3.org/2000/svg" version="1.0" width="512.000000pt" height="512.000000pt" viewBox="0 0 512.000000 512.000000" preserveAspectRatio="xMidYMid meet">

<g transform="translate(0.000000,512.000000) scale(0.100000,-0.100000)" fill="#ffffff" stroke="none">
<path d="M3425 5031 c-93 -25 -168 -78 -219 -155 l-37 -56 -168 0 c-162 0 -168 -1 -189 -23 -12 -13 -22 -35 -22 -50 l0 -26 -322 -3 c-356 -3 -348 -2 -417 -70 -19 -18 -42 -51 -52 -73 -18 -38 -19 -98 -19 -1180 l0 -1141 -36 -13 c-123 -44 -171 -171 -124 -323 21 -68 65 -121 128 -152 30 -16 32 -20 32 -71 l0 -55 -162 0 -162 0 -72 50 c-88 61 -179 103 -288 132 -70 19 -106 22 -271 22 -146 0 -206 -4 -258 -17 -317 -80 -556 -307 -654 -624 l-27 -88 -4 -492 -3 -493 25 -25 25 -25 885 0 c627 0 892 3 909 11 14 6 30 22 36 36 7 16 11 138 11 373 l0 349 293 3 c278 3 294 4 333 25 55 30 90 71 154 186 l55 97 1020 0 c1005 0 1021 1 1065 21 55 25 95 62 123 114 l22 40 0 1605 0 1605 -22 41 c-28 53 -91 107 -142 122 -25 8 -140 12 -340 12 l-301 0 0 24 c0 13 -9 35 -21 50 l-20 26 -174 0 c-166 0 -174 1 -180 20 -14 44 -113 136 -177 165 -67 30 -174 42 -233 26z m149 -163 c52 -16 111 -75 127 -127 22 -72 31 -76 210 -79 l159 -3 0 -135 0 -134 -560 0 -560 0 0 135 0 135 145 0 c90 0 154 4 170 12 18 8 36 32 54 73 51 111 144 156 255 123z m-784 -343 l0 -35 -265 0 -266 0 -24 -25 -25 -24 0 -1066 c0 -845 -3 -1065 -12 -1065 -7 0 -23 -3 -35 -6 l-23 -6 0 1106 0 1107 25 24 24 25 301 0 300 0 0 -35z m2051 22 c9 -7 21 -22 27 -34 9 -16 12 -414 12 -1578 l0 -1557 -29 -29 -29 -29 -962 0 -962 0 21 32 20 33 911 5 912 5 24 28 24 28 0 1485 c0 1110 -3 1491 -12 1507 -24 45 -30 46 -305 47 l-263 0 0 35 0 35 298 0 c218 -1 301 -4 313 -13z m-2051 -246 c0 -20 9 -36 26 -50 26 -21 34 -21 696 -21 l669 0 24 25 c14 13 25 36 25 50 l0 25 210 0 210 0 0 -1390 0 -1390 -805 0 c-443 0 -805 3 -805 7 0 3 56 104 124 222 68 119 130 235 137 259 13 46 11 45 176 87 l73 19 145 146 c157 159 166 175 123 224 -19 21 -57 35 -211 75 l-188 50 -185 -50 c-167 -45 -197 -50 -302 -52 -128 -2 -180 -18 -253 -77 -25 -20 -74 -39 -166 -64 -71 -20 -133 -36 -136 -36 -4 0 -7 443 -7 985 l0 985 210 0 210 0 0 -29z m599 -1938 c12 -45 21 -83 21 -86 0 -5 -81 -27 -99 -27 -5 0 -12 14 -16 30 -4 17 -22 54 -41 82 -19 28 -33 53 -30 55 9 9 132 40 138 34 3 -3 16 -43 27 -88z m210 60 c3 -2 -5 -14 -17 -26 -19 -19 -24 -20 -32 -7 -5 8 -10 23 -10 33 0 14 5 16 28 11 15 -4 29 -9 31 -11z m-572 -64 c91 -44 146 -157 124 -253 -8 -34 -103 -208 -298 -546 -157 -272 -291 -503 -296 -512 -23 -36 -48 -38 -586 -38 l-528 0 -23 -25 c-32 -34 -30 -83 5 -112 25 -22 34 -23 206 -23 l179 0 0 -305 0 -305 -785 0 -785 0 0 395 c0 456 5 496 75 640 77 159 175 259 330 335 129 64 185 75 380 75 132 -1 185 -5 235 -19 90 -24 195 -76 265 -131 33 -25 69 -48 80 -51 12 -3 149 -4 306 -2 282 3 284 3 328 28 24 14 57 41 72 60 15 19 114 186 219 370 106 184 207 350 224 369 66 71 184 93 273 50z m-553 -196 c-20 -38 -52 -91 -69 -119 l-32 -50 -160 -42 c-88 -23 -170 -42 -182 -42 -32 0 -59 34 -66 83 -8 53 -1 82 23 92 16 7 498 141 515 144 5 0 -8 -29 -29 -66z m-264 -421 c0 -40 -19 -76 -51 -92 -18 -10 -19 -7 -19 54 0 67 3 72 53 75 13 1 17 -7 17 -37z" fill="#ffffff"/>
<path d="M3462 4783 c-12 -10 -24 -30 -28 -45 -5 -22 0 -33 24 -58 36 -35 60 -38 96 -9 52 41 23 129 -43 129 -16 0 -38 -8 -49 -17z" fill="#ffffff"/>
<path d="M2632 4111 c-18 -5 -42 -17 -54 -27 -43 -39 -48 -70 -48 -314 0 -258 5 -285 62 -320 31 -19 50 -20 283 -20 359 0 345 -14 345 342 0 256 -5 279 -63 322 -27 20 -43 21 -260 23 -128 1 -247 -2 -265 -6z m428 -336 l0 -185 -185 0 -185 0 0 185 0 185 185 0 185 0 0 -185z" fill="#ffffff"/>
<path d="M3420 3975 c-32 -34 -30 -83 5 -112 l26 -23 488 0 c472 0 489 1 514 20 13 11 28 31 31 45 7 29 -15 79 -39 89 -9 3 -238 6 -509 6 l-493 0 -23 -25z" fill="#ffffff"/>
<path d="M3426 3679 c-37 -29 -37 -89 0 -118 26 -21 36 -21 519 -21 l493 0 26 31 c34 40 33 64 -3 100 l-29 29 -490 0 c-480 0 -490 0 -516 -21z" fill="#ffffff"/>
<path d="M2632 3261 c-18 -5 -42 -17 -54 -27 -43 -39 -48 -70 -48 -314 0 -258 5 -285 62 -320 31 -19 50 -20 283 -20 359 0 345 -14 345 342 0 256 -5 279 -63 322 -27 20 -43 21 -260 23 -128 1 -247 -2 -265 -6z m428 -336 l0 -185 -185 0 -185 0 0 185 0 185 185 0 185 0 0 -185z" fill="#ffffff"/>
<path d="M3420 3125 c-32 -34 -30 -83 5 -112 l26 -23 488 0 c472 0 489 1 514 20 13 11 28 31 31 45 7 29 -15 79 -39 89 -9 3 -238 6 -509 6 l-493 0 -23 -25z" fill="#ffffff"/>
<path d="M3426 2829 c-37 -29 -37 -89 0 -118 26 -21 36 -21 516 -21 l490 0 29 29 c37 37 37 65 0 102 l-29 29 -490 0 c-480 0 -490 0 -516 -21z" fill="#ffffff"/>
<path d="M3775 2275 c-40 -39 -32 -96 16 -120 23 -12 85 -15 332 -15 288 0 306 1 330 20 13 11 28 31 31 45 7 29 -15 79 -39 89 -9 3 -158 6 -331 6 l-315 0 -24 -25z" fill="#ffffff"/>
<path d="M3426 1979 c-37 -29 -37 -89 0 -118 26 -21 36 -21 516 -21 l490 0 29 29 c37 37 37 65 0 102 l-29 29 -490 0 c-480 0 -490 0 -516 -21z" fill="#ffffff"/>
<path d="M821 3165 c-336 -73 -557 -419 -486 -760 39 -185 178 -363 346 -443 108 -52 172 -66 289 -66 176 1 322 63 452 194 266 269 243 696 -50 943 -147 124 -356 174 -551 132z m310 -174 c215 -82 349 -311 310 -531 -37 -206 -202 -369 -405 -400 -247 -38 -494 133 -545 378 -52 249 102 497 352 567 73 21 215 14 288 -14z" fill="#ffffff"/>
</g>
</svg>