<?xml version="1.0" encoding="UTF-8"?>
<svg version="1.1" xmlns="http://www.w3.org/2000/svg" width="835" height="838">
<path d="M0 0 C1.83609833 0.00031723 1.83609833 0.00031723 3.70928955 0.00064087 C24.37007076 0.03611623 44.53441106 1.1124218 64.9375 4.375 C66.11747559 4.56223633 67.29745117 4.74947266 68.51318359 4.94238281 C104.03886529 10.78844497 138.1029104 21.75090462 170.9375 36.375 C172.13076904 36.89827881 172.13076904 36.89827881 173.34814453 37.43212891 C204.02897126 50.93333665 233.39700387 69.69968281 258.9375 91.375 C259.98117369 92.2455081 261.02547553 93.11526349 262.0703125 93.984375 C273.29244075 103.35007316 283.89586576 113.24789613 294.25 123.5625 C295.09828369 124.40611084 295.94656738 125.24972168 296.82055664 126.11889648 C301.73232107 131.04323162 306.44268146 136.06784051 310.9375 141.375 C311.47963135 142.01042725 312.0217627 142.64585449 312.58032227 143.30053711 C330.75727267 164.73925676 346.29723899 187.81877254 359.9375 212.375 C360.65873047 213.66954102 360.65873047 213.66954102 361.39453125 214.99023438 C404.45287711 292.98378168 418.29774101 384.78878845 393.9375 522.609375 C380.47330669 568.92295561 359.01823617 612.85409103 329.9375 651.375 C329.48922852 651.97489746 329.04095703 652.57479492 328.57910156 653.19287109 C319.84176211 664.87683033 310.41866547 675.90107342 300.5 686.58984375 C298.2033475 689.08605295 295.97079601 691.6240421 293.75 694.1875 C290.69517465 697.64673197 287.44798656 700.66165213 283.92578125 703.63671875 C281.88451628 705.42132172 280.01087125 707.3026747 278.125 709.25 C274.26447585 713.16320187 270.11834233 716.60297729 265.83203125 720.0390625 C262.96702899 722.35116959 260.17341335 724.73299522 257.375 727.125 C221.97777339 756.5999107 180.2112984 778.99023548 136.9375 794.375 C135.43896484 794.90818848 135.43896484 794.90818848 133.91015625 795.45214844 C49.73207464 824.90341549 -44.44033775 824.64411076 -177.80078125 776.4453125 C-226.29394072 752.91944582 -275.93425314 717.61116593 -309.27734375 674.65625 C-311.04868585 672.3926531 -312.92552737 670.2984441 -314.875 668.1875 C-331.80105319 649.23298071 -345.60127561 626.94555435 -357.76904297 604.73144531 C-358.95597732 602.5690651 -360.16455455 600.42049117 -361.37890625 598.2734375 C-390.22503536 546.46031946 -406.87216019 483.53477854 -407.30078125 424.21875 C-407.3105751 423.09000458 -407.32036896 421.96125916 -407.33045959 420.79830933 C-407.92620884 334.24599025 -387.11478289 250.24494466 -337.0625 178.375 C-336.68947754 177.83746094 -336.31645508 177.29992187 -335.93212891 176.74609375 C-316.87822355 149.37704851 -294.58583009 122.9401666 -269.0625 101.375 C-268.04960059 100.48832609 -267.03800034 99.60016699 -266.02734375 98.7109375 C-208.46208131 48.3091677 -136.07582224 15.94718253 -60.6875 4.125 C-59.24818115 3.89840698 -59.24818115 3.89840698 -57.77978516 3.66723633 C-38.53412062 0.82226691 -19.43944166 -0.03113764 0 0 Z M-149.0625 74.375 C-150.37202637 74.94686035 -150.37202637 74.94686035 -151.70800781 75.53027344 C-178.43877201 87.35983231 -203.29604892 103.08563344 -226.0625 121.375 C-227.43341797 122.4578125 -227.43341797 122.4578125 -228.83203125 123.5625 C-235.09199303 128.5776339 -240.99837 133.91036368 -246.8515625 139.38671875 C-248.90833005 141.3103722 -250.98245184 143.20958417 -253.0859375 145.08203125 C-257.75821805 149.24868144 -262.17563009 153.4084882 -266.203125 158.203125 C-268.04734911 160.35730275 -269.96627259 162.42800372 -271.90625 164.49584961 C-278.41204573 171.45456618 -284.30631639 178.79021163 -290.0625 186.375 C-290.50029785 186.94524902 -290.9380957 187.51549805 -291.38916016 188.10302734 C-333.55515996 243.17347911 -359.19138978 311.18773393 -364.0625 380.375 C-364.11889648 381.16519531 -364.17529297 381.95539063 -364.23339844 382.76953125 C-364.61100337 388.30177859 -364.87920486 393.83301749 -365.0625 399.375 C-365.08586426 400.06110352 -365.10922852 400.74720703 -365.13330078 401.45410156 C-366.66433755 454.74447368 -355.53323924 509.60540267 -333.171875 557.96972656 C-332.03914816 560.42562991 -330.94108878 562.89529762 -329.84375 565.3671875 C-320.26806368 586.55732001 -308.0891059 606.83402744 -294.0625 625.375 C-293.60568848 625.98053711 -293.14887695 626.58607422 -292.67822266 627.20996094 C-286.24626999 635.67797661 -279.40603888 643.78337976 -272.41503906 651.79296875 C-271.01761383 653.42750224 -269.67959579 655.10241433 -268.3359375 656.78125 C-267.58570313 657.6371875 -266.83546875 658.493125 -266.0625 659.375 C-265.4025 659.375 -264.7425 659.375 -264.0625 659.375 C-263.84851563 659.91511719 -263.63453125 660.45523438 -263.4140625 661.01171875 C-261.5761712 664.22537262 -259.0659722 666.62439662 -256.4375 669.1875 C-255.89335449 669.72375 -255.34920898 670.26 -254.78857422 670.8125 C-250.6800201 674.83462231 -246.44734215 678.65640595 -242.0625 682.375 C-241.10601562 683.220625 -240.14953125 684.06625 -239.1640625 684.9375 C-224.18647326 698.12343638 -208.12070548 710.01863398 -191.0625 720.375 C-189.90258545 721.07955322 -189.90258545 721.07955322 -188.71923828 721.79833984 C-140.0529959 751.05666049 -86.47717323 768.01539251 -30.0625 773.375 C-29.00579102 773.48086426 -29.00579102 773.48086426 -27.92773438 773.58886719 C41.19800301 780.26137197 110.53597392 763.49027448 171.9375 732.375 C173.12835205 731.77316895 173.12835205 731.77316895 174.34326172 731.15917969 C194.34608652 720.90426003 213.72403344 707.80626369 230.9375 693.375 C232.0008661 692.5020728 233.06467734 691.6296876 234.12890625 690.7578125 C249.76058584 677.84396972 264.71884584 663.7573027 277.9375 648.375 C278.47971191 647.74480957 279.02192383 647.11461914 279.58056641 646.46533203 C329.6409861 587.81618922 358.16929576 515.70307724 365.9375 439.375 C366.01097656 438.65747559 366.08445312 437.93995117 366.16015625 437.20068359 C370.10779359 396.18095201 365.19189355 354.12162458 354.9375 314.375 C354.55319824 312.88154053 354.55319824 312.88154053 354.16113281 311.35791016 C345.4783088 278.29890203 331.46958872 245.19976867 312.9375 216.375 C312.40125 215.54033203 311.865 214.70566406 311.3125 213.84570312 C304.29514562 202.99856493 297.04691378 192.43565498 288.9375 182.375 C288.20273437 181.44816406 287.46796875 180.52132812 286.7109375 179.56640625 C281.91154563 173.58836513 276.84996158 167.90716001 271.63671875 162.29296875 C269.1427426 159.59687586 266.69124381 156.86877316 264.25 154.125 C257.88453813 147.04597212 251.16356886 140.56366293 243.9375 134.375 C242.91863501 133.48119302 241.90045982 132.58659937 240.8828125 131.69140625 C221.23444139 114.49836942 199.76560878 100.00601065 176.9375 87.375 C176.11411133 86.91738281 175.29072266 86.45976563 174.44238281 85.98828125 C124.14700737 58.24714717 67.17313546 44.2135581 9.9375 42.375 C7.98263672 42.31119141 7.98263672 42.31119141 5.98828125 42.24609375 C-47.55405443 41.43402597 -100.11533035 52.97163561 -149.0625 74.375 Z " fill="#000000" transform="translate(416.0625,10.625)"/>
<path d="M0 0 C1.61491359 1.50941672 3.21837925 3.0311399 4.8125 4.5625 C5.30282715 5.02172852 5.7931543 5.48095703 6.29833984 5.95410156 C35.06247501 32.95861088 52.35265341 69.69165191 57.8125 108.5625 C57.94398438 109.46226562 58.07546875 110.36203125 58.2109375 111.2890625 C63.14751039 153.31664249 51.58095672 197.36928126 26.8125 231.5625 C25.6678125 233.15384766 25.6678125 233.15384766 24.5 234.77734375 C13.49244134 249.62249855 -0.01150681 263.00713043 -15.1875 273.5625 C-16.25484375 274.30757813 -17.3221875 275.05265625 -18.421875 275.8203125 C-21.1875 277.5625 -21.1875 277.5625 -23.1875 277.5625 C-23.1875 278.2225 -23.1875 278.8825 -23.1875 279.5625 C-22.46256348 279.68455811 -21.73762695 279.80661621 -20.99072266 279.93237305 C6.60222441 286.13489842 33.97069296 309.2796171 53.8125 328.5625 C54.41835938 329.14257812 55.02421875 329.72265625 55.6484375 330.3203125 C64.52490366 338.83447391 72.57107361 347.61564438 79.8125 357.5625 C80.40321289 358.37001709 80.40321289 358.37001709 81.00585938 359.19384766 C105.23082399 392.57925743 120.93931201 431.54043989 125.8125 472.5625 C125.94269531 473.64015625 126.07289063 474.7178125 126.20703125 475.828125 C126.78882505 481.63054852 126.90469516 487.42296071 126.9375 493.25 C126.94463013 494.31287231 126.94463013 494.31287231 126.9519043 495.3972168 C126.93519675 500.43980325 126.93519675 500.43980325 125.8125 501.5625 C122.79441937 501.663637 119.79969487 501.70218909 116.78125 501.6953125 C115.87499878 501.69626923 114.96874756 501.69722595 114.03503418 501.69821167 C112.11498953 501.69889353 110.19494259 501.69703882 108.27490234 501.69287109 C105.32514296 501.68752292 102.37553586 501.69281588 99.42578125 501.69921875 C97.56510383 501.69855797 95.7044265 501.69727681 93.84375 501.6953125 C92.95522339 501.69733673 92.06669678 501.69936096 91.15124512 501.70144653 C84.92744988 501.67744988 84.92744988 501.67744988 83.8125 500.5625 C83.643637 498.93141968 83.53586641 497.29395925 83.453125 495.65625 C80.80035746 450.19330279 66.42957494 405.58161854 34.87890625 371.78125 C33.03317316 369.79944207 31.29639326 367.76646784 29.5625 365.6875 C-1.88033659 329.84555095 -51.25133043 308.81505458 -98.1875 305.5625 C-122.3440764 304.34195719 -145.9869561 306.66195279 -169.1875 313.5625 C-169.89358398 313.77213379 -170.59966797 313.98176758 -171.32714844 314.19775391 C-189.67175826 319.81530416 -207.55412325 328.44985767 -223.1875 339.5625 C-224.23035156 340.30242187 -225.27320313 341.04234375 -226.34765625 341.8046875 C-232.15769605 346.05020331 -237.60133245 350.56845532 -242.88671875 355.44921875 C-244.96535234 357.35845605 -247.09170746 359.18226644 -249.25 361 C-264.95006267 374.82729177 -276.76657591 393.05398837 -286.1875 411.5625 C-286.54537598 412.24989258 -286.90325195 412.93728516 -287.27197266 413.64550781 C-299.7654737 437.80382995 -304.96014132 463.55526805 -307.23730469 490.41772461 C-307.34848633 491.71589111 -307.45966797 493.01405762 -307.57421875 494.3515625 C-307.66920654 495.52412598 -307.76419434 496.69668945 -307.86206055 497.90478516 C-308.1875 500.5625 -308.1875 500.5625 -309.1875 501.5625 C-312.20558063 501.663637 -315.20030513 501.70218909 -318.21875 501.6953125 C-319.12500122 501.69626923 -320.03125244 501.69722595 -320.96496582 501.69821167 C-322.88501047 501.69889353 -324.80505741 501.69703882 -326.72509766 501.69287109 C-329.67485704 501.68752292 -332.62446414 501.69281588 -335.57421875 501.69921875 C-337.43489617 501.69855797 -339.2955735 501.69727681 -341.15625 501.6953125 C-342.04477661 501.69733673 -342.93330322 501.69936096 -343.84875488 501.70144653 C-350.07255012 501.67744988 -350.07255012 501.67744988 -351.1875 500.5625 C-354.43161055 442.6457522 -328.01756231 384.01639936 -290.49609375 341.21875 C-281.49336766 331.15095102 -271.87969618 321.8239523 -261.1875 313.5625 C-260.21941406 312.77746094 -259.25132812 311.99242187 -258.25390625 311.18359375 C-242.96503724 298.89097489 -224.63710006 287.37522657 -206.1875 280.5625 C-209.60105473 277.79708857 -213.08099837 275.15782991 -216.625 272.5625 C-255.65631035 243.36129744 -281.19449216 202.8471311 -288.33203125 154.3125 C-289.30936278 146.49533762 -289.54439156 138.74548111 -289.5 130.875 C-289.49784485 130.18006439 -289.4956897 129.48512878 -289.49346924 128.76913452 C-289.25059245 79.69187866 -268.12405201 36.66254972 -233.8984375 2.26171875 C-169.21920515 -58.52786904 -65.87950703 -58.00376629 0 0 Z M-208.1875 37.5625 C-208.77789062 38.0884375 -209.36828125 38.614375 -209.9765625 39.15625 C-231.04738157 58.72914354 -244.80144166 90.25976599 -246.36450195 118.79370117 C-246.66064129 134.79820367 -246.53931087 150.03973007 -242.1875 165.5625 C-242.00558105 166.2323291 -241.82366211 166.9021582 -241.63623047 167.59228516 C-232.28778097 201.10133873 -208.77983627 228.13560421 -179.375 245.8125 C-165.75152245 253.29085438 -151.45054895 257.83702468 -136.1875 260.5625 C-135.1253125 260.75585938 -134.063125 260.94921875 -132.96875 261.1484375 C-99.34392793 264.83049446 -64.415709 257.45851061 -37.25 236.625 C-35.20763004 234.96363052 -33.1862555 233.27609274 -31.1875 231.5625 C-30.67638672 231.12824707 -30.16527344 230.69399414 -29.63867188 230.24658203 C-4.18648036 208.44975844 12.35918106 177.33409841 15.64477539 143.86279297 C18.28047383 107.7149754 8.20313574 72.35323077 -15.625 44.6875 C-37.86436423 19.66781253 -68.51303216 2.43564267 -102.1875 -0.4375 C-143.03679864 -2.6981686 -178.25601515 9.41640196 -208.1875 37.5625 Z " fill="#000000" transform="translate(529.1875,174.4375)"/>
</svg>
