<svg xmlns="http://www.w3.org/2000/svg" version="1.0" width="512.000000pt" height="512.000000pt" viewBox="0 0 512.000000 512.000000" preserveAspectRatio="xMidYMid meet">

<g transform="translate(0.000000,512.000000) scale(0.100000,-0.100000)" fill="#0026ff" stroke="none">
<path d="M2921 4350 c-315 -66 -558 -299 -632 -605 -26 -111 -26 -284 1 -391 41 -158 113 -278 240 -398 66 -61 104 -87 184 -126 141 -67 213 -84 366 -83 148 1 236 21 357 82 418 209 571 720 340 1131 -55 97 -187 230 -286 288 -40 24 -114 57 -165 74 -81 28 -106 31 -226 34 -74 2 -155 -1 -179 -6z m325 -100 c151 -38 291 -127 386 -244 239 -297 211 -712 -65 -972 -86 -81 -158 -126 -256 -160 -269 -93 -540 -28 -746 180 -138 139 -205 302 -205 499 0 116 18 201 65 302 142 308 494 477 821 395z" fill="#0026ff"/>
<path d="M2912 3988 c-8 -8 -12 -51 -12 -135 l0 -123 -122 0 c-68 0 -130 -5 -138 -10 -12 -7 -16 -39 -18 -154 -2 -93 1 -152 8 -165 10 -20 19 -21 140 -21 l130 0 0 -128 c0 -86 4 -132 12 -140 8 -8 59 -12 163 -12 104 0 155 4 163 12 8 8 12 54 12 140 l0 128 130 0 c118 0 130 2 140 19 5 11 10 82 10 160 0 114 -3 142 -16 155 -12 13 -40 16 -139 16 l-124 0 -3 133 -3 132 -160 3 c-116 2 -164 -1 -173 -10z m248 -197 c0 -95 3 -123 16 -135 12 -13 40 -16 140 -16 l124 0 0 -85 0 -85 -118 0 c-165 0 -162 3 -162 -156 l0 -124 -85 0 -85 0 0 124 c0 159 3 156 -162 156 l-118 0 0 85 0 85 128 0 c86 0 132 4 140 12 8 8 12 53 12 135 l0 123 85 0 85 0 0 -119z" fill="#0026ff"/>
<path d="M4175 2851 c-22 -10 -209 -123 -415 -251 -206 -127 -376 -226 -378 -220 -9 25 -57 72 -93 90 -34 18 -60 20 -258 20 l-220 0 -88 44 c-170 84 -288 111 -460 104 -195 -9 -316 -62 -456 -200 l-77 -77 -38 59 c-41 67 -76 88 -119 72 -15 -5 -75 -39 -133 -75 l-105 -65 -37 58 c-39 62 -62 80 -101 80 -25 0 -523 -299 -544 -327 -35 -46 -28 -60 383 -731 218 -356 404 -652 413 -659 41 -31 75 -17 328 138 137 83 256 160 266 171 26 30 21 81 -13 136 -16 27 -30 53 -30 58 0 5 48 38 106 74 58 35 115 75 126 89 25 32 20 75 -16 128 -14 21 -26 42 -26 47 0 9 499 2 737 -10 147 -8 243 10 322 59 76 47 1163 832 1183 854 69 76 62 229 -14 300 -57 53 -168 69 -243 34z m155 -86 c54 -28 76 -105 46 -164 -10 -18 -179 -145 -473 -356 -252 -181 -510 -367 -573 -414 -63 -46 -140 -95 -170 -110 -64 -30 -59 -30 -675 -16 l-360 8 -168 275 c-116 190 -166 280 -162 293 4 10 39 52 80 93 54 54 94 84 154 114 106 53 170 66 306 60 127 -6 250 -42 372 -109 l72 -39 228 0 c250 0 258 -2 288 -60 19 -37 19 -54 -1 -95 -30 -64 -36 -65 -491 -65 -224 0 -413 -4 -419 -8 -19 -13 -23 -39 -8 -61 15 -21 19 -21 431 -21 299 0 427 3 457 12 52 16 109 73 127 128 14 42 20 46 314 227 508 314 524 323 562 323 19 0 47 -7 63 -15z m-2455 -819 c151 -247 275 -452 275 -455 0 -5 -119 -81 -186 -118 -21 -12 -32 5 -295 435 -151 245 -274 453 -274 460 0 13 183 133 197 129 4 -1 131 -204 283 -451z m-293 -174 c208 -339 379 -621 379 -627 2 -9 -37 -34 -328 -213 l-132 -81 -381 622 c-210 342 -382 626 -383 630 -2 9 442 286 458 286 6 0 180 -277 387 -617z" fill="#0026ff"/>
<path d="M852 2111 c-8 -5 -15 -19 -15 -32 -1 -15 114 -212 317 -544 176 -286 328 -532 338 -547 12 -18 28 -28 44 -28 18 0 298 161 323 185 9 10 2 58 -10 66 -26 16 -44 9 -168 -67 -103 -64 -125 -74 -136 -63 -7 8 -149 237 -315 509 -166 272 -309 503 -318 513 -16 18 -39 22 -60 8z" fill="#0026ff"/>
</g>
</svg>