<?xml version="1.0" standalone="no"?>
<!DOCTYPE svg PUBLIC "-//W3C//DTD SVG 20010904//EN"
 "http://www.w3.org/TR/2001/REC-SVG-20010904/DTD/svg10.dtd">
<svg version="1.0" xmlns="http://www.w3.org/2000/svg"
 width="250.000000pt" height="250.000000pt" viewBox="0 0 250.000000 250.000000"
 preserveAspectRatio="xMidYMid meet">

<g transform="translate(0.000000,250.000000) scale(0.100000,-0.100000)"
fill="#283380" stroke="none">
<path d="M315 2048 c-3 -7 -4 -371 -3 -808 l3 -795 604 -3 c438 -1 608 1 617
9 11 9 14 44 14 144 l0 133 52 11 c28 7 78 26 110 44 l58 32 28 -30 c16 -17
44 -55 64 -85 44 -69 209 -230 234 -230 35 0 64 29 64 62 0 25 -16 47 -87 120
-49 50 -111 103 -138 119 -28 15 -65 44 -84 63 l-33 34 25 38 c69 106 77 259
20 375 -53 107 -165 192 -274 206 l-39 6 0 131 0 131 -153 153 -152 152 -463
0 c-361 0 -464 -3 -467 -12z m897 -188 l3 -135 138 -3 137 -3 0 -113 0 -113
-45 -6 c-104 -15 -218 -104 -271 -212 -26 -54 -29 -70 -29 -160 0 -88 3 -107
27 -157 51 -110 155 -195 266 -219 l52 -11 0 -114 0 -114 -565 0 -565 0 0 750
0 750 418 2 c229 2 420 1 424 -2 4 -3 9 -66 10 -140z m146 8 c51 -50 92 -93
92 -95 0 -2 -42 -2 -92 -1 l-93 3 -3 93 c-1 50 -1 92 1 92 2 0 45 -41 95 -92z
m279 -449 c72 -28 144 -94 180 -168 24 -48 28 -68 28 -141 0 -78 -3 -90 -34
-148 -40 -73 -85 -116 -156 -148 -163 -73 -351 -3 -430 161 -86 177 13 397
205 456 51 15 148 9 207 -12z"/>
<path d="M500 1825 c-10 -12 -10 -18 0 -30 11 -13 52 -15 284 -13 256 3 271 4
274 22 2 10 -2 22 -10 27 -7 5 -131 9 -274 9 -220 0 -264 -2 -274 -15z"/>
<path d="M494 1595 c-3 -8 -3 -19 1 -25 10 -16 851 -14 857 3 14 36 8 37 -428
37 -362 0 -425 -2 -430 -15z"/>
<path d="M500 1375 c-10 -12 -10 -18 0 -30 19 -22 561 -22 580 0 7 8 10 22 6
30 -8 22 -567 23 -586 0z"/>
<path d="M500 1155 c-10 -12 -10 -18 0 -30 10 -13 53 -15 270 -15 224 0 259 2
271 16 11 14 10 18 -6 30 -29 21 -517 20 -535 -1z"/>
<path d="M493 924 c-3 -8 -1 -20 4 -25 5 -5 126 -8 299 -7 281 3 289 4 289 23
0 19 -8 20 -293 23 -259 2 -293 0 -299 -14z"/>
<path d="M499 704 c-11 -14 -10 -18 6 -30 29 -22 707 -21 725 1 10 12 10 18 0
30 -11 13 -64 15 -365 15 -312 0 -354 -2 -366 -16z"/>
</g>
</svg>
