<?xml version="1.0" standalone="no"?>
<!DOCTYPE svg PUBLIC "-//W3C//DTD SVG 20010904//EN"
 "http://www.w3.org/TR/2001/REC-SVG-20010904/DTD/svg10.dtd">
<svg version="1.0" xmlns="http://www.w3.org/2000/svg"
 width="200.000000pt" height="200.000000pt" viewBox="0 0 200.000000 200.000000"
 preserveAspectRatio="xMidYMid meet">

<g transform="translate(0.000000,200.000000) scale(0.100000,-0.100000)"
fill="#000000" stroke="none">
<path d="M885 1840 c-340 -53 -618 -302 -706 -635 -30 -113 -30 -307 0 -420
78 -294 300 -522 596 -611 79 -24 106 -27 230 -27 123 0 151 3 228 27 299 90
503 294 593 593 24 77 27 105 27 228 0 123 -3 151 -27 228 -91 304 -314 521
-610 597 -93 24 -246 33 -331 20z m497 -487 c30 -27 21 -59 -45 -145 -35 -46
-125 -166 -202 -268 -238 -316 -241 -320 -279 -320 -29 0 -43 12 -132 115 -54
64 -103 126 -108 139 -14 36 15 76 55 76 31 0 40 -8 155 -138 l29 -33 59 78
c33 43 133 176 223 296 152 201 166 217 195 217 17 0 40 -7 50 -17z"/>
</g>
</svg>
