<?xml version="1.0" standalone="no"?>
<!DOCTYPE svg PUBLIC "-//W3C//DTD SVG 20010904//EN"
 "http://www.w3.org/TR/2001/REC-SVG-20010904/DTD/svg10.dtd">
<svg version="1.0" xmlns="http://www.w3.org/2000/svg"
 width="512.000000pt" height="512.000000pt" viewBox="0 0 512.000000 512.000000"
 preserveAspectRatio="xMidYMid meet">

<g transform="translate(0.000000,512.000000) scale(0.100000,-0.100000)"
fill="#000000" stroke="none">
<path d="M2465 5107 c-100 -34 -179 -104 -216 -192 l-23 -55 -113 0 c-126 0
-153 -8 -197 -60 -14 -18 -29 -49 -32 -71 l-7 -39 -503 0 c-483 0 -505 -1
-558 -21 -73 -27 -148 -96 -183 -167 l-28 -57 0 -1970 0 -1970 22 -47 c30 -66
96 -133 162 -165 l56 -28 430 -5 430 -5 3 -40 c5 -78 13 -106 45 -142 67 -76
28 -73 807 -73 l696 0 44 23 c70 35 102 84 109 164 l6 68 430 5 430 5 56 28
c66 32 132 99 162 165 l22 47 0 1970 0 1970 -28 57 c-35 71 -110 140 -183 167
-53 20 -75 21 -558 21 l-503 0 -7 39 c-7 44 -44 94 -87 116 -16 9 -74 17 -143
21 l-116 7 -24 53 c-51 112 -162 185 -290 191 -41 1 -88 -3 -111 -10z m158
-171 c42 -17 93 -76 102 -116 10 -44 72 -106 120 -119 22 -6 82 -11 133 -11
l92 0 0 -85 0 -85 -510 0 -510 0 0 85 0 85 98 0 c152 1 196 24 243 125 53 116
138 161 232 121z m-743 -437 c0 -35 42 -98 80 -122 35 -22 35 -22 601 -22
l565 0 37 25 c39 27 77 85 77 119 l0 22 503 -3 504 -3 35 -27 c74 -57 68 124
66 -2025 l-3 -1930 -29 -37 c-50 -66 -50 -66 -501 -66 l-405 0 0 148 c0 171
-14 243 -67 350 -42 84 -138 193 -218 247 -31 20 -87 48 -125 62 -68 25 -70
27 -55 47 86 116 115 190 122 306 10 154 -39 281 -147 390 -104 105 -212 150
-360 150 -148 0 -256 -45 -360 -150 -108 -109 -157 -236 -147 -390 7 -116 36
-190 122 -306 14 -20 13 -21 -58 -48 -39 -16 -96 -44 -124 -63 -78 -52 -175
-161 -216 -245 -53 -107 -67 -179 -67 -350 l0 -148 -405 0 c-451 0 -451 0
-501 66 l-29 37 0 1942 0 1942 27 35 c53 69 38 68 586 68 l492 0 0 -21z m821
-2568 c70 -33 122 -83 160 -153 32 -58 34 -69 34 -153 0 -76 -4 -99 -26 -145
-33 -70 -99 -136 -169 -169 -79 -37 -201 -37 -280 0 -70 33 -136 99 -168 168
-29 63 -40 166 -23 226 28 104 121 205 220 239 66 23 191 16 252 -13z m184
-836 c166 -44 299 -173 340 -331 12 -49 15 -112 13 -325 l-3 -264 -675 0 -675
0 -3 265 c-3 303 4 350 68 448 67 104 164 175 283 207 78 21 571 21 652 0z"/>
<path d="M4052 3994 c-13 -9 -124 -151 -248 -315 -123 -164 -227 -299 -231
-299 -4 0 -32 25 -63 55 -71 71 -107 80 -150 37 -21 -22 -30 -40 -30 -63 0
-29 15 -48 108 -141 96 -96 112 -108 143 -108 19 0 42 6 51 13 9 6 135 172
282 368 291 389 294 394 240 444 -31 29 -70 32 -102 9z"/>
<path d="M1154 3828 c-48 -23 -57 -92 -18 -132 l27 -26 883 0 883 0 27 24 c39
33 39 89 0 122 l-27 24 -877 -1 c-582 0 -884 -4 -898 -11z"/>
<path d="M1139 3471 c-37 -38 -39 -82 -4 -116 l24 -25 670 0 c368 0 677 3 686
6 19 8 45 55 45 84 0 12 -13 35 -29 51 l-29 29 -667 0 -667 0 -29 -29z"/>
<path d="M2760 3472 c-32 -32 -37 -60 -18 -95 20 -38 40 -46 115 -47 61 0 76
3 99 24 36 30 39 86 6 119 -18 17 -36 22 -97 25 -72 4 -75 3 -105 -26z"/>
<path d="M3393 2982 c-31 -5 -63 -48 -63 -85 0 -26 23 -54 152 -184 l152 -153
-152 -153 c-139 -141 -152 -156 -152 -189 0 -28 7 -42 32 -63 53 -45 74 -34
243 135 l150 150 151 -151 c143 -143 153 -151 190 -151 47 0 84 37 84 84 0 27
-21 53 -152 185 l-152 153 152 153 c131 132 152 158 152 185 0 46 -38 86 -84
86 -34 0 -48 -11 -189 -152 l-152 -152 -145 145 c-142 142 -173 164 -217 157z"/>
<path d="M1164 2810 c-55 -22 -70 -95 -29 -135 l24 -25 886 0 c567 0 893 4
905 10 10 5 24 25 30 44 15 46 -7 89 -51 105 -39 13 -1732 15 -1765 1z"/>
<path d="M1135 2445 c-32 -31 -32 -75 -1 -112 l24 -28 677 0 677 0 24 28 c31
37 31 81 -1 112 l-24 25 -676 0 -676 0 -24 -25z"/>
<path d="M2755 2445 c-32 -31 -32 -75 -2 -110 17 -20 34 -27 78 -32 110 -11
174 37 149 113 -15 46 -35 54 -125 54 -67 0 -79 -3 -100 -25z"/>
<path d="M4048 1948 c-8 -7 -117 -149 -242 -315 -124 -167 -229 -303 -233
-303 -3 0 -34 27 -69 60 -64 61 -87 70 -127 48 -33 -17 -46 -39 -47 -77 0 -30
12 -47 108 -143 117 -116 140 -127 190 -92 22 15 516 666 540 711 31 57 -8
123 -71 123 -18 0 -40 -6 -49 -12z"/>
<path d="M1135 1765 c-35 -34 -33 -78 4 -116 l29 -29 326 0 c323 0 325 0 350
23 40 34 43 77 11 115 l-27 32 -334 0 -335 0 -24 -25z"/>
<path d="M1136 1424 c-40 -41 -30 -110 21 -133 16 -7 130 -11 343 -11 l319 0
27 24 c39 33 39 89 0 122 l-27 24 -328 0 -328 0 -27 -26z"/>
</g>
</svg>
