<?xml version="1.0" encoding="UTF-8"?>
<svg version="1.1" xmlns="http://www.w3.org/2000/svg" width="180" height="180">
<path d="M0 0 C0.70837509 0.00718552 1.41675018 0.01437103 2.14659119 0.02177429 C3.23749306 0.02246162 3.23749306 0.02246162 4.35043335 0.02316284 C5.88788993 0.02618468 7.42534346 0.03406899 8.9627533 0.0464325 C11.32427229 0.06469731 13.68539954 0.06694214 16.04698181 0.06669617 C17.53852168 0.07161101 19.03005888 0.07743918 20.52159119 0.08427429 C21.23199051 0.08538712 21.94238983 0.08649994 22.67431641 0.08764648 C27.65163129 0.13618939 27.65163129 0.13618939 28.76768494 1.25224304 C28.83974005 2.9383327 28.85154561 4.62724963 28.83018494 6.31474304 C28.8211615 7.2338446 28.81213806 8.15294617 28.80284119 9.09989929 C28.79123962 9.81017273 28.77963806 10.52044617 28.76768494 11.25224304 C30.17946324 11.78618483 31.59738738 12.30389408 33.01768494 12.81474304 C34.20104431 13.24980164 34.20104431 13.24980164 35.40830994 13.69364929 C38.0067988 14.30885444 39.30276417 14.22871058 41.76768494 13.25224304 C42.72674744 12.20036804 42.72674744 12.20036804 43.70518494 11.12724304 C44.38580994 10.50849304 45.06643494 9.88974304 45.76768494 9.25224304 C49.29093065 9.42410869 50.79360218 10.2695212 53.76768494 12.25224304 C53.19423556 15.11948991 52.90623343 16.11369455 50.76768494 18.25224304 C49.62299744 18.68536804 49.62299744 18.68536804 48.45518494 19.12724304 C45.41122596 20.40145843 43.26222612 22.11406489 40.76768494 24.25224304 C40.08190369 23.9750946 39.39612244 23.69794617 38.68955994 23.41239929 C34.3245642 21.67923922 29.92664051 20.0331489 25.53330994 18.37333679 C22.76768494 17.25224304 22.76768494 17.25224304 21.76768494 16.25224304 C21.76768494 13.28224304 21.76768494 10.31224304 21.76768494 7.25224304 C14.50768494 7.25224304 7.24768494 7.25224304 -0.23231506 7.25224304 C-0.23231506 10.22224304 -0.23231506 13.19224304 -0.23231506 16.25224304 C-2.39365388 17.19782877 -4.55503934 18.14330806 -6.71669006 19.08818054 C-9.04672824 20.16636591 -11.244868 21.37188152 -13.48231506 22.62724304 C-16.26909678 24.03728798 -16.91247381 24.30786761 -20.10731506 23.75224304 C-22.43786443 22.10714937 -23.25946853 20.90546086 -24.23231506 18.25224304 C-28.53079619 20.51338302 -31.25680282 23.27907077 -34.41981506 26.93974304 C-35.98309511 28.7467729 -37.57825446 30.52792146 -39.23231506 32.25224304 C-39.89231506 32.25224304 -40.55231506 32.25224304 -41.23231506 32.25224304 C-41.23231506 32.91224304 -41.23231506 33.57224304 -41.23231506 34.25224304 C-40.61356506 34.54099304 -39.99481506 34.82974304 -39.35731506 35.12724304 C-37.23231506 36.25224304 -37.23231506 36.25224304 -35.23231506 38.25224304 C-35.47522693 44.20358373 -37.63847659 48.95689732 -40.23231506 54.25224304 C-40.72924866 55.34472351 -40.72924866 55.34472351 -41.23622131 56.45927429 C-42.23231506 58.25224304 -42.23231506 58.25224304 -44.23231506 59.25224304 C-46.87231506 59.25224304 -49.51231506 59.25224304 -52.23231506 59.25224304 C-52.23231506 66.18224304 -52.23231506 73.11224304 -52.23231506 80.25224304 C-48.93231506 80.25224304 -45.63231506 80.25224304 -42.23231506 80.25224304 C-41.89458069 81.15587585 -41.55684631 82.05950867 -41.20887756 82.99052429 C-40.76286194 84.17001648 -40.31684631 85.34950867 -39.85731506 86.56474304 C-39.41645569 87.73650085 -38.97559631 88.90825867 -38.52137756 90.11552429 C-37.31741859 93.33777897 -37.31741859 93.33777897 -35.23231506 96.25224304 C-34.79481506 98.62724304 -34.79481506 98.62724304 -35.23231506 101.25224304 C-36.88231506 102.90224304 -38.53231506 104.55224304 -40.23231506 106.25224304 C-35.61231506 110.87224304 -30.99231506 115.49224304 -26.23231506 120.25224304 C-24.25231506 118.60224304 -22.27231506 116.95224304 -20.23231506 115.25224304 C-15.40704659 115.24577485 -11.20300879 117.35963449 -6.85731506 119.31474304 C-6.216651 119.5964032 -5.57598694 119.87806335 -4.91590881 120.16825867 C-3.35201847 120.85683725 -1.79177565 121.55369015 -0.23231506 122.25224304 C-0.23231506 125.55224304 -0.23231506 128.85224304 -0.23231506 132.25224304 C7.02768494 132.25224304 14.28768494 132.25224304 21.76768494 132.25224304 C21.76768494 128.95224304 21.76768494 125.65224304 21.76768494 122.25224304 C22.67131775 121.91450867 23.57495056 121.57677429 24.50596619 121.22880554 C25.68545837 120.78278992 26.86495056 120.33677429 28.08018494 119.87724304 C29.83782166 119.21595398 29.83782166 119.21595398 31.63096619 118.54130554 C34.85322086 117.33734656 34.85322086 117.33734656 37.76768494 115.25224304 C42.7144151 115.38593845 45.2654301 118.07577935 48.76768494 121.25224304 C49.14280212 120.38599304 49.14280212 120.38599304 49.52549744 119.50224304 C50.93450246 116.950083 52.54880257 115.27501242 54.64268494 113.25224304 C55.32073181 112.59224304 55.99877869 111.93224304 56.69737244 111.25224304 C57.38057556 110.59224304 58.06377869 109.93224304 58.76768494 109.25224304 C60.10332707 107.92122251 61.43733778 106.58855588 62.76768494 105.25224304 C62.10768494 105.25224304 61.44768494 105.25224304 60.76768494 105.25224304 C60.76768494 104.59224304 60.76768494 103.93224304 60.76768494 103.25224304 C58.78768494 102.26224304 58.78768494 102.26224304 56.76768494 101.25224304 C57.35843176 96.44504079 58.80924913 92.33236674 60.76768494 87.93974304 C61.04096619 87.30745789 61.31424744 86.67517273 61.59580994 86.02372742 C63.61607779 81.40385018 63.61607779 81.40385018 64.76768494 80.25224304 C67.73768494 80.25224304 70.70768494 80.25224304 73.76768494 80.25224304 C73.76768494 73.32224304 73.76768494 66.39224304 73.76768494 59.25224304 C71.78768494 59.25224304 69.80768494 59.25224304 67.76768494 59.25224304 C67.10768494 58.92224304 66.44768494 58.59224304 65.76768494 58.25224304 C65.72514137 56.25269558 65.72687711 54.25182668 65.76768494 52.25224304 C67.57514628 50.4447817 70.27214275 51.07920822 72.70518494 51.06474304 C73.78670837 51.05056335 74.86823181 51.03638367 75.98252869 51.02177429 C78.76768494 51.25224304 78.76768494 51.25224304 80.76768494 53.25224304 C80.95490346 55.74968166 81.0234826 58.13412987 80.99815369 60.63114929 C80.99769547 61.35841721 80.99723724 62.08568512 80.99676514 62.83499146 C80.9937433 64.37244803 80.98585899 65.90990156 80.97349548 67.4473114 C80.95523067 69.8088304 80.95298584 72.16995765 80.95323181 74.53153992 C80.94831697 76.02307979 80.94248879 77.51461699 80.93565369 79.00614929 C80.93454086 79.71654861 80.93342804 80.42694794 80.93228149 81.15887451 C80.88373858 86.13618939 80.88373858 86.13618939 79.76768494 87.25224304 C78.08584546 87.48511312 76.39644334 87.6648847 74.70518494 87.81474304 C72.26112244 88.03130554 72.26112244 88.03130554 69.76768494 88.25224304 C68.44768494 91.55224304 67.12768494 94.85224304 65.76768494 98.25224304 C66.77830994 99.13911804 67.78893494 100.02599304 68.83018494 100.93974304 C70.55284119 102.45146179 70.55284119 102.45146179 71.76768494 104.25224304 C71.87403186 107.07527055 71.23434632 108.66244356 69.48716736 110.87065125 C67.82156699 112.66510236 66.0968686 114.36986043 64.33018494 116.06474304 C63.73141541 116.66222351 63.13264587 117.25970398 62.51573181 117.87528992 C58.04873851 122.25224304 58.04873851 122.25224304 55.76768494 122.25224304 C55.54080994 122.82974304 55.31393494 123.40724304 55.08018494 124.00224304 C53.38718011 126.90453704 51.58621635 128.44032999 48.76768494 130.25224304 C44.64783967 130.38514128 41.67097738 126.82561589 38.76768494 124.25224304 C35.79768494 125.57224304 32.82768494 126.89224304 29.76768494 128.25224304 C29.707099 128.96251648 29.64651306 129.67278992 29.58409119 130.40458679 C29.45840759 131.78323914 29.45840759 131.78323914 29.33018494 133.18974304 C29.248974 134.10626648 29.16776306 135.02278992 29.08409119 135.96708679 C28.76768494 138.25224304 28.76768494 138.25224304 27.76768494 139.25224304 C25.34275121 139.35309958 22.94692832 139.39196636 20.52159119 139.38505554 C19.79528 139.38601227 19.06896881 139.38696899 18.32064819 139.38795471 C16.78142714 139.38863648 15.24220323 139.38678241 13.70298767 139.38261414 C11.34362836 139.37727347 8.9844601 139.38255519 6.62510681 139.38896179 C5.13226785 139.38830086 3.639429 139.38701938 2.14659119 139.38505554 C1.08402855 139.38809189 1.08402855 139.38809189 0 139.39118958 C-5.00240078 139.36720019 -5.00240078 139.36720019 -7.23231506 138.25224304 C-7.23231506 134.62224304 -7.23231506 130.99224304 -7.23231506 127.25224304 C-8.88231506 126.92224304 -10.53231506 126.59224304 -12.23231506 126.25224304 C-14.23976121 125.60834522 -16.2417663 124.94662052 -18.23231506 124.25224304 C-18.61903381 124.6969696 -19.00575256 125.14169617 -19.40419006 125.59989929 C-19.92497131 126.16579773 -20.44575256 126.73169617 -20.98231506 127.31474304 C-21.74801819 128.16745789 -21.74801819 128.16745789 -22.52919006 129.03739929 C-24.23231506 130.25224304 -24.23231506 130.25224304 -26.09291077 130.05570984 C-28.78729602 129.04381644 -30.15706257 127.66832318 -32.16590881 125.61161804 C-32.89745178 124.8704071 -33.62899475 124.12919617 -34.38270569 123.36552429 C-35.13745178 122.58564148 -35.89219788 121.80575867 -36.66981506 121.00224304 C-37.42069397 120.23782898 -38.17157288 119.47341492 -38.94520569 118.68583679 C-40.39659474 117.20764108 -41.84512795 115.72663445 -43.29042053 114.24247742 C-45.58422075 111.89157732 -47.9028888 109.56777611 -50.23231506 107.25224304 C-48.75539199 102.57531997 -48.75539199 102.57531997 -46.10731506 100.93974304 C-45.48856506 100.71286804 -44.86981506 100.48599304 -44.23231506 100.25224304 C-44.69574045 97.54892831 -45.26287806 95.17673446 -46.29481506 92.62724304 C-47.23231506 90.25224304 -47.23231506 90.25224304 -47.23231506 87.25224304 C-47.93098694 87.27544617 -48.62965881 87.29864929 -49.34950256 87.32255554 C-50.71461975 87.34962585 -50.71461975 87.34962585 -52.10731506 87.37724304 C-53.01223694 87.40044617 -53.91715881 87.42364929 -54.84950256 87.44755554 C-57.23231506 87.25224304 -57.23231506 87.25224304 -59.23231506 85.25224304 C-59.63218628 80.69122307 -59.56133898 76.11596066 -59.54798889 71.53935242 C-59.54482704 69.26087214 -59.56829023 66.98368783 -59.59364319 64.70536804 C-59.59591594 63.26266135 -59.59661979 61.81995116 -59.59559631 60.37724304 C-59.59857727 59.05982117 -59.60155823 57.74239929 -59.60462952 56.38505554 C-59.48176575 55.35122742 -59.35890198 54.31739929 -59.23231506 53.25224304 C-56.14342984 51.19298623 -55.52295579 51.01320564 -52.04481506 51.12724304 C-50.78669006 51.16849304 -49.52856506 51.20974304 -48.23231506 51.25224304 C-46.58231506 47.62224304 -44.93231506 43.99224304 -43.23231506 40.25224304 C-44.55231506 39.59224304 -45.87231506 38.93224304 -47.23231506 38.25224304 C-49.04481506 36.93974304 -49.04481506 36.93974304 -50.23231506 35.25224304 C-50.085612 32.31818172 -49.62418291 30.74633728 -47.79481506 28.43974304 C-46.23231506 27.25224304 -46.23231506 27.25224304 -44.23231506 27.25224304 C-44.23231506 26.59224304 -44.23231506 25.93224304 -44.23231506 25.25224304 C-43.57231506 25.25224304 -42.91231506 25.25224304 -42.23231506 25.25224304 C-42.02219788 24.72114929 -41.81208069 24.19005554 -41.59559631 23.64286804 C-39.67566011 20.27610313 -37.13379851 17.74576198 -34.41981506 15.00224304 C-33.89838928 14.44794617 -33.3769635 13.89364929 -32.83973694 13.32255554 C-30.48801497 10.93853777 -28.86141807 9.37189952 -25.52137756 8.73661804 C-22.08270559 9.51119944 -20.49786747 11.66304029 -18.23231506 14.25224304 C-12.78731506 12.76724304 -12.78731506 12.76724304 -7.23231506 11.25224304 C-7.27356506 9.80849304 -7.31481506 8.36474304 -7.35731506 6.87724304 C-7.42762756 4.41630554 -7.42762756 4.41630554 -7.23231506 2.25224304 C-4.76324539 -0.21682664 -3.36957737 0.01577186 0 0 Z " fill="#FFFFFF" transform="translate(62.23231506347656,32.74775695800781)"/>
<path d="M0 0 C2 2 2 2 2.24291992 3.82495117 C2.23881104 4.55689697 2.23470215 5.28884277 2.23046875 6.04296875 C2.22917969 6.86313477 2.22789062 7.68330078 2.2265625 8.52832031 C2.21367187 9.40584961 2.20078125 10.28337891 2.1875 11.1875 C2.18105469 12.07920898 2.17460937 12.97091797 2.16796875 13.88964844 C2.07953915 21.61894839 1.65344652 29.29866605 1 37 C-0.65 37.66 -2.3 38.32 -4 39 C-5.98 37.35 -7.96 35.7 -10 34 C-13.9684025 35.56331008 -16.41568551 38.32122701 -19.1875 41.4375 C-19.67162354 41.97318604 -20.15574707 42.50887207 -20.65454102 43.06079102 C-24.44947443 47.29463245 -28.02962854 51.68468726 -31.58984375 56.1171875 C-34.94918079 60.13532483 -38.5093984 63.95307461 -42.10327148 67.76147461 C-44.87424993 70.64455051 -44.87424993 70.64455051 -47 74 C-47.66 74 -48.32 74 -49 74 C-49.37125 74.86625 -49.37125 74.86625 -49.75 75.75 C-51.23645383 78.42561689 -52.61944931 80.06054539 -55 82 C-57.77050781 82.33959961 -57.77050781 82.33959961 -60.953125 82.15234375 C-77.96061447 81.33591976 -77.96061447 81.33591976 -92.3125 89.3125 C-94.03735601 90.99883391 -95.71796266 92.71302594 -97.37353516 94.46728516 C-99.96366527 96.90811927 -102.84468503 98.38035163 -106 100 C-110.14648766 96.93878438 -113.23382276 93.59260276 -116.375 89.5625 C-116.83777344 89.00240234 -117.30054688 88.44230469 -117.77734375 87.86523438 C-119.74216317 85.35202506 -120.96619136 83.58601643 -121.15234375 80.359375 C-119.50433032 76.98513734 -117.32415885 75.72279346 -114.1875 73.6875 C-113.60943604 73.30577637 -113.03137207 72.92405273 -112.43579102 72.53076172 C-111.23148235 71.73706122 -110.02298451 70.94968352 -108.81054688 70.16845703 C-105.99765204 68.35312333 -103.22039761 66.48597709 -100.4375 64.625 C-99.48746094 63.99851563 -98.53742188 63.37203125 -97.55859375 62.7265625 C-95.04797861 61.1092512 -95.04797861 61.1092512 -93.14881897 59.38356018 C-90.46503251 57.65555046 -89.19990494 57.80273323 -86.06030273 58.13647461 C-75.37913231 58.81016508 -67.37992082 58.56123294 -59.05215454 51.28042603 C-54.87448256 47.19292598 -50.94975461 42.92471692 -47.0625 38.5625 C-45.40329618 36.7962403 -43.73860397 35.03511966 -42.06835938 33.27929688 C-34.77739229 26.20159074 -34.77739229 26.20159074 -29 18 C-29.5775 17.7525 -30.155 17.505 -30.75 17.25 C-33.41076851 15.77179527 -35.13556544 14.41685961 -37 12 C-36.60546875 9.36328125 -36.60546875 9.36328125 -36 7 C-31.8394303 5.99443348 -27.67684164 4.99783767 -23.51220703 4.00927734 C-22.09756526 3.67218085 -20.68349014 3.33269664 -19.27001953 2.99072266 C-17.23095915 2.49784196 -15.18997348 2.01376018 -13.1484375 1.53125 C-11.92302246 1.23798828 -10.69760742 0.94472656 -9.43505859 0.64257812 C-6.15907275 0.02975689 -3.31969224 -0.27356443 0 0 Z M-11.3515625 8.875 C-12.20234375 9.05546875 -13.053125 9.2359375 -13.9296875 9.421875 C-15.26386719 9.70804688 -15.26386719 9.70804688 -16.625 10 C-17.5221875 10.19078125 -18.419375 10.3815625 -19.34375 10.578125 C-21.56289039 11.05028253 -23.7816135 11.52431519 -26 12 C-24.7315625 13.0828125 -24.7315625 13.0828125 -23.4375 14.1875 C-21 17 -21 17 -20.80859375 19.42578125 C-22.51723315 23.11756278 -25.1027554 25.45100471 -28.0625 28.1875 C-30.08911446 30.08989519 -32.05366228 32.01256314 -34 34 C-34 34.66 -34 35.32 -34 36 C-34.55558594 36.22961426 -35.11117187 36.45922852 -35.68359375 36.69580078 C-38.64265187 38.36183034 -40.67533552 40.4514579 -43.0625 42.8671875 C-43.5356665 43.3431839 -44.00883301 43.8191803 -44.49633789 44.30960083 C-46.00234023 45.82674977 -47.50124052 47.35069896 -49 48.875 C-50.00734706 49.89238814 -51.01515511 50.90932006 -52.0234375 51.92578125 C-53.88179931 53.80042633 -55.73683553 55.67814813 -57.58984375 57.55810547 C-58.38519531 58.36393066 -59.18054688 59.16975586 -60 60 C-60.66112793 60.76199707 -61.32225586 61.52399414 -62.00341797 62.30908203 C-64.5444688 64.46111407 -65.72746558 64.39650895 -69.0078125 64.1875 C-69.98637207 64.15760986 -70.96493164 64.12771973 -71.97314453 64.09692383 C-73.01325684 64.06493896 -74.05336914 64.0329541 -75.125 64 C-87.48219916 64.0102619 -94.80549694 67.87016041 -104.20410156 75.56103516 C-106.6955672 77.55732369 -109.31635653 79.2736063 -112 81 C-110.47291037 84.43595166 -108.40072955 87.11912454 -106 90 C-101.96548357 89.43308903 -99.73168091 87.35068637 -96.6875 84.75 C-94.80567337 83.15004469 -92.90889101 81.56756613 -91 80 C-90.28674561 79.30644409 -90.28674561 79.30644409 -89.55908203 78.59887695 C-83.14963634 72.98338965 -74.88775961 74.53399926 -66.87109375 74.81445312 C-60.36309247 74.9783626 -60.36309247 74.9783626 -54.68334961 72.2578125 C-52.93595853 70.25169194 -51.46546635 68.21602388 -50 66 C-49.195625 65.21625 -48.39125 64.4325 -47.5625 63.625 C-45.76896376 62.13544499 -45.76896376 62.13544499 -46 60 C-45.34 60 -44.68 60 -44 60 C-42.60674046 58.44759659 -41.28619872 56.82970015 -40 55.1875 C-35.9618714 50.13659317 -31.73568659 45.33473457 -27.35546875 40.57421875 C-25.26248037 38.28685666 -23.21556326 35.96981067 -21.1875 33.625 C-20.63707031 32.99980469 -20.08664063 32.37460937 -19.51953125 31.73046875 C-18.5446032 30.62020365 -17.58236085 29.49859368 -16.63671875 28.36328125 C-15.375 26.9375 -15.375 26.9375 -13 25 C-10.175619 25.13136656 -8.50524739 25.74737631 -6 27 C-5.67 20.73 -5.34 14.46 -5 8 C-7.24108243 8 -9.15836239 8.40711731 -11.3515625 8.875 Z " fill="#FFFFFF" transform="translate(176,4)"/>
<path d="M0 0 C0 2.31 0 4.62 0 7 C-0.87140625 7.13535156 -1.7428125 7.27070312 -2.640625 7.41015625 C-13.41842929 9.35809274 -22.76772889 12.6900195 -30.0625 21.3125 C-36.68537855 30.92375058 -37.54464182 42.28564571 -35.53125 53.64453125 C-32.53483902 63.82876143 -26.22549128 70.94174401 -17 76 C-7.96287719 80.1157723 2.33025977 80.49397515 11.75 77.4375 C20.73359722 73.69760363 27.65230736 67.78091366 32 59 C34.17151058 53.10379669 34.24081673 47.74978622 34.125 41.5625 C34.11597656 40.64017578 34.10695313 39.71785156 34.09765625 38.76757812 C34.0742766 36.51144191 34.04150916 34.25586316 34 32 C36.31 31.34 38.62 30.68 41 30 C45.07461537 40.9505288 43.54275125 52.43608732 39 63 C33.88806658 72.34980568 25.58162521 81.25434437 15.37890625 84.94921875 C1.84296172 88.49747606 -10.95501812 88.16773802 -23.56640625 81.6796875 C-33.28408397 75.66163328 -40.36419938 66.2217634 -43.8515625 55.34375 C-46.5101443 43.2915125 -45.11974335 30.02897717 -38.42578125 19.53125 C-28.97257453 6.7853533 -16.08723047 -0.65662165 0 0 Z " fill="#FFFFFF" transform="translate(74,59)"/>
<path d="M0 0 C3.33203143 1.29132945 6.1375577 2.95007024 8.4375 5.75 C9.55470488 10.21881951 9.4619892 14.61403241 8 19 C8.42152344 19.39832031 8.84304687 19.79664062 9.27734375 20.20703125 C10.09912109 21.00173828 10.09912109 21.00173828 10.9375 21.8125 C11.48277344 22.33457031 12.02804688 22.85664062 12.58984375 23.39453125 C16.08769618 27.37685078 15.29766864 33.00861236 15.375 38 C15.43107422 39.37285156 15.43107422 39.37285156 15.48828125 40.7734375 C15.49988281 41.65257812 15.51148438 42.53171875 15.5234375 43.4375 C15.5531665 44.64212891 15.5531665 44.64212891 15.58349609 45.87109375 C15.39094238 46.57363281 15.19838867 47.27617187 15 48 C14.17806152 48.46647949 13.35612305 48.93295898 12.50927734 49.41357422 C9.72168193 50.76678861 9.72168193 50.76678861 9.35644531 53.71142578 C9.34709961 54.7786084 9.33775391 55.84579102 9.328125 56.9453125 C9.30363281 58.10417969 9.27914062 59.26304687 9.25390625 60.45703125 C9.25261719 61.66746094 9.25132812 62.87789062 9.25 64.125 C9.21700493 66.52348764 9.18073168 68.92193323 9.140625 71.3203125 C9.13337402 72.91770264 9.13337402 72.91770264 9.12597656 74.54736328 C9 77 9 77 8 78 C6.30441274 78.09932153 4.60474253 78.13080007 2.90625 78.1328125 C1.87628906 78.13410156 0.84632813 78.13539063 -0.21484375 78.13671875 C-1.84099609 78.13091797 -1.84099609 78.13091797 -3.5 78.125 C-4.58410156 78.12886719 -5.66820312 78.13273437 -6.78515625 78.13671875 C-7.81511719 78.13542969 -8.84507812 78.13414062 -9.90625 78.1328125 C-10.85822266 78.13168457 -11.81019531 78.13055664 -12.79101562 78.12939453 C-15 78 -15 78 -16 77 C-16.10936263 75.10902414 -16.15586369 73.21434344 -16.17578125 71.3203125 C-16.19962891 70.16402344 -16.22347656 69.00773437 -16.24804688 67.81640625 C-16.29087616 65.36345609 -16.32220226 62.91027703 -16.34179688 60.45703125 C-16.36951172 59.29816406 -16.39722656 58.13929688 -16.42578125 56.9453125 C-16.44036377 55.87812988 -16.45494629 54.81094727 -16.4699707 53.71142578 C-17.1355128 50.30676867 -18.2548136 49.93079117 -21 48 C-21.51757812 45.93457031 -21.51757812 45.93457031 -21.53125 43.578125 C-21.53640625 42.71703125 -21.5415625 41.8559375 -21.546875 40.96875 C-21.53140625 40.0715625 -21.5159375 39.174375 -21.5 38.25 C-21.51546875 37.36828125 -21.5309375 36.4865625 -21.546875 35.578125 C-21.5055357 28.63312261 -19.98039018 24.29971769 -15.25 19.0625 C-14.8375 18.711875 -14.425 18.36125 -14 18 C-14.66 17.01 -15.32 16.02 -16 15 C-16.34385894 11.17456924 -16.12495738 7.39717739 -13.66015625 4.3359375 C-9.01883972 0.45493444 -6.00254254 -0.49201168 0 0 Z M-8 9 C-8.22417836 11.7648665 -8.32233508 13.46277487 -6.875 15.875 C-4.07848948 17.55290631 -2.06309468 16.74875648 1 16 C1.33 14.02 1.66 12.04 2 10 C-2.11697302 6.70642158 -3.36496612 6.52798193 -8 9 Z M-14 29 C-14.36771245 31.8387401 -14.48630804 34.01820151 -14.3125 36.8125 C-14.28994141 37.50537109 -14.26738281 38.19824219 -14.24414062 38.91210938 C-14.18562661 40.60901573 -14.0959548 42.30479861 -14 44 C-11.525 44.99 -11.525 44.99 -9 46 C-8.67 54.58 -8.34 63.16 -8 72 C-4.7 72 -1.4 72 2 72 C2.00410889 71.25838623 2.00821777 70.51677246 2.01245117 69.75268555 C2.04531841 66.3968092 2.11595525 63.04276512 2.1875 59.6875 C2.19330078 58.52025391 2.19910156 57.35300781 2.20507812 56.15039062 C2.24858398 54.47299805 2.24858398 54.47299805 2.29296875 52.76171875 C2.3086792 51.73006592 2.32438965 50.69841309 2.34057617 49.63549805 C3 47 3 47 5.50708008 45.32495117 C6.74107544 44.66910034 6.74107544 44.66910034 8 44 C8.71948313 40.98407235 8.71948313 40.98407235 8.5 37.625 C8.4896875 36.50351563 8.479375 35.38203125 8.46875 34.2265625 C7.96015413 30.72572756 7.10902874 28.8153544 5 26 C1.72683609 23.81789073 0.45779281 23.65175682 -3.375 23.5625 C-4.31085938 23.52253906 -5.24671875 23.48257813 -6.2109375 23.44140625 C-10.20855021 24.24204857 -11.60956429 25.73522475 -14 29 Z " fill="#FFFFFF" transform="translate(163,99)"/>
<path d="M0 0 C2.31 0 4.62 0 7 0 C7 9.9 7 19.8 7 30 C4.69 30 2.38 30 0 30 C0 20.1 0 10.2 0 0 Z " fill="#FFFFFF" transform="translate(87,99)"/>
<path d="M0 0 C1.4540625 0.0309375 1.4540625 0.0309375 2.9375 0.0625 C3.85050909 2.80152726 4.06596608 4.4369827 4.0703125 7.2578125 C4.07224609 8.45470703 4.07224609 8.45470703 4.07421875 9.67578125 C4.07035156 10.50464844 4.06648438 11.33351563 4.0625 12.1875 C4.06636719 13.02410156 4.07023437 13.86070313 4.07421875 14.72265625 C4.06414874 20.93585126 4.06414874 20.93585126 2.9375 22.0625 C0.60452567 22.10342937 -1.72955225 22.10491723 -4.0625 22.0625 C-4.09137814 18.58335059 -4.10925687 15.10423169 -4.125 11.625 C-4.13337891 10.63177734 -4.14175781 9.63855469 -4.15039062 8.61523438 C-4.15361328 7.67099609 -4.15683594 6.72675781 -4.16015625 5.75390625 C-4.16539307 4.87935791 -4.17062988 4.00480957 -4.17602539 3.10375977 C-3.98994855 -0.24202186 -3.41933476 0.06978234 0 0 Z " fill="#FFFFFF" transform="translate(79.0625,106.9375)"/>
<path d="M0 0 C2.31 0 4.62 0 7 0 C8.36538938 2.73077876 8.13231826 4.95560367 8.125 8 C8.12757812 9.0725 8.13015625 10.145 8.1328125 11.25 C8 14 8 14 7 16 C4.69 16 2.38 16 0 16 C0 10.72 0 5.44 0 0 Z " fill="#FFFFFF" transform="translate(64,113)"/>
<path d="M0 0 C2.64 0 5.28 0 8 0 C8 3.3 8 6.6 8 10 C5.36 10 2.72 10 0 10 C0 6.7 0 3.4 0 0 Z " fill="#FFFFFF" transform="translate(52,119)"/>
</svg>
