<!--?xml version="1.0" encoding="UTF-8"?-->
<svg version="1.1" xmlns="http://www.w3.org/2000/svg" width="512" height="512">
<path d="M0 0 C4.97638966 2.31046663 7.31015577 5.28451412 10 10 C10.49879456 13.31843567 10.49879456 13.31843567 10.49829102 16.96411133 C10.50380981 17.63328079 10.50932861 18.30245026 10.51501465 18.99189758 C10.5242931 20.43557118 10.52447427 21.87932664 10.51642036 23.32300758 C10.50371969 25.61570799 10.51514466 27.90721668 10.53245544 30.19987488 C10.55910859 34.24556566 10.56475341 38.29096189 10.56335449 42.33673096 C10.56112363 48.80032177 10.57550705 55.26354622 10.61894035 61.72699547 C10.62869994 63.97207188 10.62010126 66.21656072 10.61024475 68.46162415 C10.48581507 80.86439222 10.48581507 80.86439222 16.25 91.4375 C23.19620459 95.38420716 29.91068986 95.28765489 37.71481323 95.26069641 C38.89050719 95.26452196 40.06620116 95.26834751 41.27752221 95.27228898 C44.5280315 95.2808039 47.7783959 95.2803923 51.02890897 95.27610838 C54.53956869 95.27363752 58.05020204 95.28265981 61.56085205 95.29014587 C68.43371099 95.30288497 75.30653084 95.30468754 82.17939959 95.30234561 C87.76697481 95.30056138 93.35453817 95.30231435 98.94211197 95.30657005 C99.73786907 95.30716524 100.53362617 95.30776043 101.35349713 95.30837366 C102.97017081 95.30958543 104.58684449 95.31079956 106.20351817 95.31201603 C121.35948847 95.32288857 136.51543652 95.32073046 151.67140807 95.31463119 C165.52914375 95.30946252 179.38680913 95.32071665 193.2445309 95.33972941 C207.48182886 95.35911283 221.71909357 95.3673629 235.95640481 95.36360615 C243.94628025 95.36169485 251.93609587 95.3641748 259.92596054 95.37832069 C266.72799875 95.39024191 273.5299403 95.39163111 280.33197986 95.37953053 C283.80046271 95.37364696 287.26876882 95.37252778 290.73723984 95.38453293 C294.50206349 95.3949804 298.26641289 95.38691496 302.03121948 95.3742218 C303.66562353 95.38528323 303.66562353 95.38528323 305.33304584 95.39656812 C312.64049368 95.34477782 319.85892444 94.89945436 325.4375 89.75 C328.51736566 84.32943644 329.24896048 79.03610076 329.25537109 72.87475586 C329.25899155 72.20062149 329.262612 71.52648712 329.26634216 70.83192444 C329.27318864 69.38115216 329.2757506 67.93035438 329.27439499 66.47956657 C329.27342253 64.17944543 329.28645436 61.87978241 329.30337524 59.57972717 C329.34944251 53.0449672 329.37425991 46.51025884 329.38085938 39.9753418 C329.38588215 35.96648933 329.41016194 31.95812217 329.44618607 27.94943428 C329.45595833 26.42769856 329.45833006 24.90589592 329.45301437 23.38413811 C329.44591917 21.25418218 329.46327059 19.12566924 329.48583984 16.99584961 C329.48868988 15.78674423 329.49153992 14.57763885 329.49447632 13.33189392 C330.27271835 8.20252017 332.80620744 5.13410294 336.5 1.625 C341.66500009 -0.77303575 346.4002288 -0.75381535 352 0 C356.97212633 2.30848722 359.34220559 5.26663053 362 10 C362.37984323 12.75039455 362.54893872 15.09369737 362.51757812 17.83447266 C362.52809204 18.97730209 362.52809204 18.97730209 362.53881836 20.14321899 C362.55635474 22.650543 362.54478475 25.15672786 362.53125 27.6640625 C362.53394785 29.42036148 362.53783271 31.17665899 362.54284668 32.93295288 C362.54873725 36.61316149 362.5401994 40.29298124 362.52148438 43.97314453 C362.49879588 48.66014237 362.51175603 53.34621876 362.53577423 58.03318214 C362.55033082 61.66237132 362.54557972 65.29134756 362.53526306 68.92054367 C362.53261763 70.64668261 362.53578753 72.37284166 362.54518127 74.09895706 C362.61628106 90.84748405 359.37691814 103.15079224 347.6875 115.75 C337.13687125 125.7354165 325.32452765 128.46086697 311.18533325 128.38768005 C309.92752167 128.39306559 308.66971008 128.39845113 307.37378299 128.40399987 C303.9077836 128.4183762 300.44202357 128.41423447 296.97601151 128.40683305 C293.22811581 128.40208417 289.48027063 128.41462639 285.73239136 128.42485046 C278.39971185 128.44201037 271.06711814 128.4428843 263.73442377 128.43763756 C257.77175093 128.43358929 251.80910337 128.4350472 245.84643173 128.44038582 C244.5714442 128.44150845 244.5714442 128.44150845 243.27069934 128.44265376 C241.54370745 128.44418531 239.81671557 128.44572366 238.08972369 128.44726873 C221.90927355 128.46098368 205.72887182 128.45556322 189.5484228 128.44408352 C174.76170464 128.43415275 159.97511165 128.44709089 145.1884128 128.47101771 C129.98709844 128.49542917 114.78584233 128.50501152 99.58450878 128.49836498 C91.05745292 128.49487724 82.53049329 128.49707538 74.0034523 128.51461601 C66.74444212 128.52936363 59.48559592 128.52994012 52.22658886 128.5125451 C48.52679321 128.5040536 44.82729018 128.50183978 41.12751007 128.51719666 C37.1076494 128.53367483 33.08848975 128.51884913 29.06863403 128.50120544 C27.91199725 128.51081045 26.75536047 128.52041546 25.56367409 128.53031152 C11.3489765 128.40239505 0.57556433 123.26745466 -9.75 113.6875 C-21.35307085 101.42765156 -22.47012644 87.80100109 -22.43359375 71.734375 C-22.4381621 69.96941936 -22.44346961 68.20446549 -22.44947815 66.43951416 C-22.4583705 62.7581047 -22.45602767 59.07691267 -22.44604492 55.39550781 C-22.43451516 50.68565111 -22.45484732 45.97653973 -22.48396206 41.26678085 C-22.50232387 37.62928538 -22.50203242 33.99196897 -22.49632454 30.35443878 C-22.49617156 28.61774901 -22.50219635 26.88104692 -22.51461601 25.14440155 C-22.52953767 22.71786247 -22.51884445 20.29270744 -22.50170898 17.86621094 C-22.51137695 17.15543396 -22.52104492 16.44465698 -22.53100586 15.71234131 C-22.4569539 10.69030624 -21.11012499 7.88865568 -18 4 C-12.72867143 -1.00776214 -6.89190982 -0.92775709 0 0 Z " fill="#ffffff" transform="translate(86,304)"></path>
<path d="M0 0 C4.96603018 2.30565687 7.40015521 5.23369374 10 10 C10.55643536 13.11992935 10.52357748 16.1768987 10.48101807 19.33932495 C10.48443577 20.27141789 10.48785347 21.20351082 10.49137473 22.163849 C10.49795567 25.28256129 10.47597358 28.40041016 10.45410156 31.51904297 C10.45297313 33.75635254 10.45360685 35.99366358 10.45587158 38.23097229 C10.45701982 44.3028671 10.43349225 50.3744462 10.40557575 56.4462676 C10.38058072 62.7923787 10.37822159 69.13849693 10.37347412 75.48464966 C10.36245189 86.13566192 10.33746244 96.78654941 10.30175781 107.4375 C10.26502508 118.40656964 10.23671952 129.37560781 10.21972656 140.34472656 C10.21815022 141.35943405 10.21815022 141.35943405 10.21654204 142.39464067 C10.21132177 145.78840084 10.20626697 149.18216123 10.20129442 152.57592177 C10.15984756 180.71736175 10.08911448 208.85867367 10 237 C10.93086426 236.2682959 11.86172852 235.5365918 12.82080078 234.78271484 C14.07063446 233.80045119 15.3204719 232.81819234 16.5703125 231.8359375 C17.18044189 231.35632568 17.79057129 230.87671387 18.41918945 230.38256836 C22.56615292 227.12365259 26.71890301 223.87226006 30.875 220.625 C35.9863559 216.62143577 41.03360477 212.54402049 46.0625 208.4375 C51.10719011 204.32484157 56.17228472 200.2429046 61.3125 196.25 C62.33988281 195.45078125 63.36726562 194.6515625 64.42578125 193.828125 C69.52391472 190.20759926 74.95610613 190.38521996 81 191 C85.88351295 193.30856976 88.51973231 196.22318815 91 201 C92.23566112 206.10739931 92.4329876 210.07955078 90.3125 214.9453125 C85.29166479 222.80531048 76.08858212 228.36972714 68.7734375 234.046875 C64.80072239 237.13930803 60.89842249 240.31473795 57 243.5 C51.47689686 248.00795334 45.908148 252.44843238 40.2890625 256.8359375 C35.81562547 260.3377683 31.4015967 263.90843218 27 267.5 C21.79635693 271.74084615 16.57792038 275.96099092 11.3125 280.125 C10.74853516 280.57423828 10.18457031 281.02347656 9.60351562 281.48632812 C0.78406087 288.42884934 0.78406087 288.42884934 -5.9375 288.4375 C-7.43603516 288.46650391 -7.43603516 288.46650391 -8.96484375 288.49609375 C-15.47835168 287.43146633 -20.52680496 282.04452212 -25.5 277.9375 C-30.62558554 273.7369741 -35.77423687 269.57528154 -41 265.5 C-46.74040225 261.01838595 -52.39694172 256.44042687 -58.0390625 251.8359375 C-62.32452561 248.34469149 -66.64360004 244.90221206 -71 241.5 C-76.22108273 237.41629475 -81.40637187 233.29047222 -86.5625 229.125 C-87.22958984 228.58939453 -87.89667969 228.05378906 -88.58398438 227.50195312 C-100.50118932 217.83968217 -100.50118932 217.83968217 -101.3359375 211.4140625 C-101.41974948 205.42988703 -101.25612393 201.59213371 -97 197 C-92.72236334 193.40289645 -88.60634071 191.7382953 -83 192 C-76.42996345 193.91711347 -72.17255222 196.9109905 -67.0625 201.375 C-65.56600758 202.64583087 -64.06724734 203.91399532 -62.56640625 205.1796875 C-61.80859863 205.8200293 -61.05079102 206.46037109 -60.27001953 207.12011719 C-56.76306944 210.02434559 -53.13842092 212.76357609 -49.5 215.5 C-42.62940784 220.68344441 -35.95746409 226.07456543 -29.35546875 231.59570312 C-28.68257813 232.15708984 -28.0096875 232.71847656 -27.31640625 233.296875 C-26.72287354 233.79541992 -26.12934082 234.29396484 -25.51782227 234.80761719 C-23.99467141 236.08635912 -23.99467141 236.08635912 -22 237 C-22.00368717 235.83563353 -22.00737434 234.67126705 -22.01117325 233.47161674 C-22.09780602 205.83144808 -22.16376272 178.19129301 -22.20426132 150.55101662 C-22.20926414 147.1489197 -22.21444143 143.74682306 -22.21972656 140.34472656 C-22.2207758 139.66743087 -22.22182505 138.99013518 -22.22290608 138.29231538 C-22.24031097 127.32586209 -22.27184908 116.35949269 -22.30861118 105.39308916 C-22.34601834 94.1404045 -22.36793596 82.88776174 -22.37635398 71.63501179 C-22.38157355 65.31454242 -22.3938608 58.99426329 -22.42292023 52.67385483 C-22.45004361 46.72642351 -22.4584511 40.77926105 -22.45243073 34.83177376 C-22.45353233 32.64765144 -22.4615043 30.46352025 -22.4768219 28.27945137 C-22.49670122 25.29907786 -22.49194627 22.31972163 -22.48101807 19.33932495 C-22.49266943 18.47355674 -22.5043208 17.60778852 -22.51632524 16.71578491 C-22.46279748 11.32095145 -21.55991387 8.2941752 -18 4 C-12.72867143 -1.00776214 -6.89190982 -0.92775709 0 0 Z " fill="#ffffff" transform="translate(262,80)"></path>
</svg>
