<?xml version="1.0" encoding="UTF-8"?>
<svg version="1.1" xmlns="http://www.w3.org/2000/svg" width="180" height="180">
<path d="M0 0 C2.26472505 1.17690399 2.26472505 1.17690399 4.5625 -0.0625 C8.2694455 -1.52803659 11.51194742 -1.31203445 15.25 -0.125 C16.88671875 1.09765625 16.88671875 1.09765625 18.375 2.5 C19.32375 3.28375 20.2725 4.0675 21.25 4.875 C24.22065509 4.53272428 24.22065509 4.53272428 27.25 3.875 C30.88655436 5.14779403 33.51735971 6.14235971 36.25 8.875 C36.806875 8.524375 37.36375 8.17375 37.9375 7.8125 C40.96248483 6.5861548 42.17674049 6.77740732 45.25 7.875 C48.06719411 9.82117757 50.69203718 11.75907436 52.25 14.875 C52.35132058 16.73045127 52.38839327 18.58955099 52.39526367 20.44775391 C52.40164352 21.61722565 52.40802338 22.78669739 52.41459656 23.99160767 C52.41570938 25.26539276 52.4168222 26.53917786 52.41796875 27.8515625 C52.42296135 29.8213356 52.42296135 29.8213356 52.42805481 31.8309021 C52.43405562 34.62360451 52.43589432 37.41627597 52.43530273 40.20898438 C52.43522216 43.04466222 52.44204808 45.88017618 52.45581055 48.71582031 C52.52540135 63.24121109 52.47762178 77.48690336 50.25 91.875 C49.95206042 95.20617311 49.76767642 98.53399384 49.625 101.875 C49.58632812 102.66132813 49.54765625 103.44765625 49.5078125 104.2578125 C49.41648856 106.12995335 49.33235782 108.0024433 49.25 109.875 C46.66988355 111.16505823 44.8030816 111.00907635 41.9140625 111.02026367 C40.79950684 111.02664352 39.68495117 111.03302338 38.53662109 111.03959656 C36.72411865 111.04126579 36.72411865 111.04126579 34.875 111.04296875 C33.63959473 111.04629715 32.40418945 111.04962555 31.13134766 111.05305481 C28.51530328 111.0581249 25.89925241 111.06046311 23.28320312 111.06030273 C20.59433299 111.06022122 17.90563228 111.06719846 15.21679688 111.08081055 C11.35281109 111.0990503 7.48902442 111.10403555 3.625 111.10546875 C1.81249756 111.11624702 1.81249756 111.11624702 -0.03662109 111.12724304 C-1.70845459 111.1226281 -1.70845459 111.1226281 -3.4140625 111.11791992 C-4.39842285 111.11934494 -5.3827832 111.12076996 -6.39697266 111.12223816 C-8.75 110.875 -8.75 110.875 -10.75 108.875 C-10.91015625 106.87890625 -10.91015625 106.87890625 -10.8125 104.4375 C-10.38676169 94.0548864 -10.38676169 94.0548864 -13.7890625 84.54296875 C-16.325104 82.11036097 -18.94915546 79.99332076 -21.75 77.875 C-23.01848332 76.53618494 -24.25176188 75.16262196 -25.4375 73.75 C-27.15246214 71.74312941 -28.86752251 69.74379504 -30.62890625 67.77734375 C-36.67591523 61.02337756 -40.57639965 55.34341111 -40.875 45.9375 C-39.62500434 37.00234582 -33.83609208 26.43297596 -27.75 19.875 C-25.955625 19.070625 -25.955625 19.070625 -24.125 18.25 C-22.22765926 17.37549064 -22.22765926 17.37549064 -20.75 15.875 C-19.91581085 13.0871658 -19.55759283 10.39754925 -19.203125 7.51171875 C-18.61001983 4.06046025 -17.3234289 2.21448082 -14.75 -0.125 C-9.90404794 -1.74031735 -4.76300541 -1.94850221 0 0 Z M-10.75 5.875 C-12.79673331 8.94509996 -13.4524372 12.1547072 -13.41796875 15.8359375 C-12.02845835 20.07760082 -7.50299292 21.90914657 -3.75 23.875 C-3.09 23.545 -2.43 23.215 -1.75 22.875 C-1.86369211 20.41566009 -1.99042651 17.9582091 -2.125 15.5 C-2.1559375 14.80132812 -2.186875 14.10265625 -2.21875 13.3828125 C-2.34499498 9.17314173 -2.34499498 9.17314173 -4.75 5.875 C-7.83347826 5.70818891 -7.83347826 5.70818891 -10.75 5.875 Z M6.59448242 7.09692383 C4.92606702 9.30340093 4.83043726 10.57796976 4.73828125 13.32421875 C4.70283203 14.17177734 4.66738281 15.01933594 4.63085938 15.89257812 C4.60830078 16.77365234 4.58574219 17.65472656 4.5625 18.5625 C4.52833984 19.45517578 4.49417969 20.34785156 4.45898438 21.26757812 C4.37654352 23.46992671 4.30738449 25.67187938 4.25 27.875 C6.0078125 28.81901042 7.765625 29.76302083 9.5234375 30.70703125 C11.25 31.875 11.25 31.875 13.25 34.875 C15.37094354 30.63311293 14.47940069 25.03559282 14.5 20.375 C14.520625 19.20839844 14.54125 18.04179688 14.5625 16.83984375 C14.56765625 15.72738281 14.5728125 14.61492187 14.578125 13.46875 C14.5874707 12.44458984 14.59681641 11.42042969 14.60644531 10.36523438 C14.48881836 9.54345703 14.37119141 8.72167969 14.25 7.875 C10.45861426 5.32379088 10.45861426 5.32379088 6.59448242 7.09692383 Z M23.1484375 13.37109375 C20.56753163 16.77512804 20.66085047 19.77412183 20.75 23.875 C20.73453125 24.5865625 20.7190625 25.298125 20.703125 26.03125 C20.73020207 29.65957785 20.96423455 31.52328867 23.28125 34.375 C23.9309375 34.87 24.580625 35.365 25.25 35.875 C28.97614153 34.75645414 28.97614153 34.75645414 31.25 31.875 C31.37438451 29.21664263 31.43516188 26.59594771 31.4375 23.9375 C31.44974609 23.20853516 31.46199219 22.47957031 31.47460938 21.72851562 C31.48512685 17.9036609 31.42095624 16.13143436 29.25 12.875 C26.46387685 11.48193842 25.71387324 11.54477054 23.1484375 13.37109375 Z M40.25 14.875 C37.81164332 16.86603192 37.81164332 16.86603192 38.0546875 20.7890625 C38.06799624 22.35949351 38.09186398 23.92986221 38.125 25.5 C38.13402344 26.30179688 38.14304687 27.10359375 38.15234375 27.9296875 C38.17593777 29.91158523 38.21180935 31.89332981 38.25 33.875 C40.23 34.865 40.23 34.865 42.25 35.875 C43.24 35.215 44.23 34.555 45.25 33.875 C45.52570606 30.95785199 45.6222561 28.2863174 45.5625 25.375 C45.56572266 24.58996094 45.56894531 23.80492187 45.57226562 22.99609375 C45.70407925 18.45906708 45.70407925 18.45906708 43.25 14.875 C42.26 14.875 41.27 14.875 40.25 14.875 Z M-24.75 26.875 C-26.35196871 29.18186269 -27.45730046 31.61210431 -28.5625 34.1875 C-29.01012695 35.1455957 -29.01012695 35.1455957 -29.46679688 36.12304688 C-32.48299062 42.8430993 -33.50772841 48.63314194 -30.8828125 55.62109375 C-27.50185327 62.34803678 -21.25154752 67.40936844 -15.96484375 72.6328125 C-5.12432753 83.60716225 -4.74838192 85.90412543 -3.75 103.875 C11.43 103.875 26.61 103.875 42.25 103.875 C44.88618068 83.00523625 45.6234171 62.87061587 45.25 41.875 C44.47527344 42.07222656 43.70054687 42.26945312 42.90234375 42.47265625 C40.25 42.875 40.25 42.875 37.8125 41.3125 C35.26732749 39.50141573 35.26732749 39.50141573 32.1875 40.625 C31.218125 41.0375 30.24875 41.45 29.25 41.875 C27.25 42.6875 27.25 42.6875 25.25 42.875 C22.125 41.5 22.125 41.5 19.25 39.875 C18.59 39.545 17.93 39.215 17.25 38.875 C17.25 39.535 17.25 40.195 17.25 40.875 C15.6 41.205 13.95 41.535 12.25 41.875 C12.65992188 42.40609375 13.06984375 42.9371875 13.4921875 43.484375 C14.03101563 44.19078125 14.56984375 44.8971875 15.125 45.625 C15.65867188 46.32109375 16.19234375 47.0171875 16.7421875 47.734375 C19.54209841 51.70937805 20.49983812 54.38956944 20.4453125 59.296875 C20.43886719 60.32167969 20.43242188 61.34648438 20.42578125 62.40234375 C20.40902344 63.46582031 20.39226562 64.52929688 20.375 65.625 C20.36597656 66.70394531 20.35695312 67.78289062 20.34765625 68.89453125 C20.32411305 71.55491278 20.29122799 74.21484336 20.25 76.875 C18.27 77.37 18.27 77.37 16.25 77.875 C15.05393208 75.48286415 15.124895 73.96528067 15.109375 71.296875 C15.09003906 70.38292969 15.07070312 69.46898437 15.05078125 68.52734375 C15.01720409 66.60828007 14.99871941 64.68888686 14.99609375 62.76953125 C14.87705665 58.30250762 14.77059296 54.87652116 11.9609375 51.26171875 C8.08562572 47.84988086 6.31049189 47.95662084 1.25 47.875 C0.26 48.205 -0.73 48.535 -1.75 48.875 C-8.5652348 49.60179952 -13.26382981 49.10392285 -18.75 44.875 C-20.25 42.3125 -20.25 42.3125 -20.75 39.875 C-20.42 38.885 -20.09 37.895 -19.75 36.875 C-16.07264776 37.19020162 -14.91827983 37.69809044 -12.3125 40.4375 C-9.96774465 43.10770103 -9.96774465 43.10770103 -6.8125 43.4375 C-2.95200575 42.72842963 -0.77664929 41.35134942 2.25 38.875 C3.41929824 36.80835446 3.41929824 36.80835446 4.25 34.875 C0.79565686 32.86804709 -2.6641063 30.87063221 -6.125 28.875 C-7.10984375 28.30265625 -8.0946875 27.7303125 -9.109375 27.140625 C-10.05039063 26.59921875 -10.99140625 26.0578125 -11.9609375 25.5 C-13.26490479 24.74589844 -13.26490479 24.74589844 -14.59521484 23.9765625 C-18.97376258 21.73817508 -21.1310407 24.01888281 -24.75 26.875 Z " fill="#FFFFFF" transform="translate(88.75,65.125)"/>
<path d="M0 0 C1.65 0.33 3.3 0.66 5 1 C5.30758139 12.34633554 4.76263494 23.61713223 4.0625 34.9375 C4.01893372 35.66420898 3.97536743 36.39091797 3.93048096 37.13964844 C3.80398733 39.22758798 3.67086922 41.31498523 3.53515625 43.40234375 C3.41732788 45.23526978 3.41732788 45.23526978 3.29711914 47.10522461 C3 50 3 50 2 52 C-0.375 52.125 -0.375 52.125 -3 52 C-5 50 -5 50 -5.265625 47.69921875 C-5.21923252 38.75706871 -4.42277394 29.95995439 -3.50390625 21.0703125 C-2.96727748 15.8520603 -2.6187517 10.63721991 -2.34375 5.3984375 C-2 3 -2 3 0 0 Z " fill="#FFFFFF" transform="translate(94,5)"/>
<path d="M0 0 C2.51062699 0.9456855 3.2169208 1.88670494 4.73046875 4.08203125 C5.24222656 4.80261719 5.75398438 5.52320313 6.28125 6.265625 C6.86261719 7.09191406 7.44398437 7.91820312 8.04296875 8.76953125 C9.49458492 10.73284886 10.95336358 12.69088408 12.41796875 14.64453125 C13.55685547 16.16820312 13.55685547 16.16820312 14.71875 17.72265625 C17.5941516 21.49209027 20.58148599 25.16096137 23.609375 28.80859375 C25.04296875 30.76953125 25.04296875 30.76953125 25.04296875 32.76953125 C26.52796875 33.26453125 26.52796875 33.26453125 28.04296875 33.76953125 C29.79296875 35.51953125 29.79296875 35.51953125 31.04296875 37.76953125 C30.98046875 40.39453125 30.98046875 40.39453125 30.04296875 42.76953125 C27.984375 43.91796875 27.984375 43.91796875 26.04296875 44.76953125 C25.11677734 43.55330078 25.11677734 43.55330078 24.171875 42.3125 C20.06356158 36.93562315 15.93599202 31.59586626 11.60546875 26.39453125 C7.9696579 21.96379402 4.43418138 17.46799142 0.98046875 12.89453125 C0.24582397 11.94827881 0.24582397 11.94827881 -0.50366211 10.98291016 C-2.55926621 8.22321104 -3.90255254 6.28949258 -4.265625 2.82421875 C-4.16378906 2.14617188 -4.06195312 1.468125 -3.95703125 0.76953125 C-1.95703125 -0.23046875 -1.95703125 -0.23046875 0 0 Z " fill="#FFFFFF" transform="translate(31.95703125,30.23046875)"/>
<path d="M0 0 C1.98632812 0.84790039 1.98632812 0.84790039 3.01953125 2.81884766 C3.38981445 4.10359985 3.38981445 4.10359985 3.76757812 5.41430664 C4.05028564 6.36732666 4.33299316 7.32034668 4.62426758 8.30224609 C4.90874756 9.32793701 5.19322754 10.35362793 5.48632812 11.41040039 C5.78821045 12.45220459 6.09009277 13.49400879 6.40112305 14.56738281 C8.80356049 22.94463381 11.03093743 31.35508408 12.98632812 39.84790039 C13.23511719 40.88043945 13.48390625 41.91297852 13.74023438 42.97680664 C13.94519531 43.88301758 14.15015625 44.78922852 14.36132812 45.72290039 C14.5340625 46.48344727 14.70679687 47.24399414 14.88476562 48.02758789 C14.93503906 48.92864258 14.93503906 48.92864258 14.98632812 49.84790039 C14.32632813 50.50790039 13.66632813 51.16790039 12.98632812 51.84790039 C10.36132813 51.47290039 10.36132813 51.47290039 7.98632812 50.84790039 C7.70660156 49.83856445 7.426875 48.82922852 7.13867188 47.78930664 C6.94877686 47.10521729 6.75888184 46.42112793 6.56323242 45.71630859 C6.13000656 44.15394959 5.69791213 42.5912765 5.2668457 41.02832031 C3.9093389 36.11968517 2.51873887 31.22234366 1.09570312 26.33227539 C0.77738525 25.22682373 0.45906738 24.12137207 0.13110352 22.98242188 C-0.49775322 20.80010777 -1.13376936 18.61984158 -1.77758789 16.44189453 C-3.31581867 11.07152019 -4.41700294 6.43917615 -4.01367188 0.84790039 C-2.01367188 -0.15209961 -2.01367188 -0.15209961 0 0 Z " fill="#FFFFFF" transform="translate(62.013671875,8.152099609375)"/>
<path d="M0 0 C1.65 0.66 3.3 1.32 5 2 C4.4574852 6.55712436 3.3106498 10.02568234 1 14 C0.01 14.495 0.01 14.495 -1 15 C-1.74972762 16.76175345 -1.74972762 16.76175345 -2.33984375 18.91015625 C-4.03004332 24.27396369 -6.23807395 29.32224593 -8.5625 34.4375 C-8.96146484 35.33404297 -9.36042969 36.23058594 -9.77148438 37.15429688 C-10.15755859 38.00958984 -10.54363281 38.86488281 -10.94140625 39.74609375 C-11.28888916 40.51622803 -11.63637207 41.2863623 -11.99438477 42.07983398 C-13 44 -13 44 -15 46 C-17.625 45.625 -17.625 45.625 -20 45 C-19.45278177 39.48158021 -18.01530115 35.06567963 -15.76171875 30.01953125 C-15.43967972 29.28425705 -15.11764069 28.54898285 -14.7858429 27.79142761 C-14.1067415 26.24747463 -13.42325162 24.70544516 -12.7355957 23.1652832 C-11.68838828 20.81449403 -10.66081602 18.45579081 -9.63476562 16.09570312 C-8.96991243 14.5906318 -8.30393476 13.0860566 -7.63671875 11.58203125 C-7.33239426 10.88092728 -7.02806976 10.1798233 -6.71452332 9.45747375 C-4.97588268 5.60381494 -3.21423707 2.76713895 0 0 Z " fill="#FFFFFF" transform="translate(129,14)"/>
<path d="M0 0 C3.88081458 -0.27386127 5.69691304 0.07791257 8.6875 2.5625 C12.67822433 5.77491862 16.83603349 8.63734769 21.09375 11.484375 C21.7228125 11.98453125 22.351875 12.4846875 23 13 C23 13.66 23 14.32 23 15 C23.84304687 15.40798828 23.84304687 15.40798828 24.703125 15.82421875 C27.12210608 17.06250668 29.4394319 18.38160897 31.75 19.8125 C32.54921875 20.29332031 33.3484375 20.77414063 34.171875 21.26953125 C36 23 36 23 36.265625 25.69921875 C36.17796875 26.45847656 36.0903125 27.21773437 36 28 C32.94583669 28.95307224 31.55267234 29.27816621 28.640625 27.8125 C27.85171875 27.214375 27.0628125 26.61625 26.25 26 C25.37472656 25.34644531 24.49945313 24.69289063 23.59765625 24.01953125 C22.74042969 23.35308594 21.88320313 22.68664062 21 22 C20.27683594 21.44699219 19.55367187 20.89398438 18.80859375 20.32421875 C17.37193738 19.21563861 15.94108798 18.09949916 14.515625 16.9765625 C11.3406546 14.4819429 8.1397236 12.0219778 4.9375 9.5625 C4.35250732 9.11285889 3.76751465 8.66321777 3.16479492 8.19995117 C1.77670871 7.13306815 0.3883808 6.06649962 -1 5 C-0.67 3.35 -0.34 1.7 0 0 Z " fill="#FFFFFF" transform="translate(15,59)"/>
<path d="M0 0 C0.7425 0.2475 1.485 0.495 2.25 0.75 C2.33826839 4.8986144 1.98405219 6.86709428 -0.71484375 10.11328125 C-3.01061814 12.38673044 -5.3549374 14.58183806 -7.75 16.75 C-8.57371094 17.62398437 -8.57371094 17.62398437 -9.4140625 18.515625 C-10.75 19.75 -10.75 19.75 -12.75 19.75 C-12.75 20.41 -12.75 21.07 -12.75 21.75 C-14.359375 23.3359375 -14.359375 23.3359375 -16.5 25.125 C-19.3743732 27.56617866 -22.13543992 30.02649992 -24.75 32.75 C-26.6875 31.9375 -26.6875 31.9375 -28.75 30.75 C-29.08 29.76 -29.41 28.77 -29.75 27.75 C-29.110625 27.110625 -28.47125 26.47125 -27.8125 25.8125 C-27.36132812 25.36003906 -26.91015625 24.90757813 -26.4453125 24.44140625 C-25.15344402 23.15251443 -23.85544177 21.86976743 -22.5546875 20.58984375 C-18.70744387 16.78704022 -15.07485023 13.02480744 -11.75 8.75 C-10.1040349 7.06288577 -8.43762851 5.3954378 -6.75 3.75 C-6.09 2.96625 -5.43 2.1825 -4.75 1.375 C-2.75 -0.25 -2.75 -0.25 0 0 Z " fill="#FFFFFF" transform="translate(157.75,33.25)"/>
<path d="M0 0 C3.24811347 2.40077952 4.68969068 4.14208601 6.0625 7.9375 C5.97939888 12.00945507 4.53529331 13.88521107 2 17 C-1.10048928 18.55024464 -3.57894218 18.28992015 -7 18 C-9.75329021 16.20437595 -11.52627461 14.94745078 -13 12 C-13.43023798 8.12785818 -13.31669086 6.47503629 -11.125 3.1875 C-7.5841408 -0.45750212 -5.02152545 -0.5106636 0 0 Z M-5 7 C-5 8.32 -5 9.64 -5 11 C-4.01 11 -3.02 11 -2 11 C-2 9.68 -2 8.36 -2 7 C-2.99 7 -3.98 7 -5 7 Z " fill="#FFFFFF" transform="translate(161,7)"/>
<path d="M0 0 C0.969375 0.33 1.93875 0.66 2.9375 1 C5.89717357 2.31656329 5.89717357 2.31656329 8.375 1.125 C8.91125 0.75375 9.4475 0.3825 10 0 C10.66 0.66 11.32 1.32 12 2 C11.71269945 4.33944736 11.38063221 6.6739143 11 9 C11.33 9.33 11.66 9.66 12 10 C12.04063832 11.66617115 12.042721 13.33388095 12 15 C10.25 16.125 10.25 16.125 8 17 C6 16 6 16 4 15 C1.76529595 15.78309467 1.76529595 15.78309467 0 17 C-0.99 16.34 -1.98 15.68 -3 15 C-2.814375 13.783125 -2.62875 12.56625 -2.4375 11.3125 C-2.01006818 7.97022061 -2.07741117 5.28031583 -3 2 C-2.01 1.34 -1.02 0.68 0 0 Z " fill="#FFFFFF" transform="translate(155,97)"/>
<path d="M0 0 C4.27094838 1.61346939 6.80860126 5.00196835 8.8125 9.0625 C8.4765625 11.32421875 8.4765625 11.32421875 7.8125 13.0625 C6.125 13.8125 6.125 13.8125 3.8125 14.0625 C0.53572556 11.90462415 -2.29630396 9.52969274 -4.1875 6.0625 C-3.63320286 0.1038058 -3.63320286 0.1038058 0 0 Z " fill="#FFFFFF" transform="translate(31.1875,135.9375)"/>
<path d="M0 0 C1.98 0 3.96 0 6 0 C6.55211618 3.23382335 6.51567545 5.25707774 4.6171875 7.9921875 C2.83716846 9.91090932 1.16760261 11.53104617 -1 13 C-3.9375 12.9375 -3.9375 12.9375 -6 12 C-6.20086443 8.28400809 -6.1519437 7.22791555 -4 4 C-3.34 4 -2.68 4 -2 4 C-1.34 2.68 -0.68 1.36 0 0 Z " fill="#FFFFFF" transform="translate(19,136)"/>
<path d="M0 0 C4.53287716 0.12951078 6.86495743 2.21730786 9.83984375 5.3671875 C11 7 11 7 11.375 9.875 C11.25125 10.57625 11.1275 11.2775 11 12 C9.375 12.8125 9.375 12.8125 7 13 C3.75 10.6875 3.75 10.6875 1 8 C1 7.34 1 6.68 1 6 C0.34 6 -0.32 6 -1 6 C-1.042721 4.33388095 -1.04063832 2.66617115 -1 1 C-0.67 0.67 -0.34 0.34 0 0 Z " fill="#FFFFFF" transform="translate(14,122)"/>
<path d="M0 0 C0.70125 0.268125 1.4025 0.53625 2.125 0.8125 C1.97492569 5.76495213 -0.73569058 8.18215314 -3.98828125 11.5546875 C-5.875 12.8125 -5.875 12.8125 -8.10546875 12.5078125 C-8.68941406 12.27835938 -9.27335937 12.04890625 -9.875 11.8125 C-9.63994601 5.81862326 -9.63994601 5.81862326 -7.6484375 3.19921875 C-5.06305168 0.84585474 -3.53434435 -0.23050072 0 0 Z " fill="#FFFFFF" transform="translate(36.875,122.1875)"/>
</svg>
