<?xml version="1.0" encoding="UTF-8"?>
<svg version="1.1" xmlns="http://www.w3.org/2000/svg" width="180" height="180">
<path d="M0 0 C0.99 0.99 0.99 0.99 2 2 C1.63318342 4.93453261 1.13562754 5.86437246 -1 8 C-5.79127301 7.56442973 -9.85411505 4.15637632 -13.83203125 1.69140625 C-20.16741617 -1.69111122 -26.08662232 -2.38639934 -33.125 -2.375 C-33.95378662 -2.37628906 -34.78257324 -2.37757812 -35.63647461 -2.37890625 C-43.02989179 -2.25302433 -49.06546067 -0.55903923 -56 2 C-56.66 2 -57.32 2 -58 2 C-58 2.66 -58 3.32 -58 4 C-59.64753422 5.24235401 -61.34525303 6.4184391 -63.0625 7.5625 C-73.32788526 14.90244813 -77.43765094 23.40060371 -81.74365234 35.00390625 C-85.05352872 43.62090377 -89.19412787 51.84233224 -93.25 60.125 C-94.00292583 61.66911403 -94.75553254 63.21338371 -95.5078125 64.7578125 C-97.33486869 68.50701236 -99.16622658 72.25408133 -101 76 C-99.865625 75.979375 -98.73125 75.95875 -97.5625 75.9375 C-94 76 -94 76 -93 77 C-92.91224395 79.14558827 -92.89304781 81.29404421 -92.90234375 83.44140625 C-92.90556641 84.74658203 -92.90878906 86.05175781 -92.91210938 87.39648438 C-92.92046599 88.7851569 -92.92893095 90.17382877 -92.9375 91.5625 C-92.94251334 92.95507656 -92.94707653 94.34765481 -92.95117188 95.74023438 C-92.96300558 99.16017451 -92.98094169 102.5800925 -93 106 C-85.41 106 -77.82 106 -70 106 C-67.76983385 112.69049845 -67.095743 119.0541679 -66.45751953 126.01464844 C-66.24919689 128.25865088 -66.0216749 130.50018157 -65.79296875 132.7421875 C-65.6576899 134.16655657 -65.52353505 135.59103294 -65.390625 137.015625 C-65.2054834 138.95356934 -65.2054834 138.95356934 -65.01660156 140.93066406 C-65.01112305 141.94354492 -65.00564453 142.95642578 -65 144 C-65.66 144.66 -66.32 145.32 -67 146 C-68.32 146 -69.64 146 -71 146 C-72.3609481 139.97708076 -73.3421118 133.93352063 -74.125 127.8125 C-74.21249512 127.14798828 -74.29999023 126.48347656 -74.39013672 125.79882812 C-74.9275496 121.44329675 -75 117.44111829 -75 113 C-82.92 113 -90.84 113 -99 113 C-100.43509221 110.12981559 -100.11158506 107.66456277 -100.09765625 104.4609375 C-100.09443359 103.15898437 -100.09121094 101.85703125 -100.08789062 100.515625 C-100.07953466 99.13541601 -100.07106971 97.75520768 -100.0625 96.375 C-100.05748501 94.98698074 -100.0529221 93.59895978 -100.04882812 92.2109375 C-100.03700976 88.80724868 -100.02053434 85.40364561 -100 82 C-102.97 82 -105.94 82 -109 82 C-111 78 -111 78 -110.55284119 76.14605713 C-110.22594803 75.51036804 -109.89905487 74.87467896 -109.56225586 74.21972656 C-109.01564552 73.12643036 -109.01564552 73.12643036 -108.45799255 72.01104736 C-107.8426339 70.83768829 -107.8426339 70.83768829 -107.21484375 69.640625 C-106.80214737 68.81858582 -106.38945099 67.99654663 -105.96424866 67.14959717 C-104.6369267 64.50852586 -103.28936385 61.87858401 -101.9375 59.25 C-96.71809235 49.06742234 -91.75651635 39.23092899 -88.60514832 28.20219421 C-86.38306007 20.54178345 -82.05187368 15.03418245 -77 9 C-76.2884375 8.13375 -75.576875 7.2675 -74.84375 6.375 C-55.58291815 -14.89815757 -22.88043938 -14.36517753 0 0 Z " fill="#FFFFFF" transform="translate(132,30)"/>
<path d="M0 0 C-0.33 1.32 -0.66 2.64 -1 4 C-3 4.75 -3 4.75 -6 5 C-7.86348056 4.03498328 -9.72497275 3.06567513 -11.5703125 2.06640625 C-19.67157378 -1.48929203 -28.66954772 -1.79583673 -37 1 C-39.81426207 2.12966858 -42.40119878 3.44071927 -45 5 C-46.299375 5.7734375 -46.299375 5.7734375 -47.625 6.5625 C-55.21031052 14.34742396 -57.38445423 23.41066804 -57.28125 33.9375 C-56.8562461 38.56532029 -55.26617215 41.99867294 -53 46 C-52.66097656 46.69996094 -52.32195312 47.39992187 -51.97265625 48.12109375 C-48.33967523 54.96040677 -42.5969225 58.56055962 -35.29296875 60.84765625 C-25.70718189 62.91840563 -16.85303489 62.31872439 -8.21875 57.49609375 C-0.9922413 52.62328947 2.70070258 45.28539934 5 37 C5.5494137 31.48088966 5.44008762 26.20843967 4.35546875 20.765625 C4.23816406 19.85296875 4.12085938 18.9403125 4 18 C5.9375 15.625 5.9375 15.625 8 14 C9.875 14.5 9.875 14.5 12 16 C15.33773178 24.84498922 15.28105753 35.61976185 12.15625 44.53125 C7.17865237 55.1590936 -1.24893501 63.45603474 -12.125 68 C-22.69429371 70.90845672 -35.32873251 70.18789845 -45 65 C-47.88207684 63.20625987 -50.44416346 61.22931998 -53 59 C-53.54398438 58.57203125 -54.08796875 58.1440625 -54.6484375 57.703125 C-60.78016929 52.41178285 -63.8007657 43.85748307 -65 36 C-65.76802802 24.21166298 -63.93172737 14.04948328 -56.17578125 4.83203125 C-39.32922461 -12.80886205 -19.71736924 -13.14491282 0 0 Z " fill="#FFFFFF" transform="translate(125,40)"/>
<path d="M0 0 C3 1 3 1 4.28125 3.1171875 C10.1585792 16.41652858 14.62194175 30.63816097 9.37109375 44.8828125 C7.53764328 49.35165959 5.47929167 53.70720273 3.38671875 58.05957031 C0.85061131 63.43718969 -1.45545162 68.91716082 -3.8125 74.375 C-8.67625035 85.60817257 -8.67625035 85.60817257 -11.33203125 89.72265625 C-13.355449 93.69841149 -13.32833084 96.75610585 -12.875 101.0625 C-12.81513916 101.79839355 -12.75527832 102.53428711 -12.69360352 103.29248047 C-12.18042116 109.1804392 -11.36931304 115.02151405 -10.40234375 120.8515625 C-9.96623111 124.26424975 -9.93507372 127.56323531 -10 131 C-12.31 131.33 -14.62 131.66 -17 132 C-19.26062618 125.4555822 -19.65289211 118.93902235 -20.125 112.0625 C-20.21136719 110.92103516 -20.29773438 109.77957031 -20.38671875 108.60351562 C-20.61977823 105.40172234 -20.84705529 102.20667519 -21 99 C-21.08443359 97.72833984 -21.16886719 96.45667969 -21.25585938 95.14648438 C-21.2215281 90.32207958 -19.41548493 86.67795713 -17.2734375 82.43359375 C-16.88813873 81.63703873 -16.50283997 80.8404837 -16.10586548 80.01979065 C-14.87681266 77.48494081 -13.6271917 74.96098791 -12.375 72.4375 C1.88930955 45.39194805 1.88930955 45.39194805 0.9375 15.6640625 C0.07784501 13.22120958 -0.9014627 11.20073795 -2.25 9 C-4 6 -4 6 -3.9375 3.6875 C-3 2 -3 2 0 0 Z " fill="#FFFFFF" transform="translate(144,45)"/>
<path d="M0 0 C4.95 0 9.9 0 15 0 C15 5.28 15 10.56 15 16 C13.02 16 11.04 16 9 16 C8.01 15.01 8.01 15.01 7 14 C6.11699219 14.76183594 5.23398438 15.52367187 4.32421875 16.30859375 C-2.25049927 21.96931275 -8.86743593 27.55909486 -15.59375 33.0390625 C-18.77589177 35.63208606 -18.77589177 35.63208606 -21.9375 38.25 C-22.44152344 38.66765625 -22.94554687 39.0853125 -23.46484375 39.515625 C-25.14792832 41.07354185 -25.14792832 41.07354185 -26.87890625 43.4140625 C-29.05801247 46.07072607 -31.29207 48.01974955 -34 50.125 C-34.845625 50.78757813 -35.69125 51.45015625 -36.5625 52.1328125 C-38.69841581 53.76897878 -40.84277516 55.39206852 -43 57 C-45.99220268 55.63629701 -48.29026529 54.05091917 -50.75 51.875 C-51.36359375 51.33617187 -51.9771875 50.79734375 -52.609375 50.2421875 C-53.06828125 49.83226562 -53.5271875 49.42234375 -54 49 C-59.06976938 51.06856156 -62.50217098 55.20748936 -66.34375 58.98046875 C-69 61 -69 61 -71.34375 60.80078125 C-71.8903125 60.53652344 -72.436875 60.27226563 -73 60 C-73.33 58.35 -73.66 56.7 -74 55 C-73.53851563 54.62230469 -73.07703125 54.24460938 -72.6015625 53.85546875 C-66.49733764 48.70427504 -61.27578123 42.97849799 -56 37 C-52.55571735 38.44781793 -50.63869038 40.27694609 -48.25 43.125 C-47.63640625 43.84945312 -47.0228125 44.57390625 -46.390625 45.3203125 C-45.93171875 45.87460938 -45.4728125 46.42890625 -45 47 C-40.70563292 46.52174102 -38.81061641 44.04660355 -35.9375 41 C-31.55166642 36.45700493 -26.97996019 32.40511232 -22.0390625 28.4609375 C-18.33658065 25.46278382 -14.72649188 22.36819378 -11.125 19.25 C-10.49432617 18.70682129 -9.86365234 18.16364258 -9.21386719 17.60400391 C-5.66530517 14.52574464 -2.2792169 11.36391992 1 8 C1.33 7.67 1.66 7.34 2 7 C1.01 6.505 1.01 6.505 0 6 C0 4.02 0 2.04 0 0 Z " fill="#FFFFFF" transform="translate(145,20)"/>
<path d="M0 0 C2.65714564 1.06594796 3.09430207 2.17569066 4.265625 4.74609375 C4.60078125 5.45636719 4.9359375 6.16664062 5.28125 6.8984375 C6.015625 8.80859375 6.015625 8.80859375 6.015625 10.80859375 C4.035625 11.46859375 2.055625 12.12859375 0.015625 12.80859375 C-2.71085185 10.4539092 -3.97193842 8.26775205 -4.984375 4.80859375 C-4.734375 2.55859375 -4.734375 2.55859375 -3.984375 0.80859375 C-1.984375 -0.19140625 -1.984375 -0.19140625 0 0 Z " fill="#FFFFFF" transform="translate(75.984375,8.19140625)"/>
<path d="M0 0 C2.97 0.495 2.97 0.495 6 1 C5.5317879 5.77576339 4.75668002 9.04476345 2 13 C0.02 12.34 -1.96 11.68 -4 11 C-3.39301257 6.87248551 -1.96189209 3.6678852 0 0 Z " fill="#FFFFFF" transform="translate(121,8)"/>
<path d="M0 0 C2.31 0 4.62 0 7 0 C7.02687279 1.81242052 7.04633715 3.62495233 7.0625 5.4375 C7.07410156 6.44683594 7.08570312 7.45617187 7.09765625 8.49609375 C7 11 7 11 6 12 C4.02 12 2.04 12 0 12 C0 8.04 0 4.08 0 0 Z " fill="#FFFFFF" transform="translate(96,4)"/>
<path d="M0 0 C1.34444159 0.90029571 2.67531438 1.82088022 4 2.75 C5.11375 3.51570313 5.11375 3.51570313 6.25 4.296875 C6.8275 4.85890625 7.405 5.4209375 8 6 C8 10 8 10 7 12 C3.43056285 11.69404824 1.96985581 10.97575359 -0.875 8.6875 C-3 6 -3 6 -2.9375 3.8125 C-2 2 -2 2 0 0 Z " fill="#FFFFFF" transform="translate(53,20)"/>
</svg>
