<?xml version="1.0" standalone="no"?>
<!DOCTYPE svg PUBLIC "-//W3C//DTD SVG 20010904//EN"
 "http://www.w3.org/TR/2001/REC-SVG-20010904/DTD/svg10.dtd">
<svg version="1.0" xmlns="http://www.w3.org/2000/svg"
 width="512.000000pt" height="512.000000pt" viewBox="0 0 512.000000 512.000000"
 preserveAspectRatio="xMidYMid meet">

<g transform="translate(0.000000,512.000000) scale(0.100000,-0.100000)"
fill="#000000" stroke="none">
<path d="M2300 4469 c-279 -32 -555 -134 -795 -293 -429 -286 -705 -725 -781
-1246 -22 -156 -15 -429 16 -584 43 -218 138 -452 256 -634 228 -350 593 -625
982 -742 259 -77 587 -96 833 -50 l51 10 57 -52 c110 -101 238 -171 386 -211
66 -18 106 -22 225 -21 128 1 156 4 235 28 305 92 529 319 617 621 20 68 23
103 23 235 0 131 -4 167 -23 233 -29 102 -81 210 -137 286 l-45 61 24 88 c52
181 61 253 61 487 0 169 -4 242 -18 312 -109 571 -457 1038 -965 1292 -308
154 -664 218 -1002 180z m332 -145 c142 -72 283 -277 379 -552 25 -74 29 -96
19 -102 -20 -12 -199 -38 -355 -51 -161 -13 -383 -7 -560 16 -66 9 -130 18
-142 21 l-22 6 36 101 c113 327 277 543 448 588 51 14 141 1 197 -27z m-514
-58 c-100 -121 -192 -297 -254 -489 l-29 -88 -32 6 c-100 19 -464 152 -478
175 -7 11 149 142 248 208 148 101 336 184 520 232 39 10 73 19 75 19 1 1 -21
-28 -50 -63z m927 3 c119 -41 287 -126 394 -199 92 -63 221 -168 221 -180 0
-13 -185 -92 -332 -141 -81 -27 -151 -49 -156 -49 -5 0 -26 48 -47 108 -65
188 -153 353 -251 469 l-44 51 62 -14 c35 -8 104 -29 153 -45z m753 -526 c66
-80 151 -213 203 -318 44 -90 129 -326 129 -358 0 -27 -303 -189 -495 -265
-104 -41 -326 -115 -330 -110 -1 2 -7 92 -14 201 -13 222 -30 361 -68 555 -14
73 -24 134 -22 135 2 2 47 16 99 31 108 31 298 105 380 147 30 15 60 28 67 29
6 0 29 -21 51 -47z m-2213 -108 c72 -24 147 -46 168 -50 20 -4 39 -11 42 -15
2 -4 -7 -62 -20 -128 -36 -175 -53 -320 -67 -554 -8 -146 -16 -208 -24 -208
-21 0 -266 81 -369 122 -110 44 -309 141 -397 194 l-56 34 13 58 c50 211 182
478 321 647 l34 43 113 -51 c61 -27 171 -69 242 -92z m1510 -156 c44 -195 70
-404 81 -666 l7 -151 -39 -11 c-75 -20 -283 -50 -430 -62 -247 -20 -566 -3
-819 44 l-70 13 -3 45 c-4 54 15 375 29 479 14 109 59 344 69 360 6 10 27 10
116 -4 315 -47 599 -46 893 4 161 27 147 31 166 -51z m1074 -786 c1 -78 -4
-177 -10 -220 -10 -73 -48 -254 -55 -262 -2 -2 -21 11 -43 28 -118 94 -318
168 -482 178 -85 5 -233 -8 -275 -24 -11 -4 -14 7 -14 55 0 116 -3 113 122
150 60 18 153 48 206 68 110 41 387 173 477 227 l60 37 7 -47 c3 -27 7 -112 7
-190z m-2834 -27 c72 -26 181 -63 244 -81 63 -18 117 -39 121 -46 4 -8 10 -70
14 -138 11 -215 59 -500 121 -712 13 -46 23 -85 21 -87 -2 -1 -57 9 -122 23
-204 44 -348 87 -550 167 l-131 51 -52 104 c-61 122 -111 268 -141 408 -23
109 -38 389 -26 487 l7 55 182 -92 c100 -50 241 -113 312 -139z m1835 -218 c0
-46 -4 -88 -8 -93 -4 -6 -40 -30 -80 -53 -152 -90 -269 -212 -346 -361 -51
-100 -81 -192 -91 -276 -3 -33 -9 -72 -11 -87 l-6 -28 -171 0 c-158 0 -357 12
-433 26 -30 5 -33 10 -63 108 -66 216 -116 496 -128 725 l-6 114 34 -7 c376
-70 790 -74 1147 -11 70 12 135 23 145 24 15 1 17 -9 17 -81z m492 -162 c317
-61 564 -309 619 -621 18 -107 7 -273 -25 -370 -70 -209 -206 -363 -401 -456
-100 -48 -176 -68 -285 -76 -364 -24 -696 216 -792 575 -28 107 -28 277 0 384
105 392 492 639 884 564z m-2357 -666 c151 -52 304 -92 470 -125 71 -15 131
-28 132 -29 2 -1 25 -48 53 -105 52 -105 109 -198 167 -265 18 -22 31 -41 29
-43 -2 -2 -32 3 -67 12 -272 70 -528 211 -727 400 -88 83 -191 195 -180 195 1
0 57 -18 123 -40z m1076 -186 l257 -7 12 -61 c14 -79 26 -118 58 -189 l25 -59
-29 -24 c-64 -53 -123 -74 -203 -74 -88 0 -130 16 -207 78 -76 60 -197 229
-234 327 -10 27 -10 27 27 21 21 -3 153 -9 294 -12z"/>
<path d="M3594 1609 l-351 -351 -58 114 c-32 62 -64 121 -73 131 -31 35 -102
10 -102 -38 0 -20 153 -319 178 -347 39 -45 48 -38 460 375 215 216 392 399
392 408 0 30 -30 59 -63 59 -28 0 -69 -38 -383 -351z"/>
</g>
</svg>
