<?xml version="1.0" encoding="UTF-8"?>
<svg version="1.1" xmlns="http://www.w3.org/2000/svg" width="180" height="180">
<path d="M0 0 C0.93392578 -0.020625 1.86785156 -0.04125 2.83007812 -0.0625 C12.20502571 -0.11527944 18.92723628 2.81347037 25.8125 9.25 C32.91121971 17.91533371 36.25377075 27.27736646 37.8125 38.25 C38.4725 38.25 39.1325 38.25 39.8125 38.25 C40.34875 37.404375 40.885 36.55875 41.4375 35.6875 C45.21853952 29.77787526 50.80087757 24.81863205 57.55078125 22.68359375 C65.73321173 21.11494127 73.18913796 22.01584641 80.8125 25.25 C81.4497025 33.85223374 79.12498152 40.79769694 73.625 47.5 C64.26029121 57.34088042 52.73044827 60.4869944 39.8125 63.25 C39.71336426 68.00050819 39.64090736 72.75040976 39.59277344 77.50170898 C39.57270108 79.11672458 39.5454367 80.73166789 39.51074219 82.34643555 C39.46202785 84.67254501 39.43948846 86.99769093 39.421875 89.32421875 C39.39090729 90.40107185 39.39090729 90.40107185 39.35931396 91.49967957 C39.35710213 96.48031923 40.56657635 98.59375913 43.8125 102.25 C44.0625 106.0625 44.0625 106.0625 43.8125 109.25 C60.45620276 104.36481762 75.72577778 95.30408461 90.05859375 85.67578125 C94.01766529 83.62604918 97.75044952 82.74832665 102.140625 83.81640625 C105.45083034 85.53206146 107.52198284 86.86869623 109.8125 89.875 C111.13617347 94.34239795 111.87525993 98.66335187 110.8125 103.25 C106.80117984 109.72579136 100.61007535 112.50109003 94 115.9375 C92.85088135 116.54400391 91.7017627 117.15050781 90.51782227 117.77539062 C42.91019699 142.73792361 42.91019699 142.73792361 17.4375 142.5 C16.42308838 142.49613281 15.40867676 142.49226562 14.36352539 142.48828125 C8.2680022 142.41777315 2.52820185 141.9028021 -3.45703125 140.7109375 C-15.25153244 138.71987721 -27.81874118 140.58945693 -38.77734375 145.3828125 C-41.68460307 146.42886042 -44.11813102 146.30838402 -47.1875 146.25 C-48.93838093 142.43790397 -50.68804232 138.62524937 -52.4375 134.8125 C-53.17419922 133.20858398 -53.17419922 133.20858398 -53.92578125 131.57226562 C-54.89524444 129.45883586 -55.86240258 127.34434708 -56.82714844 125.22875977 C-57.68819819 123.34332042 -58.55528641 121.46061711 -59.43066406 119.58178711 C-59.79385742 118.79167236 -60.15705078 118.00155762 -60.53125 117.1875 C-60.84771484 116.506875 -61.16417969 115.82625 -61.49023438 115.125 C-62.48166129 112.45897806 -62.47501611 110.05328207 -62.1875 107.25 C-54.79266431 103.41280299 -47.25150627 100.07554036 -39.5625 96.875 C-30.32313373 93.02045411 -30.32313373 93.02045411 -21.1484375 89.015625 C-20.42350098 88.69126465 -19.69856445 88.3669043 -18.95166016 88.03271484 C-17.08502559 87.19148486 -15.22203618 86.34217917 -13.359375 85.4921875 C-7.99949088 83.39311958 -4.28563081 82.84012672 1.1875 84.6875 C2.29222656 85.05230469 3.39695312 85.41710937 4.53515625 85.79296875 C5.50606201 86.12433838 5.50606201 86.12433838 6.49658203 86.46240234 C9.32465088 87.42417233 12.16020436 88.36232547 14.99609375 89.30078125 C20.94036595 91.26802351 26.87561249 93.25998184 32.8125 95.25 C32.4825 79.74 32.1525 64.23 31.8125 48.25 C26.5325 46.93 21.2525 45.61 15.8125 44.25 C3.87393143 38.76471174 -6.06474108 31.78246379 -11.1875 19.25 C-12.24113057 15.28066218 -12.2913668 11.53281347 -12.25 7.4375 C-12.24097656 6.27605469 -12.23195312 5.11460938 -12.22265625 3.91796875 C-12.21105469 3.03753906 -12.19945312 2.15710938 -12.1875 1.25 C-8.48381753 -0.60184124 -4.07634388 0.02204919 0 0 Z M-6.1875 6.25 C-5.47542296 15.86304003 -2.8183614 23.7799897 4.41015625 30.4296875 C11.45545993 35.7680802 19.15034735 38.80630789 27.8125 40.25 C22.39322926 32.165153 15.46638391 24.87610657 6.8125 20.25 C6.1525 20.25 5.4925 20.25 4.8125 20.25 C5.1425 18.93 5.4725 17.61 5.8125 16.25 C11.83724876 16.5674899 14.88252911 18.44863161 19 22.625 C23.67421696 27.20588586 23.67421696 27.20588586 28.8125 31.25 C28.19328961 23.40666837 24.60476025 16.49478764 18.8125 11.25 C13.33394585 6.65508362 8.52642311 5.96174084 1.5 6.125 C0.38915039 6.13853516 0.38915039 6.13853516 -0.74414062 6.15234375 C-2.55873467 6.17575787 -4.37316071 6.21162385 -6.1875 6.25 Z M50.0625 34.3125 C44.65456683 40.26122649 41.33574696 47.22687992 40.8125 55.25 C52.14873068 54.05951809 61.47795856 51.67957326 69.40625 43.078125 C72.74103068 38.74291012 73.97156945 34.73321758 73.8125 29.25 C64.64373916 27.82755673 57.20886968 27.79759833 50.0625 34.3125 Z M-29.0625 99.625 C-30.20058105 100.10815674 -31.33866211 100.59131348 -32.51123047 101.08911133 C-40.13615856 104.33939385 -47.71328682 107.66419327 -55.1875 111.25 C-53.39263796 117.29476527 -50.69427707 122.91175847 -48.0625 128.625 C-47.59457031 129.64722656 -47.12664063 130.66945312 -46.64453125 131.72265625 C-45.49491708 134.23303821 -44.34249936 136.74209231 -43.1875 139.25 C-40.02299766 138.63958673 -37.08783789 137.92255744 -34.0625 136.8125 C-21.01490285 132.39838753 -9.06210416 132.86393584 4.3125 135.18359375 C38.70094109 140.82544737 74.60940959 120.93989238 102.8125 103.25 C105.16063734 101.31832602 105.16063734 101.31832602 105.1875 97.875 C105.08385667 94.27632141 105.08385667 94.27632141 103.25 91.75 C99.75268133 89.59780389 97.77233949 90.39059558 93.8125 91.25 C90.4594876 92.78323859 90.4594876 92.78323859 87.1875 94.8125 C86.58558838 95.16747559 85.98367676 95.52245117 85.36352539 95.88818359 C81.27988281 98.31092775 77.26895018 100.84671498 73.25 103.375 C54.93623649 114.65521665 37.70562163 119.71744452 16.49609375 115.16796875 C8.23257694 113.1086618 0.52006623 109.82783321 -7.1875 106.25 C-6.8575 104.6 -6.5275 102.95 -6.1875 101.25 C-2.25672038 102.51563802 1.5821276 103.9360083 5.42016602 105.45849609 C14.94999453 109.19753809 24.46189661 111.92503935 34.8125 111.25 C37.06605766 110.41552003 37.06605766 110.41552003 37.625 107.875 C38.09617727 105.28309408 38.09617727 105.28309408 36.66943359 103.70483398 C34.31026781 101.85652095 32.16208857 101.20012593 29.2890625 100.34765625 C28.18433594 100.01443359 27.07960938 99.68121094 25.94140625 99.33789062 C24.78511719 98.99951172 23.62882812 98.66113281 22.4375 98.3125 C20.1796875 97.63671875 17.921875 96.9609375 15.6640625 96.28515625 C14.54418945 95.95402832 13.42431641 95.62290039 12.27050781 95.28173828 C7.59350674 93.88629868 2.93393609 92.43633129 -1.72509766 90.98217773 C-9.69728463 88.61170493 -21.77187541 96.5169142 -29.0625 99.625 Z " fill="#FFFFFF" transform="translate(66.1875,16.75)"/>
</svg>
