<?xml version="1.0" standalone="no"?>
<!DOCTYPE svg PUBLIC "-//W3C//DTD SVG 20010904//EN"
 "http://www.w3.org/TR/2001/REC-SVG-20010904/DTD/svg10.dtd">
<svg version="1.0" xmlns="http://www.w3.org/2000/svg"
 width="512.000000pt" height="512.000000pt" viewBox="0 0 512.000000 512.000000"
 preserveAspectRatio="xMidYMid meet">

<g transform="translate(0.000000,512.000000) scale(0.100000,-0.100000)"
fill="#000000" stroke="none">
<path d="M2380 4451 c-42 -14 -99 -41 -127 -59 -119 -76 -230 -235 -253 -361
-6 -29 -10 -102 -10 -161 0 -94 -3 -115 -25 -162 -14 -29 -25 -66 -25 -82 0
-84 64 -174 140 -197 36 -11 42 -17 54 -59 22 -72 50 -122 106 -183 44 -49 50
-60 50 -100 0 -24 -6 -49 -12 -55 -7 -5 -121 -51 -253 -102 -132 -50 -260
-101 -284 -112 -62 -28 -156 -125 -187 -193 -36 -79 -44 -154 -43 -430 0 -132
0 -246 -1 -253 0 -10 -30 -12 -131 -10 l-130 3 0 357 0 356 125 163 124 163
73 0 c56 1 83 6 109 21 91 54 127 182 78 275 -65 121 -229 144 -324 46 -65
-69 -78 -147 -38 -231 9 -19 12 -40 8 -47 -4 -7 -67 -89 -138 -183 l-131 -170
-3 -377 -3 -378 -52 0 c-64 0 -114 -24 -144 -69 -22 -32 -23 -44 -23 -205 0
-200 8 -223 85 -257 l45 -20 0 -325 c0 -351 2 -363 54 -398 23 -14 90 -16 692
-16 623 0 668 1 680 18 17 22 18 68 2 79 -7 4 -305 10 -663 13 l-650 5 0 315
0 315 1405 0 1405 0 0 -315 0 -315 -650 -5 c-357 -3 -656 -9 -662 -13 -17 -11
-16 -57 1 -79 12 -17 57 -18 680 -18 602 0 669 2 692 16 52 35 54 47 54 398
l0 325 45 20 c77 34 85 57 85 257 0 161 -1 173 -23 205 -30 45 -80 69 -144 69
l-52 0 -3 378 -3 377 -131 170 c-71 94 -134 176 -138 183 -4 7 -1 28 8 47 40
84 27 162 -38 231 -70 72 -165 82 -254 27 -126 -78 -121 -272 8 -348 26 -15
53 -20 109 -21 l73 0 60 -80 c33 -43 89 -116 125 -162 l64 -83 0 -357 0 -357
-130 -3 c-101 -2 -131 0 -132 10 -1 7 0 45 1 85 2 65 -1 75 -24 98 -31 31 -41
31 -72 0 -23 -23 -26 -33 -24 -98 1 -40 2 -78 1 -84 -1 -10 -32 -13 -121 -13
l-120 0 0 228 c0 209 -2 230 -18 245 -22 20 -67 22 -79 5 -4 -7 -10 -116 -13
-243 l-5 -230 -170 0 -170 0 -47 280 c-37 215 -46 285 -38 303 8 18 15 22 28
17 37 -17 73 -17 97 -1 16 10 52 70 96 159 39 78 73 144 75 146 4 5 281 -102
335 -129 41 -21 100 -83 125 -132 12 -22 19 -69 24 -142 5 -90 9 -111 25 -122
44 -32 85 -7 92 57 7 69 -12 192 -41 254 -31 68 -125 165 -187 193 -33 15
-352 139 -531 208 -14 5 -18 18 -18 61 0 51 3 59 46 106 50 56 86 120 103 183
10 36 16 42 52 53 54 16 115 79 130 133 14 53 5 120 -21 163 -17 28 -20 50
-20 151 0 70 -6 141 -14 172 -52 193 -196 345 -386 407 -110 35 -234 34 -340
-4z m256 -92 c171 -31 314 -163 358 -331 17 -67 25 -203 11 -202 -6 1 -15 10
-20 21 -22 42 -141 167 -173 180 -32 13 -37 12 -155 -46 -144 -70 -223 -91
-374 -100 -104 -6 -114 -8 -140 -33 -16 -16 -32 -28 -36 -28 -4 0 -7 35 -7 78
0 86 24 177 63 245 59 100 182 188 297 213 71 16 103 16 176 3z m199 -501 l46
-53 -3 -200 c-3 -227 -11 -255 -86 -337 -152 -164 -430 -122 -529 80 -27 56
-28 60 -28 237 l0 180 90 6 c120 8 240 40 350 94 50 24 95 44 102 44 6 1 32
-23 58 -51z m-715 -244 c0 -80 -10 -92 -45 -54 -27 30 -24 84 4 114 13 14 28
23 32 20 5 -3 9 -39 9 -80z m920 54 c25 -42 25 -63 -1 -99 -36 -50 -49 -38
-49 44 0 97 14 113 50 55z m-1420 -413 c60 -31 68 -100 19 -146 -41 -38 -81
-38 -120 0 -46 47 -38 115 19 145 35 19 46 19 82 1z m1960 0 c59 -30 68 -98
21 -146 -39 -38 -79 -38 -120 0 -49 46 -41 114 17 145 35 19 46 19 82 1z
m-862 -209 c3 -21 -10 -44 -56 -99 -32 -40 -65 -82 -73 -94 -13 -21 -49 -32
-49 -15 0 4 -31 45 -70 92 -49 60 -70 93 -70 113 0 28 0 28 48 21 66 -11 192
-8 222 4 34 15 44 10 48 -22z m-315 -211 c37 -46 67 -88 67 -93 0 -9 -115 -92
-127 -92 -4 1 -33 52 -65 115 -40 82 -53 117 -45 123 15 12 67 30 87 31 8 0
45 -37 83 -84z m454 65 l42 -19 -57 -115 c-31 -63 -61 -115 -65 -116 -13 0
-127 83 -127 93 0 18 135 177 150 177 8 0 34 -9 57 -20z m-670 -205 c88 -175
113 -196 195 -160 13 5 20 1 28 -17 8 -18 -1 -89 -38 -303 l-48 -280 -169 0
-170 0 -5 230 c-3 127 -9 236 -13 243 -12 17 -57 15 -79 -5 -16 -15 -18 -36
-18 -245 l0 -228 -119 0 c-87 0 -120 3 -122 13 -2 6 -2 145 1 307 4 260 7 299
23 328 22 41 83 109 111 125 29 16 329 136 341 136 6 1 43 -64 82 -144z m413
-64 c30 -25 33 -31 21 -45 -26 -32 -131 -17 -131 19 0 9 57 53 70 54 3 1 21
-12 40 -28z m-5 -193 c6 -28 85 -490 85 -500 0 -5 -54 -8 -120 -8 -66 0 -120
3 -120 6 0 11 81 498 86 512 2 6 17 12 33 12 24 0 32 -5 36 -22z m1488 -628
c4 0 7 -70 7 -155 l0 -155 -1530 0 -1530 0 0 154 c0 94 4 156 10 158 7 2 2659
1 3043 -2z"/>
</g>
</svg>
