<svg xmlns="http://www.w3.org/2000/svg" version="1.0" width="512.000000pt" height="512.000000pt" viewBox="0 0 512.000000 512.000000" preserveAspectRatio="xMidYMid meet">

<g transform="translate(0.000000,512.000000) scale(0.100000,-0.100000)" fill="#0026ff" stroke="none">
<path d="M2400 4544 c-186 -48 -351 -184 -433 -355 -56 -118 -71 -179 -71 -299 0 -120 15 -181 71 -298 35 -74 60 -109 117 -168 l73 -74 -249 0 -249 0 -24 -25 -25 -24 0 -381 0 -380 -499 0 -500 0 -28 -24 -28 -24 0 -941 0 -941 28 -27 27 -28 1950 0 1950 0 27 28 28 27 0 941 0 941 -28 24 -28 24 -490 0 -489 0 0 376 0 376 -29 29 -29 29 -249 0 -248 0 47 43 c301 272 288 758 -29 1019 -71 59 -177 112 -263 132 -82 20 -256 20 -330 0z m331 -178 c203 -71 339 -262 339 -476 0 -206 -121 -384 -320 -470 -81 -35 -233 -40 -328 -11 -134 40 -247 138 -308 266 -130 273 7 594 296 692 93 32 230 31 321 -1z m627 -2413 l-3 -1228 -147 -3 -148 -3 0 455 0 455 -24 28 -24 28 -419 3 c-283 2 -430 0 -455 -8 -69 -20 -68 -14 -68 -515 l0 -445 -145 0 -145 0 0 1230 0 1230 790 0 790 0 -2 -1227z m-1750 -405 l-3 -823 -437 -3 -438 -2 0 825 0 825 440 0 440 0 -2 -822z m2782 -3 l0 -825 -430 0 -430 0 0 825 0 825 430 0 430 0 0 -825z m-1500 -425 l0 -400 -322 2 -323 3 -3 385 c-1 212 0 391 3 397 3 10 77 13 325 13 l320 0 0 -400z" fill="#0026ff"/>
<path d="M2512 4303 c-31 -12 -42 -61 -42 -193 l0 -130 -117 0 c-146 0 -188 -10 -209 -52 -18 -35 -12 -70 16 -98 18 -18 34 -20 165 -20 l145 0 0 -135 c0 -175 13 -205 90 -205 15 0 38 9 51 19 23 18 24 27 29 168 l5 148 147 3 c145 2 147 3 167 29 28 34 26 76 -3 110 -24 28 -24 28 -170 31 l-146 4 0 138 c0 124 -2 140 -21 164 -16 20 -29 26 -57 25 -20 0 -43 -3 -50 -6z" fill="#0026ff"/>
<path d="M1905 3073 c-11 -3 -30 -14 -42 -26 -23 -20 -23 -24 -23 -282 0 -260 0 -262 23 -283 23 -22 29 -22 314 -22 l292 0 20 26 c20 25 21 39 21 280 0 253 0 253 -24 281 l-24 28 -269 2 c-147 1 -277 -1 -288 -4z m435 -303 l0 -140 -165 0 -165 0 0 140 0 140 165 0 165 0 0 -140z" fill="#0026ff"/>
<path d="M2653 3069 c-58 -17 -63 -39 -63 -304 0 -246 6 -284 45 -299 9 -3 145 -6 301 -6 l285 0 24 25 25 24 0 251 c0 161 -4 259 -11 272 -23 42 -63 48 -326 47 -136 0 -263 -5 -280 -10z m447 -299 l0 -140 -170 0 -170 0 0 133 c0 74 3 137 7 140 3 4 80 7 170 7 l163 0 0 -140z" fill="#0026ff"/>
<path d="M1895 2378 c-44 -24 -45 -30 -45 -300 l0 -259 25 -24 24 -25 286 0 286 0 24 25 25 24 0 255 c0 140 -3 262 -6 271 -16 40 -51 45 -331 45 -175 -1 -275 -4 -288 -12z m455 -298 l0 -140 -165 0 -165 0 0 140 0 140 165 0 165 0 0 -140z" fill="#0026ff"/>
<path d="M2609 2361 l-29 -29 0 -252 0 -252 29 -29 29 -29 282 0 282 0 29 29 29 29 0 252 0 252 -29 29 -29 29 -282 0 -282 0 -29 -29z m481 -281 l0 -140 -170 0 -170 0 0 140 0 140 170 0 170 0 0 -140z" fill="#0026ff"/>
<path d="M842 2277 c-21 -23 -22 -30 -22 -283 l0 -261 26 -24 26 -24 290 0 290 0 24 28 24 28 0 255 0 255 -25 24 -24 25 -294 0 -294 0 -21 -23z m488 -287 l0 -140 -170 0 -170 0 0 140 0 140 170 0 170 0 0 -140z" fill="#0026ff"/>
<path d="M880 1613 c-8 -3 -25 -15 -37 -26 -23 -20 -23 -24 -23 -279 l0 -259 25 -24 24 -25 291 0 291 0 24 25 25 24 0 255 0 255 -24 28 -24 28 -279 2 c-153 1 -285 -1 -293 -4z m450 -303 l0 -140 -170 0 -170 0 0 140 0 140 170 0 170 0 0 -140z" fill="#0026ff"/>
<path d="M3639 2274 c-24 -25 -24 -27 -27 -266 -3 -270 0 -292 54 -314 43 -18 524 -20 573 -3 57 20 61 42 61 304 0 240 -3 265 -39 292 -12 9 -94 12 -307 13 l-291 0 -24 -26z m489 -281 l-3 -138 -170 0 -170 0 -3 138 -3 137 176 0 176 0 -3 -137z" fill="#0026ff"/>
<path d="M3664 1606 c-51 -23 -55 -47 -52 -314 3 -239 3 -241 27 -266 l24 -26 293 0 292 0 26 31 26 31 0 239 c0 267 -4 288 -61 308 -49 17 -535 14 -575 -3z m464 -298 l3 -138 -176 0 -175 0 0 133 c0 74 3 137 7 141 4 3 81 5 172 4 l166 -3 3 -137z" fill="#0026ff"/>
</g>
</svg>