<?xml version="1.0" standalone="no"?>
<!DOCTYPE svg PUBLIC "-//W3C//DTD SVG 20010904//EN"
 "http://www.w3.org/TR/2001/REC-SVG-20010904/DTD/svg10.dtd">
<svg version="1.0" xmlns="http://www.w3.org/2000/svg"
 width="512.000000pt" height="512.000000pt" viewBox="0 0 512.000000 512.000000"
 preserveAspectRatio="xMidYMid meet">

<g transform="translate(0.000000,512.000000) scale(0.100000,-0.100000)"
fill="#000000" stroke="none">
<path d="M838 4994 c-154 -37 -290 -147 -357 -289 -46 -96 -53 -149 -49 -365
3 -170 6 -202 25 -253 25 -67 68 -137 114 -185 17 -18 30 -35 28 -36 -2 -2
-119 -80 -259 -173 -140 -94 -265 -180 -277 -192 -54 -51 -58 -71 -61 -295 -2
-116 -1 -224 3 -242 15 -83 232 -220 435 -276 83 -22 96 -23 520 -23 424 0
437 1 520 23 203 56 420 193 435 276 4 18 5 126 3 242 -3 224 -7 244 -61 295
-12 12 -137 98 -277 192 -140 93 -257 171 -259 173 -2 1 11 18 28 36 46 48 89
118 114 185 19 51 22 83 25 253 4 216 -3 269 -49 365 -106 224 -363 347 -601
289z m222 -216 c80 -25 155 -93 192 -173 21 -46 23 -63 23 -235 0 -172 -2
-189 -23 -236 -42 -92 -135 -164 -240 -184 -134 -25 -286 56 -344 184 -21 47
-23 64 -23 236 0 172 2 189 23 236 67 147 234 221 392 172z m-138 -1044 c39
-4 92 -2 127 5 l60 12 301 -201 300 -200 -2 -161 -3 -161 -80 -48 c-43 -27
-111 -59 -150 -72 -69 -23 -76 -23 -515 -23 -442 0 -445 0 -514 24 -63 22
-141 61 -208 105 l-28 18 0 159 0 159 298 200 c236 158 302 199 322 195 14 -3
55 -8 92 -11z"/>
<path d="M2130 4905 l0 -105 110 0 110 0 0 105 0 105 -110 0 -110 0 0 -105z"/>
<path d="M2560 4905 l0 -105 105 0 105 0 0 105 0 105 -105 0 -105 0 0 -105z"/>
<path d="M2990 4905 l0 -105 105 0 105 0 0 105 0 105 -105 0 -105 0 0 -105z"/>
<path d="M2170 4552 c-19 -19 -30 -44 -35 -73 -3 -24 -5 -284 -3 -576 l3 -533
33 -32 32 -33 533 -3 c292 -2 552 0 576 3 29 5 54 16 73 35 l28 28 0 255 0
255 -31 31 c-42 42 -95 43 -141 2 l-33 -29 -3 -181 -3 -181 -425 0 -424 0 0
425 0 425 269 0 c165 0 280 4 299 11 69 24 87 116 33 170 l-29 29 -362 0 -362
0 -28 -28z"/>
<path d="M3630 4475 l0 -105 745 0 745 0 0 105 0 105 -745 0 -745 0 0 -105z"/>
<path d="M3280 4472 c-17 -3 -106 -85 -265 -243 l-241 -239 -59 61 c-84 85
-110 102 -157 102 -84 0 -131 -99 -80 -170 11 -15 69 -76 130 -135 120 -117
153 -134 208 -105 16 9 156 143 312 299 279 280 282 284 282 325 0 69 -59 116
-130 105z"/>
<path d="M3630 4050 l0 -110 530 0 530 0 0 110 0 110 -530 0 -530 0 0 -110z"/>
<path d="M838 2434 c-154 -37 -290 -147 -357 -289 -46 -96 -53 -149 -49 -365
3 -170 6 -202 25 -253 25 -67 68 -137 114 -185 17 -18 30 -35 28 -36 -2 -2
-119 -80 -259 -173 -140 -94 -265 -180 -277 -192 -54 -51 -58 -71 -61 -295 -2
-116 -1 -224 3 -242 15 -83 232 -220 435 -276 83 -22 96 -23 520 -23 424 0
437 1 520 23 203 56 420 193 435 276 4 18 5 126 3 242 -3 224 -7 244 -61 295
-12 12 -137 98 -277 192 -140 93 -257 171 -259 173 -2 1 11 18 28 36 46 48 89
118 114 185 19 51 22 83 25 253 4 216 -3 269 -49 365 -106 224 -363 347 -601
289z m222 -216 c80 -25 155 -93 192 -173 21 -46 23 -63 23 -235 0 -172 -2
-189 -23 -236 -58 -128 -210 -209 -344 -184 -105 20 -198 92 -240 184 -21 47
-23 64 -23 236 0 172 2 189 23 236 67 147 234 221 392 172z m-138 -1044 c39
-4 92 -2 127 5 l60 12 301 -201 300 -200 -2 -161 -3 -161 -80 -48 c-43 -27
-111 -59 -150 -72 -69 -23 -76 -23 -515 -23 -442 0 -445 0 -514 24 -63 22
-141 61 -208 105 l-28 18 0 159 0 159 298 200 c236 158 302 199 322 195 14 -3
55 -8 92 -11z"/>
<path d="M2130 2345 l0 -105 110 0 110 0 0 105 0 105 -110 0 -110 0 0 -105z"/>
<path d="M2560 2345 l0 -105 105 0 105 0 0 105 0 105 -105 0 -105 0 0 -105z"/>
<path d="M2990 2345 l0 -105 105 0 105 0 0 105 0 105 -105 0 -105 0 0 -105z"/>
<path d="M2170 1992 c-19 -19 -30 -44 -35 -73 -3 -24 -5 -284 -3 -576 l3 -533
33 -32 32 -33 533 -3 c292 -2 552 0 576 3 29 5 54 16 73 35 l28 28 0 255 0
255 -31 31 c-42 42 -95 43 -141 2 l-33 -29 -3 -181 -3 -181 -425 0 -424 0 0
425 0 425 269 0 c165 0 280 4 299 11 69 24 87 116 33 170 l-29 29 -362 0 -362
0 -28 -28z"/>
<path d="M3630 1915 l0 -105 745 0 745 0 0 105 0 105 -745 0 -745 0 0 -105z"/>
<path d="M3280 1912 c-17 -3 -106 -85 -265 -243 l-241 -239 -59 61 c-84 85
-110 102 -157 102 -84 0 -131 -99 -80 -170 11 -15 69 -76 130 -135 120 -117
153 -134 208 -105 16 9 156 143 312 299 279 280 282 284 282 325 0 69 -59 116
-130 105z"/>
<path d="M3630 1490 l0 -110 530 0 530 0 0 110 0 110 -530 0 -530 0 0 -110z"/>
</g>
</svg>
