<?xml version="1.0" standalone="no"?>
<!DOCTYPE svg PUBLIC "-//W3C//DTD SVG 20010904//EN"
 "http://www.w3.org/TR/2001/REC-SVG-20010904/DTD/svg10.dtd">
<svg version="1.0" xmlns="http://www.w3.org/2000/svg"
 width="512.000000pt" height="512.000000pt" viewBox="0 0 512.000000 512.000000"
 preserveAspectRatio="xMidYMid meet">

<g transform="translate(0.000000,512.000000) scale(0.100000,-0.100000)"
fill="#000000" stroke="none">
<path d="M2090 5109 c-29 -12 -67 -45 -83 -74 -8 -13 -14 -114 -17 -299 l-5
-278 -90 -32 c-49 -18 -132 -52 -183 -76 l-93 -43 -197 195 c-185 184 -200
197 -242 203 -26 4 -58 2 -75 -5 -44 -16 -672 -646 -686 -688 -6 -18 -8 -51
-4 -75 6 -38 25 -60 203 -239 l195 -197 -43 -93 c-24 -51 -58 -133 -76 -183
l-32 -90 -280 -5 c-309 -6 -305 -5 -356 -74 -21 -27 -21 -38 -21 -496 0 -616
-35 -563 377 -570 l280 -5 32 -90 c18 -49 52 -132 76 -183 l43 -93 -195 -197
c-178 -179 -197 -201 -203 -239 -4 -24 -2 -57 4 -75 14 -42 642 -672 686 -688
17 -7 49 -9 75 -5 42 6 57 19 242 203 l197 195 93 -43 c51 -24 134 -58 183
-76 l90 -32 5 -280 c6 -309 5 -305 74 -356 27 -21 38 -21 496 -21 616 0 563
-35 570 377 l5 280 90 32 c50 18 132 52 183 76 l93 43 197 -195 c185 -184 200
-197 242 -203 26 -4 58 -2 75 5 44 16 672 646 686 688 6 18 8 51 4 75 -6 38
-25 60 -203 239 l-195 197 43 93 c24 51 58 134 76 183 l32 90 280 5 c309 6
305 5 356 74 21 27 21 38 21 496 0 616 35 563 -377 570 l-280 5 -32 90 c-18
50 -52 132 -76 183 l-43 93 195 197 c184 185 197 200 203 242 4 26 2 58 -5 75
-16 44 -646 672 -688 686 -18 6 -51 8 -75 4 -38 -6 -60 -25 -239 -203 l-197
-195 -93 43 c-51 24 -133 58 -183 76 l-90 32 -5 280 c-6 309 -5 305 -74 356
-27 20 -40 21 -484 23 -290 1 -466 -2 -482 -8z m908 -121 c9 -9 12 -90 12
-303 0 -218 3 -295 13 -308 6 -9 57 -30 112 -47 55 -18 160 -61 234 -96 74
-35 141 -64 149 -64 9 0 111 95 227 210 116 116 215 210 220 210 13 0 625
-612 625 -625 0 -5 -94 -104 -210 -220 -115 -116 -210 -218 -210 -227 0 -9 27
-71 60 -139 32 -68 76 -173 95 -234 20 -60 44 -116 53 -122 12 -10 89 -13 307
-13 213 0 294 -3 303 -12 17 -17 17 -859 0 -876 -9 -9 -90 -12 -303 -12 -218
0 -295 -3 -307 -12 -9 -7 -33 -62 -53 -123 -19 -60 -63 -166 -95 -234 -33 -68
-60 -130 -60 -139 0 -9 95 -111 210 -227 116 -116 210 -215 210 -220 0 -13
-612 -625 -625 -625 -5 0 -104 94 -220 210 -116 115 -218 210 -227 210 -8 0
-75 -29 -149 -64 -74 -35 -179 -78 -234 -96 -55 -17 -106 -38 -112 -47 -10
-13 -13 -90 -13 -308 0 -213 -3 -294 -12 -303 -17 -17 -859 -17 -876 0 -9 9
-12 90 -12 303 0 218 -3 295 -12 307 -7 9 -62 33 -123 53 -60 19 -166 63 -234
95 -68 33 -130 60 -139 60 -9 0 -111 -94 -227 -210 -116 -115 -215 -210 -220
-210 -13 0 -625 612 -625 625 0 5 95 104 210 220 116 116 210 218 210 227 0 9
-28 73 -61 142 -34 70 -76 172 -94 228 -18 55 -40 109 -49 119 -15 18 -35 19
-309 19 -215 0 -296 3 -305 12 -9 9 -12 120 -12 438 0 318 3 429 12 438 9 9
90 12 305 12 274 0 294 1 309 19 9 10 31 64 49 119 18 56 60 158 94 228 33 69
61 133 61 142 0 9 -95 111 -210 227 -116 116 -210 215 -210 220 0 13 612 625
625 625 5 0 104 -94 220 -210 116 -115 218 -210 227 -210 9 0 71 27 139 60 68
32 171 75 228 94 58 19 113 42 123 50 17 15 18 39 18 309 0 215 3 296 12 305
17 17 859 17 876 0z"/>
<path d="M2370 4862 c-28 -22 -30 -70 -4 -89 13 -9 60 -13 174 -13 139 0 159
2 173 18 24 26 21 68 -5 86 -18 13 -53 16 -169 16 -127 0 -150 -2 -169 -18z"/>
<path d="M2374 4612 c-36 -24 -34 -81 5 -101 11 -6 81 -11 163 -11 161 0 188
9 188 59 0 55 -20 61 -191 61 -85 0 -159 -4 -165 -8z"/>
<path d="M3918 4343 c-41 -48 -32 -67 100 -195 105 -103 132 -116 165 -80 35
38 22 62 -96 180 -115 115 -140 129 -169 95z"/>
<path d="M993 4227 c-119 -119 -130 -140 -93 -177 38 -38 59 -26 178 93 87 87
112 118 112 139 0 29 -32 58 -64 58 -12 0 -65 -45 -133 -113z"/>
<path d="M3731 4154 c-12 -15 -21 -34 -21 -42 0 -9 51 -67 113 -129 119 -119
146 -133 180 -95 35 39 23 63 -96 180 -72 70 -122 112 -135 112 -11 0 -30 -12
-41 -26z"/>
<path d="M1184 4048 c-63 -61 -116 -120 -120 -130 -10 -31 22 -68 58 -68 27 0
48 16 140 108 92 92 108 113 108 139 0 32 -29 63 -59 63 -8 0 -65 -50 -127
-112z"/>
<path d="M2370 4080 c-660 -92 -1170 -567 -1312 -1224 -32 -146 -32 -446 0
-592 134 -619 588 -1073 1206 -1206 146 -31 446 -31 592 0 144 31 243 65 369
127 436 213 733 596 837 1079 31 146 31 446 0 592 -133 617 -589 1075 -1201
1205 -110 23 -384 34 -491 19z m130 -330 l0 -210 -200 0 c-146 0 -200 3 -200
12 0 37 121 216 196 291 53 52 158 117 191 117 10 0 13 -41 13 -210z m206 180
c68 -34 159 -119 214 -200 48 -71 100 -163 100 -178 0 -9 -54 -12 -200 -12
l-200 0 0 210 c0 169 3 210 13 210 8 0 41 -13 73 -30z m-538 -47 c-50 -53
-108 -142 -162 -250 l-46 -93 -200 0 c-124 0 -200 4 -200 10 0 15 168 151 251
202 88 55 197 108 294 142 96 34 105 33 63 -11z m859 6 c110 -39 227 -97 319
-160 82 -55 214 -166 214 -180 0 -5 -86 -9 -200 -9 l-200 0 -46 93 c-52 102
-109 190 -162 249 -19 21 -30 38 -24 38 6 0 50 -14 99 -31z m-1121 -496 c-3
-16 -19 -73 -34 -128 l-27 -100 -195 -3 c-185 -2 -196 -3 -212 -23 -16 -19
-18 -48 -18 -270 l0 -249 -136 0 -136 0 7 68 c9 92 39 234 65 312 34 101 112
259 169 343 l52 77 236 0 236 0 -7 -27z m594 -98 l0 -125 -265 0 -265 0 6 28
c4 15 18 63 31 107 14 44 27 88 30 98 5 16 25 17 234 17 l229 0 0 -125z m609
18 c18 -60 35 -116 38 -125 4 -17 -13 -18 -261 -18 l-266 0 0 125 0 125 228 0
229 0 32 -107z m619 34 c128 -189 214 -428 237 -659 l7 -68 -136 0 -136 0 0
249 c0 222 -2 251 -17 270 -17 20 -28 21 -213 23 l-195 3 -22 83 c-12 46 -28
104 -37 128 l-15 44 239 0 239 0 49 -73z m-148 -787 l0 -480 -1020 0 -1020 0
0 480 0 480 1020 0 1020 0 0 -480z m-2160 -309 c0 -222 2 -251 18 -270 16 -20
27 -21 212 -23 l195 -3 27 -100 c15 -55 31 -112 34 -127 l7 -28 -236 0 -236 0
-49 73 c-128 189 -214 428 -237 660 l-7 67 136 0 136 0 0 -249z m2545 182
c-23 -231 -101 -450 -231 -650 l-54 -83 -239 0 -240 0 15 44 c9 24 25 82 37
128 l22 83 195 3 c185 2 196 3 213 23 15 19 17 48 17 270 l0 249 136 0 136 0
-7 -67z m-1465 -608 l0 -125 -228 0 -229 0 -32 108 c-18 59 -35 115 -38 125
-4 16 13 17 261 17 l266 0 0 -125z m647 108 c-3 -10 -20 -66 -38 -125 l-32
-108 -229 0 -228 0 0 125 0 125 266 0 c248 0 265 -1 261 -17z m-1141 -445 c54
-109 99 -178 155 -242 22 -25 36 -46 31 -46 -22 0 -190 64 -257 97 -38 20
-101 56 -140 81 -80 51 -235 178 -235 193 0 5 80 9 200 9 l200 0 46 -92z m494
-118 c0 -169 -3 -210 -13 -210 -8 0 -41 13 -74 30 -62 31 -161 123 -210 195
-45 67 -103 169 -103 182 0 10 45 13 200 13 l200 0 0 -210z m520 199 c0 -15
-62 -124 -104 -184 -59 -82 -146 -163 -209 -195 -33 -17 -66 -30 -74 -30 -10
0 -13 41 -13 210 l0 210 200 0 c137 0 200 -3 200 -11z m540 2 c0 -14 -132
-125 -214 -180 -39 -27 -107 -66 -151 -89 -75 -37 -244 -102 -267 -102 -6 0 5
17 24 38 53 59 110 147 162 250 l46 92 200 0 c114 0 200 -4 200 -9z"/>
<path d="M1690 2760 c-24 -24 -24 -27 0 -225 17 -138 22 -162 41 -177 43 -35
68 -17 138 97 l53 86 59 -95 c33 -52 68 -98 78 -101 26 -8 71 15 76 39 3 12
14 93 24 181 21 173 18 195 -29 210 -46 15 -79 -33 -81 -119 0 -17 -4 -40 -8
-50 -6 -16 -11 -12 -34 27 -37 62 -53 77 -87 77 -31 0 -51 -20 -85 -83 -11
-20 -22 -37 -26 -37 -4 0 -10 34 -14 76 -5 54 -12 81 -26 95 -25 25 -54 24
-79 -1z"/>
<path d="M2332 2764 c-27 -19 -27 -38 -7 -217 20 -171 21 -174 51 -193 38 -26
65 -7 124 90 29 47 56 86 60 86 4 0 31 -39 60 -86 59 -97 86 -116 124 -90 30
19 31 22 51 193 21 184 20 199 -10 219 -21 14 -31 15 -51 6 -30 -14 -40 -38
-51 -121 l-8 -63 -40 58 c-33 49 -46 60 -72 62 -29 3 -36 -2 -65 -44 -18 -25
-38 -54 -45 -63 -9 -13 -13 -2 -19 58 -5 59 -12 80 -30 98 -27 27 -42 29 -72
7z"/>
<path d="M2964 2755 c-19 -19 -24 -32 -20 -53 3 -15 12 -90 21 -167 19 -166
20 -172 47 -186 40 -21 64 -3 124 94 31 50 58 93 59 95 2 2 27 -36 56 -83 70
-114 95 -132 138 -97 19 15 24 39 41 177 11 88 20 170 20 183 0 27 -33 62 -60
62 -39 0 -58 -33 -65 -114 -4 -42 -10 -76 -14 -76 -4 0 -15 17 -26 37 -34 63
-54 83 -85 83 -33 0 -50 -15 -86 -76 -15 -25 -29 -43 -31 -40 -3 2 -9 37 -14
78 -7 55 -14 77 -30 91 -29 23 -45 22 -75 -8z"/>
<path d="M4392 2884 c-21 -15 -22 -21 -22 -178 0 -145 2 -165 18 -179 25 -23
58 -21 82 3 18 18 20 33 20 170 0 147 -1 152 -25 175 -28 29 -42 31 -73 9z"/>
<path d="M4644 2875 c-25 -25 -25 -26 -22 -181 3 -140 5 -157 22 -170 27 -19
60 -18 79 4 14 16 17 44 17 180 0 155 -1 161 -22 176 -31 22 -45 20 -74 -9z"/>
<path d="M384 2845 c-25 -25 -25 -26 -22 -181 3 -140 5 -157 22 -170 27 -19
60 -18 79 4 14 16 17 44 17 180 0 155 -1 161 -22 176 -31 22 -45 20 -74 -9z"/>
<path d="M640 2850 c-18 -18 -20 -33 -20 -173 0 -171 8 -197 60 -197 52 0 60
26 60 197 0 140 -2 155 -20 173 -11 11 -29 20 -40 20 -11 0 -29 -9 -40 -20z"/>
<path d="M3846 1411 c-101 -103 -117 -123 -111 -143 9 -30 33 -48 64 -48 18 0
53 28 133 108 92 92 108 113 108 139 0 33 -29 63 -60 63 -9 0 -69 -54 -134
-119z"/>
<path d="M1104 1485 c-18 -18 -23 -31 -19 -48 4 -12 55 -70 114 -129 112 -113
140 -127 175 -92 37 36 22 65 -97 182 -63 62 -122 112 -131 112 -9 0 -28 -11
-42 -25z"/>
<path d="M4033 1238 c-98 -97 -113 -116 -113 -145 0 -22 6 -36 19 -43 43 -22
63 -11 172 97 94 92 109 111 109 139 0 33 -28 64 -59 64 -8 0 -65 -50 -128
-112z"/>
<path d="M925 1306 c-14 -14 -25 -33 -25 -42 0 -9 50 -68 112 -131 117 -119
146 -134 182 -97 36 36 21 64 -91 176 -60 58 -118 109 -130 113 -17 4 -29 -1
-48 -19z"/>
<path d="M2392 858 c-21 -28 -22 -55 -3 -79 19 -24 23 -24 181 -24 148 0 163
2 176 19 18 26 18 61 -2 80 -13 13 -44 16 -178 16 -119 0 -166 -3 -174 -12z"/>
<path d="M2394 595 c-18 -19 -23 -31 -19 -48 13 -43 30 -47 195 -47 139 0 159
2 173 18 24 26 21 68 -5 86 -18 13 -53 16 -171 16 -145 0 -148 -1 -173 -25z"/>
</g>
</svg>
