<?xml version="1.0" standalone="no"?>
<!DOCTYPE svg PUBLIC "-//W3C//DTD SVG 20010904//EN"
 "http://www.w3.org/TR/2001/REC-SVG-20010904/DTD/svg10.dtd">
<svg version="1.0" xmlns="http://www.w3.org/2000/svg"
 width="512.000000pt" height="512.000000pt" viewBox="0 0 512.000000 512.000000"
 preserveAspectRatio="xMidYMid meet">

<g transform="translate(0.000000,512.000000) scale(0.100000,-0.100000)"
fill="#000000" stroke="none">
<path d="M1329 4671 l-24 -19 -3 -565 -2 -565 -158 -4 c-147 -3 -161 -5 -219
-32 -103 -47 -178 -141 -202 -254 -8 -37 -11 -364 -11 -1102 l0 -1050 -111 0
c-61 0 -118 -4 -128 -10 -67 -35 -42 -222 50 -376 44 -73 142 -162 221 -202
131 -66 17 -62 1818 -62 1796 0 1685 -4 1816 60 77 37 179 131 223 204 92 154
117 341 50 376 -10 6 -67 10 -128 10 l-110 0 -3 1078 -3 1077 -23 57 c-32 80
-99 150 -180 190 -65 32 -69 33 -224 37 l-158 3 0 310 0 310 -242 250 c-133
137 -256 261 -273 274 l-32 24 -960 0 c-931 0 -962 -1 -984 -19z m1831 -365
c0 -118 3 -222 6 -231 15 -38 54 -45 274 -45 l210 0 0 -1250 0 -1250 -1090 0
-1090 0 0 1495 0 1495 845 0 845 0 0 -214z m270 -11 l95 -95 -98 0 -97 0 0 95
c0 52 1 95 3 95 1 0 45 -43 97 -95z m-2130 -1909 l0 -964 26 -31 26 -31 1206
0 c933 1 1211 3 1223 13 39 30 39 26 39 1016 l0 961 133 0 c106 0 140 -4 172
-19 50 -22 91 -70 105 -120 7 -26 9 -389 8 -1082 l-3 -1044 -1675 0 -1675 0
-3 1030 c-1 711 1 1046 9 1083 13 62 48 108 104 133 32 15 66 19 173 19 l132
0 0 -964z m3195 -1515 c-33 -93 -84 -159 -163 -209 -103 -66 10 -62 -1772 -62
-1782 0 -1669 -4 -1772 62 -79 50 -130 116 -163 209 l-14 39 1949 0 1949 0
-14 -39z"/>
<path d="M1990 3695 l-124 -124 -47 44 c-36 33 -56 45 -79 45 -44 0 -80 -39
-80 -86 0 -32 10 -46 82 -120 75 -78 85 -84 122 -84 38 0 47 7 194 153 175
173 188 192 172 243 -13 40 -35 54 -82 54 -29 0 -48 -15 -158 -125z"/>
<path d="M2455 3657 c-21 -17 -27 -32 -27 -62 0 -30 6 -45 27 -62 l26 -23 464
0 464 0 27 24 c21 18 28 32 28 61 0 29 -7 43 -28 61 l-27 24 -464 0 -464 0
-26 -23z"/>
<path d="M1990 2945 l-124 -124 -47 44 c-36 33 -56 45 -79 45 -44 0 -80 -39
-80 -86 0 -34 9 -46 83 -121 76 -75 87 -83 122 -83 36 0 47 9 193 153 84 83
160 165 169 181 29 55 -10 116 -75 116 -35 0 -46 -9 -162 -125z"/>
<path d="M2455 2907 c-21 -17 -27 -32 -27 -62 0 -30 6 -45 27 -62 l26 -23 464
0 464 0 27 24 c21 18 28 32 28 61 0 29 -7 43 -28 61 l-27 24 -464 0 -464 0
-26 -23z"/>
<path d="M1990 2195 l-124 -124 -47 44 c-36 33 -56 45 -79 45 -44 0 -80 -39
-80 -86 0 -34 9 -46 83 -121 76 -75 87 -83 122 -83 36 0 47 9 193 153 84 83
160 165 169 181 29 55 -10 116 -75 116 -35 0 -46 -9 -162 -125z"/>
<path d="M2456 2158 c-38 -35 -39 -86 -1 -123 l24 -25 465 0 465 0 27 24 c21
18 28 32 28 61 0 29 -7 43 -28 61 l-27 24 -464 0 -464 0 -25 -22z"/>
</g>
</svg>
