<svg width="206" height="206" viewBox="0 0 206 206" fill="none" xmlns="http://www.w3.org/2000/svg">
<path d="M103.168 205.211H102.718C46.4818 205.211 0.728516 159.444 0.728516 103.191V102.741C0.728516 46.4881 46.4818 0.721313 102.718 0.721313H103.168C159.405 0.721313 205.158 46.4881 205.158 102.741V103.191C205.158 159.444 159.405 205.211 103.168 205.211ZM102.718 7.64307C50.2946 7.64307 7.64824 50.302 7.64824 102.741V103.191C7.64824 155.63 50.2946 198.289 102.718 198.289H103.168C155.592 198.289 198.238 155.63 198.238 103.191V102.741C198.238 50.302 155.592 7.64307 103.168 7.64307H102.718Z" fill="white"/>
<path d="M51.291 69.849C48.6892 67.4333 47.3953 64.4431 47.3953 60.8853C47.3953 57.3276 48.6962 54.2057 51.291 51.7831C53.8929 49.3674 57.242 48.1561 61.3454 48.1561C65.4488 48.1561 68.6665 49.3674 71.2614 51.7831C73.8633 54.1988 75.1572 57.2376 75.1572 60.8853C75.1572 64.5331 73.8563 67.4333 71.2614 69.849C68.6596 72.2647 65.3589 73.476 61.3454 73.476C57.332 73.476 53.8929 72.2647 51.291 69.849ZM72.9706 83.7064V157.769H49.575V83.7064H72.9706Z" fill="white"/>
<path d="M150.852 91.0225C155.952 96.56 158.498 104.16 158.498 113.837V156.461H136.279V116.841C136.279 111.961 135.013 108.168 132.487 105.468C129.962 102.769 126.557 101.412 122.294 101.412C118.032 101.412 114.627 102.762 112.102 105.468C109.576 108.168 108.31 111.961 108.31 116.841V156.461H85.959V83.4987H108.31V93.1753C110.572 89.9497 113.624 87.4025 117.458 85.5267C121.291 83.6509 125.602 82.7164 130.397 82.7164C138.936 82.7164 145.759 85.4851 150.852 91.0225Z" fill="white"/>
</svg>
