<svg xmlns="http://www.w3.org/2000/svg" version="1.0" width="512.000000pt" height="512.000000pt" viewBox="0 0 512.000000 512.000000" preserveAspectRatio="xMidYMid meet">

<g transform="translate(0.000000,512.000000) scale(0.100000,-0.100000)" fill="#0028ff" stroke="none">
<path d="M2008 4366 c-80 -22 -143 -77 -184 -161 -23 -48 -24 -59 -24 -252 l0 -203 -467 0 c-258 0 -501 -5 -541 -10 -166 -22 -302 -135 -346 -291 -15 -49 -16 -179 -14 -1230 l3 -1174 32 -66 c57 -117 173 -204 303 -229 73 -14 3507 -14 3580 0 130 25 242 110 301 228 l34 67 3 1174 c3 1297 6 1231 -60 1334 -66 104 -174 170 -302 187 -39 5 -281 10 -538 10 l-468 0 0 203 c0 192 -1 205 -24 253 -29 63 -85 120 -145 148 -45 20 -59 21 -571 23 -401 2 -536 -1 -572 -11z m1089 -166 c63 -38 68 -54 71 -262 l4 -188 -612 0 -612 0 4 188 c3 208 8 224 71 262 31 19 54 20 537 20 483 0 506 -1 537 -20z m-2147 -1955 l0 -1345 -73 0 c-129 0 -213 46 -265 144 l-27 51 -3 1109 c-2 737 1 1127 8 1165 15 79 55 139 119 178 59 35 76 39 174 42 l67 1 0 -1345z m3060 0 l0 -1345 -1450 0 -1450 0 0 1345 0 1345 1450 0 1450 0 0 -1345z m390 1309 c57 -31 101 -82 122 -142 10 -30 13 -266 13 -1177 l0 -1140 -27 -51 c-52 -98 -136 -144 -265 -144 l-73 0 0 1346 0 1347 89 -5 c73 -4 98 -10 141 -34z" fill="#0028ff"/>
<path d="M2460 3039 c-60 -27 -107 -74 -136 -134 -22 -47 -24 -62 -24 -227 l0 -178 -177 0 c-166 0 -181 -2 -228 -24 -166 -78 -206 -284 -82 -415 18 -18 55 -44 82 -57 47 -22 62 -24 228 -24 l177 0 0 -177 c0 -198 9 -234 73 -302 128 -134 348 -94 426 79 18 40 21 66 21 223 l0 177 178 0 c165 0 180 2 227 24 28 13 64 39 82 57 124 131 84 337 -82 415 -47 22 -62 24 -227 24 l-178 0 0 178 c0 165 -2 180 -24 227 -45 95 -136 155 -236 155 -34 0 -72 -8 -100 -21z m167 -163 l28 -24 5 -231 c5 -223 6 -231 28 -253 22 -22 30 -23 253 -28 l231 -5 24 -28 c16 -19 24 -40 24 -67 0 -27 -8 -48 -24 -67 l-24 -28 -231 -5 c-223 -5 -231 -6 -253 -28 -22 -22 -23 -30 -28 -253 l-5 -231 -28 -24 c-38 -33 -96 -33 -134 0 l-28 24 -5 231 c-5 223 -6 231 -28 253 -22 22 -30 23 -253 28 l-231 5 -24 28 c-16 19 -24 40 -24 67 0 27 8 48 24 67 l24 28 231 5 c223 5 231 6 253 28 22 22 23 30 28 253 l5 231 28 24 c19 16 40 24 67 24 27 0 48 -8 67 -24z" fill="#0028ff"/>
</g>
</svg>