<svg xmlns="http://www.w3.org/2000/svg" version="1.0" width="512.000000pt" height="512.000000pt" viewBox="0 0 512.000000 512.000000" preserveAspectRatio="xMidYMid meet">

<g transform="translate(0.000000,512.000000) scale(0.100000,-0.100000)" fill="#0026ff" stroke="none">
<path d="M595 4706 c-91 -29 -162 -83 -214 -164 -64 -100 -61 -26 -61 -1557 0 -1520 -3 -1440 57 -1542 43 -74 131 -142 228 -176 20 -8 274 -13 751 -17 l721 -5 -89 -210 c-49 -116 -113 -269 -144 -342 l-55 -131 -171 -4 -170 -3 -24 -28 c-29 -34 -31 -66 -3 -101 l20 -26 1119 0 1119 0 20 26 c28 35 26 67 -3 101 l-24 28 -170 3 -171 4 -70 166 c-39 92 -104 246 -144 342 l-74 175 721 5 c477 4 731 9 751 17 98 34 185 102 229 178 58 99 56 36 56 1545 0 877 -4 1401 -10 1428 -27 115 -104 213 -208 264 l-67 33 -1940 2 c-1545 1 -1948 -1 -1980 -11z m3910 -165 c51 -23 111 -89 124 -138 7 -26 11 -388 11 -1120 l0 -1083 -2080 0 -2080 0 0 1083 c0 732 4 1094 11 1120 13 49 73 115 124 138 38 18 123 19 1945 19 1822 0 1907 -1 1945 -19z m133 -2733 c-3 -198 -6 -238 -20 -264 -24 -44 -70 -88 -115 -110 -37 -18 -95 -19 -1913 -22 -1294 -2 -1890 1 -1925 8 -66 14 -120 53 -153 109 -27 46 -27 47 -30 279 l-3 232 2081 0 2081 0 -3 -232z m-1740 -630 c17 -40 82 -196 145 -345 l115 -273 -598 0 -598 0 100 238 c54 130 120 285 145 345 l45 107 308 0 308 0 30 -72z" fill="#0026ff"/>
<path d="M1438 4150 c-248 -42 -482 -231 -582 -469 -64 -150 -75 -325 -32 -492 68 -267 236 -451 496 -541 91 -31 101 -32 250 -33 178 0 243 15 385 88 101 53 235 181 289 278 70 127 106 267 106 413 0 120 -26 224 -87 346 -40 80 -62 110 -138 185 -127 127 -243 190 -401 221 -81 15 -209 17 -286 4z m304 -176 c195 -50 353 -199 418 -394 30 -91 38 -253 16 -340 -55 -217 -222 -391 -441 -456 -42 -13 -92 -18 -165 -18 -90 0 -117 5 -190 30 -47 17 -111 47 -142 68 -121 80 -227 226 -263 362 -22 84 -20 222 4 317 29 111 74 191 156 273 155 157 383 216 607 158z" fill="#0026ff"/>
<path d="M1402 3787 c-19 -20 -22 -35 -22 -115 l0 -92 -91 0 c-87 0 -92 -1 -120 -29 l-29 -29 0 -141 c0 -133 1 -141 24 -167 22 -26 29 -28 120 -32 l96 -4 0 -90 c0 -81 2 -91 25 -113 23 -24 28 -25 170 -25 142 0 147 1 170 25 23 22 25 32 25 115 l0 90 75 0 c91 0 141 18 156 57 6 16 9 83 7 161 -3 132 -3 134 -31 158 -25 21 -37 24 -118 24 l-89 0 0 93 c0 85 -2 96 -23 115 -22 21 -33 22 -173 22 -144 0 -151 -1 -172 -23z m208 -217 c0 -84 15 -132 45 -144 9 -3 57 -6 106 -6 l90 0 -3 -37 -3 -38 -97 -3 c-91 -3 -98 -4 -118 -29 -17 -21 -20 -40 -20 -114 l0 -89 -34 0 -34 0 -4 95 c-4 125 -8 128 -136 135 l-97 5 -3 38 -3 37 93 0 c131 1 148 18 148 149 l0 81 35 0 35 0 0 -80z" fill="#0026ff"/>
<path d="M2622 4037 c-42 -45 -20 -117 40 -132 13 -3 382 -4 821 -3 l799 3 19 24 c26 32 25 82 -4 109 l-23 22 -815 0 -816 0 -21 -23z" fill="#0026ff"/>
<path d="M2622 3477 c-37 -39 -28 -98 19 -122 42 -22 1596 -22 1638 0 48 24 57 87 18 123 l-23 22 -815 0 -816 0 -21 -23z" fill="#0026ff"/>
<path d="M2622 2917 c-40 -43 -25 -107 29 -126 45 -15 1573 -15 1618 0 17 6 36 19 41 29 16 31 11 79 -10 100 -20 20 -33 20 -838 20 l-819 0 -21 -23z" fill="#0026ff"/>
<path d="M2520 1950 c-108 -20 -180 -110 -180 -222 1 -69 27 -125 80 -170 142 -122 359 -20 360 170 0 143 -122 248 -260 222z m65 -162 c46 -21 48 -93 3 -118 -25 -13 -31 -13 -55 0 -29 16 -39 45 -29 84 4 18 26 36 53 45 1 1 14 -4 28 -11z" fill="#0026ff"/>
</g>
</svg>