<svg xmlns="http://www.w3.org/2000/svg" version="1.0" width="512.000000pt" height="512.000000pt" viewBox="0 0 512.000000 512.000000" preserveAspectRatio="xMidYMid meet">

<g transform="translate(0.000000,512.000000) scale(0.100000,-0.100000)" fill="#ffffff" stroke="none">
<path d="M831 4969 c-97 -16 -180 -81 -223 -174 -22 -48 -23 -59 -23 -330 0 -252 2 -285 19 -330 25 -65 94 -137 159 -166 49 -22 67 -24 308 -29 l255 -5 180 -165 c224 -207 240 -220 269 -220 14 0 32 11 44 26 19 25 21 40 21 194 l0 167 71 6 c91 8 165 43 218 103 68 78 72 102 69 430 -3 280 -4 290 -26 334 -49 93 -124 145 -235 161 -80 11 -1035 10 -1106 -2z m1160 -152 c18 -12 44 -38 56 -56 22 -33 23 -40 23 -298 0 -282 -2 -293 -52 -340 -41 -39 -91 -53 -185 -53 -48 0 -95 -5 -103 -10 -12 -7 -16 -40 -20 -151 l-5 -142 -165 151 -165 151 -255 1 c-279 2 -300 5 -354 58 -50 49 -56 84 -56 336 0 272 8 304 95 357 28 18 62 19 591 19 l561 0 34 -23z" fill="#ffffff"/>
<path d="M977 4502 c-21 -23 -22 -62 -3 -87 16 -22 76 -26 100 -6 19 16 22 81 4 99 -19 19 -82 15 -101 -6z" fill="#ffffff"/>
<path d="M1346 4504 c-21 -20 -21 -78 0 -95 24 -20 84 -16 100 6 20 26 17 69 -4 88 -23 21 -76 22 -96 1z" fill="#ffffff"/>
<path d="M1704 4494 c-36 -54 25 -120 83 -92 38 18 51 59 29 92 -13 21 -25 26 -56 26 -31 0 -43 -5 -56 -26z" fill="#ffffff"/>
<path d="M3750 4951 c-98 -31 -163 -72 -235 -145 -82 -83 -118 -145 -145 -252 -25 -98 -25 -180 0 -278 26 -102 69 -176 149 -257 213 -214 564 -214 781 -1 106 105 170 254 170 397 0 245 -169 468 -409 539 -75 22 -238 21 -311 -3z m342 -150 c169 -84 269 -271 240 -447 -23 -141 -110 -257 -240 -321 -73 -37 -80 -38 -181 -38 -98 0 -111 2 -174 32 -178 84 -282 275 -249 455 29 158 134 283 283 338 44 17 73 20 154 17 90 -2 107 -6 167 -36z" fill="#ffffff"/>
<path d="M3443 3535 c-131 -29 -187 -69 -436 -314 l-227 -225 -178 177 c-213 211 -246 231 -370 225 -90 -4 -139 -25 -195 -81 -56 -56 -80 -117 -80 -203 0 -122 11 -138 350 -476 337 -336 345 -342 473 -342 119 0 147 17 347 217 l173 171 0 -484 c0 -267 4 -490 8 -496 22 -33 48 -34 834 -34 693 0 786 2 806 16 l22 15 0 722 c0 784 0 778 -56 889 -56 110 -184 203 -313 228 -85 16 -1080 12 -1158 -5z m234 -278 l52 -163 -35 -315 -36 -314 100 -207 c149 -308 155 -307 304 3 l99 207 -35 312 -36 311 52 165 52 165 196 -3 c186 -3 197 -4 251 -29 76 -36 133 -90 166 -157 l28 -57 3 -687 3 -688 -161 0 -160 0 0 535 c0 522 0 535 -20 555 -24 24 -57 26 -88 4 l-22 -15 0 -540 0 -539 -480 0 -480 0 0 535 c0 522 0 535 -20 555 -45 45 -58 35 -309 -214 -197 -195 -243 -236 -278 -247 -87 -25 -97 -18 -416 299 -159 158 -296 301 -304 317 -36 67 -11 157 57 202 41 28 123 31 160 7 14 -10 117 -109 231 -220 150 -149 211 -204 229 -204 17 0 92 68 284 258 205 203 273 264 316 285 63 31 121 44 195 46 l50 1 52 -163z m373 156 c0 -5 -16 -61 -36 -125 l-38 -118 -66 0 -65 0 -42 125 -41 125 144 0 c79 0 144 -3 144 -7z m-54 -645 l30 -273 -55 -117 c-30 -65 -58 -118 -61 -118 -4 0 -32 53 -62 118 l-55 118 30 272 31 272 56 0 55 0 31 -272z" fill="#ffffff"/>
<path d="M1081 2764 c-150 -40 -286 -164 -341 -311 -108 -290 48 -602 344 -688 132 -39 304 -13 422 63 276 179 316 576 80 807 -66 64 -141 108 -227 130 -69 19 -208 18 -278 -1z m312 -152 c77 -38 143 -106 184 -190 25 -51 28 -68 28 -157 0 -88 -3 -107 -27 -157 -115 -245 -434 -307 -623 -120 -63 61 -93 117 -111 202 -38 184 60 359 245 437 48 20 69 23 147 20 79 -2 100 -7 157 -35z" fill="#ffffff"/>
<path d="M753 1530 c-260 -33 -490 -221 -573 -469 -31 -94 -42 -252 -38 -583 3 -270 5 -299 21 -315 17 -17 74 -18 1030 -21 557 -2 1026 0 1044 3 65 12 63 -1 63 406 0 419 -5 458 -70 594 -71 146 -177 251 -325 321 -139 66 -144 67 -635 70 -245 1 -477 -2 -517 -6z m230 -265 c104 -132 106 -135 77 -135 -55 0 -60 -20 -60 -255 0 -174 3 -214 16 -233 15 -21 20 -22 203 -22 146 0 191 3 207 14 18 14 19 28 19 240 0 157 -3 228 -12 237 -6 6 -25 14 -42 18 l-31 6 106 133 106 132 63 0 c187 0 383 -128 476 -312 53 -105 59 -152 59 -495 l0 -313 -170 0 -170 0 0 305 0 306 -25 24 c-28 29 -51 31 -83 9 -22 -15 -22 -16 -22 -330 l0 -314 -475 0 -475 0 0 308 c0 169 -4 312 -8 318 -10 15 -47 34 -66 34 -9 0 -25 -9 -36 -20 -19 -19 -20 -33 -20 -330 l0 -310 -170 0 -170 0 0 323 c0 354 3 378 61 496 39 79 150 193 229 236 75 40 162 63 241 64 l65 1 107 -135z m385 93 c-19 -24 -58 -73 -88 -110 -29 -38 -55 -68 -57 -68 -2 0 -115 141 -166 208 -7 9 28 12 168 12 l177 0 -34 -42z m-58 -483 l0 -125 -90 0 -90 0 0 125 0 125 90 0 90 0 0 -125z" fill="#ffffff"/>
</g>
</svg>