<?xml version="1.0" standalone="no"?>
<!DOCTYPE svg PUBLIC "-//W3C//DTD SVG 20010904//EN"
 "http://www.w3.org/TR/2001/REC-SVG-20010904/DTD/svg10.dtd">
<svg version="1.0" xmlns="http://www.w3.org/2000/svg"
 width="512.000000pt" height="512.000000pt" viewBox="0 0 512.000000 512.000000"
 preserveAspectRatio="xMidYMid meet">

<g transform="translate(0.000000,512.000000) scale(0.100000,-0.100000)"
fill="#283380" stroke="none">
<path d="M3287 5109 c-862 -100 -1505 -852 -1464 -1709 21 -419 183 -792 472
-1084 644 -653 1686 -660 2334 -16 247 245 403 542 468 893 21 115 24 417 5
527 -90 516 -380 932 -825 1188 -286 163 -661 240 -990 201z m443 -314 c168
-34 349 -110 500 -210 114 -75 285 -251 364 -372 156 -239 221 -456 221 -743
0 -119 -5 -189 -18 -250 -59 -284 -179 -506 -381 -705 -201 -199 -415 -313
-696 -372 -118 -24 -382 -24 -500 0 -283 59 -502 178 -705 381 -198 199 -313
415 -372 696 -24 118 -24 382 0 500 59 281 174 496 372 696 225 227 493 358
815 398 67 8 326 -4 400 -19z"/>
<path d="M3398 4499 c-60 -31 -78 -78 -78 -201 l0 -103 -52 -24 c-65 -30 -166
-129 -197 -194 -89 -185 -58 -381 84 -522 83 -84 201 -135 311 -135 80 0 154
-72 154 -150 0 -50 -35 -107 -80 -130 -77 -39 -153 -17 -249 75 -35 33 -74 60
-95 66 -108 30 -211 -80 -177 -191 16 -55 139 -168 229 -211 l71 -34 0 -103
c1 -125 19 -171 81 -202 50 -25 90 -25 140 0 62 32 80 77 80 202 l0 103 53 24
c64 30 163 128 196 194 89 184 58 381 -84 523 -84 84 -200 134 -312 134 -78 0
-153 74 -153 152 0 75 74 148 150 148 45 0 104 -27 157 -73 71 -59 145 -61
208 -6 42 37 58 88 45 144 -12 53 -96 132 -189 177 l-70 33 0 103 c-1 125 -19
171 -81 202 -49 25 -94 25 -142 -1z"/>
<path d="M1656 2160 c-163 -26 -340 -99 -459 -189 l-65 -49 -59 57 c-32 31
-79 67 -106 80 -98 47 -130 51 -500 51 -329 0 -350 -1 -387 -20 -26 -13 -47
-34 -60 -60 -20 -38 -20 -57 -20 -975 0 -918 0 -937 20 -975 13 -26 34 -47 60
-60 37 -19 58 -20 379 -20 212 0 360 4 393 11 71 15 150 55 204 102 l44 38
162 -40 c198 -50 418 -87 597 -101 78 -6 464 -10 912 -10 830 0 865 2 1019 51
84 27 201 85 281 140 120 80 204 179 571 676 454 613 426 572 450 640 91 254
-52 519 -317 588 -75 19 -145 19 -220 0 -108 -28 -153 -65 -373 -300 -113
-121 -222 -237 -242 -259 l-38 -39 -28 59 c-35 72 -131 172 -197 203 -100 48
-126 51 -552 51 -508 0 -483 -5 -685 148 -176 134 -370 201 -595 207 -71 2
-157 0 -189 -5z m349 -315 c96 -26 196 -80 291 -155 49 -38 121 -85 159 -104
137 -68 144 -69 625 -75 489 -7 482 -6 520 -81 26 -51 25 -93 -2 -142 -43 -76
-13 -72 -670 -78 -573 -5 -587 -5 -614 -26 -50 -37 -68 -70 -68 -124 0 -54 18
-87 68 -124 27 -21 39 -21 654 -24 642 -3 699 0 780 36 84 38 128 80 468 446
196 209 370 389 387 399 120 66 264 -73 201 -194 -31 -61 -754 -1026 -811
-1082 -78 -78 -178 -139 -293 -179 l-95 -33 -860 0 c-996 0 -1013 1 -1387 91
l-148 36 0 581 0 582 71 60 c136 116 242 172 379 201 82 17 263 11 345 -11z
m-1175 -55 c26 -13 47 -34 60 -60 19 -38 20 -58 20 -675 0 -617 -1 -637 -20
-675 -13 -26 -34 -47 -60 -60 -36 -18 -58 -20 -285 -20 l-245 0 0 755 0 755
245 0 c227 0 249 -2 285 -20z"/>
</g>
</svg>
