<?xml version="1.0" encoding="UTF-8"?>
<!DOCTYPE svg PUBLIC "-//W3C//DTD SVG 1.1//EN" "http://www.w3.org/Graphics/SVG/1.1/DTD/svg11.dtd">
<svg xmlns="http://www.w3.org/2000/svg" version="1.1" width="512px" height="512px" style="shape-rendering:geometricPrecision; text-rendering:geometricPrecision; image-rendering:optimizeQuality; fill-rule:evenodd; clip-rule:evenodd" xmlns:xlink="http://www.w3.org/1999/xlink">
<g><path style="opacity:0.918" fill="#000000" d="M 95.5,94.5 C 193.834,94.3333 292.167,94.5 390.5,95C 393.333,96.5 395.5,98.6667 397,101.5C 397.5,144.165 397.667,186.832 397.5,229.5C 433.042,225.01 457.208,239.343 470,272.5C 476.111,299.677 468.278,321.677 446.5,338.5C 445.5,364.825 445.167,391.158 445.5,417.5C 439.491,417.666 433.491,417.499 427.5,417C 421.985,411.652 416.652,406.152 411.5,400.5C 405.681,405.818 400.015,411.318 394.5,417C 388.509,417.499 382.509,417.666 376.5,417.5C 376.203,413.233 376.536,409.066 377.5,405C 268.833,404.667 160.167,404.333 51.5,404C 47.1918,402.701 43.6918,400.201 41,396.5C 40.3333,386.5 40.3333,376.5 41,366.5C 55.9514,346.547 71.2848,326.88 87,307.5C 87.3333,238.833 87.6667,170.167 88,101.5C 90.069,98.594 92.569,96.2607 95.5,94.5 Z M 100.5,107.5 C 194.833,107.5 289.167,107.5 383.5,107.5C 383.833,150.172 383.5,192.839 382.5,235.5C 357.342,250.823 347.009,273.157 351.5,302.5C 267.833,302.5 184.167,302.5 100.5,302.5C 100.5,237.5 100.5,172.5 100.5,107.5 Z M 241.5,155.5 C 259.138,163.889 276.804,172.389 294.5,181C 279.656,188.922 264.656,196.589 249.5,204C 246.649,205.608 243.649,206.274 240.5,206C 223.833,197.667 207.167,189.333 190.5,181C 207.84,172.997 224.84,164.497 241.5,155.5 Z M 208.5,206.5 C 220.036,211.36 231.369,216.694 242.5,222.5C 253.13,217.185 263.797,211.851 274.5,206.5C 275.497,213.803 275.831,221.137 275.5,228.5C 253.167,228.5 230.833,228.5 208.5,228.5C 208.5,221.167 208.5,213.833 208.5,206.5 Z M 404.5,242.5 C 436.537,241.704 454.537,257.204 458.5,289C 455.41,317.257 439.743,333.09 411.5,336.5C 382.573,333.74 366.906,317.906 364.5,289C 366.654,263.692 379.987,248.192 404.5,242.5 Z M 406.5,269.5 C 421.168,268.01 429.501,274.51 431.5,289C 430.071,300.929 423.404,307.763 411.5,309.5C 393.568,305.304 388.068,294.637 395,277.5C 398.195,273.673 402.029,271.007 406.5,269.5 Z M 97.5,316.5 C 183.834,316.333 270.167,316.5 356.5,317C 362.081,325.916 369.081,333.583 377.5,340C 376.167,347.667 376.167,355.333 377.5,363C 342.833,363.333 308.167,363.667 273.5,364C 271.461,366.374 269.128,368.374 266.5,370C 250.5,370.667 234.5,370.667 218.5,370C 216.5,368 214.5,366 212.5,364C 162.167,363.667 111.833,363.333 61.5,363C 73.7152,347.624 85.7152,332.124 97.5,316.5 Z M 430.5,399.5 C 423.869,393.369 417.369,387.036 411,380.5C 404.667,386.833 398.333,393.167 392,399.5C 391.826,381.926 391.326,364.426 390.5,347C 397.146,348.67 403.979,349.837 411,350.5C 418.06,349.952 424.893,348.786 431.5,347C 430.508,364.423 430.175,381.923 430.5,399.5 Z M 53.5,377.5 C 104.501,377.333 155.501,377.5 206.5,378C 208.5,380 210.5,382 212.5,384C 232.5,384.667 252.5,384.667 272.5,384C 274.5,382 276.5,380 278.5,378C 311.5,377.333 344.5,377.333 377.5,378C 376.167,382 376.167,386 377.5,390C 269.501,390.5 161.501,390.667 53.5,390.5C 53.5,386.167 53.5,381.833 53.5,377.5 Z"/></g>
<g><path style="opacity:0.914" fill="#000000" d="M 114.5,120.5 C 199.833,120.5 285.167,120.5 370.5,120.5C 370.5,158.833 370.5,197.167 370.5,235.5C 365.833,235.5 361.167,235.5 356.5,235.5C 356.5,201.833 356.5,168.167 356.5,134.5C 280.167,134.5 203.833,134.5 127.5,134.5C 127.5,181.5 127.5,228.5 127.5,275.5C 197.833,275.5 268.167,275.5 338.5,275.5C 338.5,280.167 338.5,284.833 338.5,289.5C 263.833,289.5 189.167,289.5 114.5,289.5C 114.5,233.167 114.5,176.833 114.5,120.5 Z M 241.5,155.5 C 224.84,164.497 207.84,172.997 190.5,181C 207.167,189.333 223.833,197.667 240.5,206C 243.649,206.274 246.649,205.608 249.5,204C 264.656,196.589 279.656,188.922 294.5,181C 276.804,172.389 259.138,163.889 241.5,155.5 Z M 208.5,206.5 C 208.5,213.833 208.5,221.167 208.5,228.5C 230.833,228.5 253.167,228.5 275.5,228.5C 275.831,221.137 275.497,213.803 274.5,206.5C 263.797,211.851 253.13,217.185 242.5,222.5C 231.369,216.694 220.036,211.36 208.5,206.5 Z"/></g>
<g><path style="opacity:0.897" fill="#000000" d="M 242.5,139.5 C 267.572,151.786 292.405,164.452 317,177.5C 317.667,194.5 317.667,211.5 317,228.5C 312.263,229.469 307.43,229.803 302.5,229.5C 302.667,217.162 302.5,204.829 302,192.5C 297.626,194.628 293.46,197.128 289.5,200C 290.895,211.141 290.728,222.308 289,233.5C 287.5,237.667 284.667,240.5 280.5,242C 255.5,242.667 230.5,242.667 205.5,242C 199.902,240.069 196.402,236.236 195,230.5C 194.667,219.833 194.333,209.167 194,198.5C 182.683,193.118 171.517,187.451 160.5,181.5C 187.86,167.487 215.193,153.487 242.5,139.5 Z M 241.5,155.5 C 224.84,164.497 207.84,172.997 190.5,181C 207.167,189.333 223.833,197.667 240.5,206C 243.649,206.274 246.649,205.608 249.5,204C 264.656,196.589 279.656,188.922 294.5,181C 276.804,172.389 259.138,163.889 241.5,155.5 Z M 208.5,206.5 C 208.5,213.833 208.5,221.167 208.5,228.5C 230.833,228.5 253.167,228.5 275.5,228.5C 275.831,221.137 275.497,213.803 274.5,206.5C 263.797,211.851 253.13,217.185 242.5,222.5C 231.369,216.694 220.036,211.36 208.5,206.5 Z"/></g>
<g><path style="opacity:0.82" fill="#000000" d="M 208.5,255.5 C 213.5,255.5 218.5,255.5 223.5,255.5C 223.5,260.167 223.5,264.833 223.5,269.5C 218.5,269.5 213.5,269.5 208.5,269.5C 208.5,264.833 208.5,260.167 208.5,255.5 Z"/></g>
<g><path style="opacity:0.82" fill="#000000" d="M 235.5,255.5 C 240.5,255.5 245.5,255.5 250.5,255.5C 250.5,260.167 250.5,264.833 250.5,269.5C 245.5,269.5 240.5,269.5 235.5,269.5C 235.5,264.833 235.5,260.167 235.5,255.5 Z"/></g>
<g><path style="opacity:0.82" fill="#000000" d="M 262.5,255.5 C 267.5,255.5 272.5,255.5 277.5,255.5C 277.5,260.167 277.5,264.833 277.5,269.5C 272.5,269.5 267.5,269.5 262.5,269.5C 262.5,264.833 262.5,260.167 262.5,255.5 Z"/></g>
<g><path style="opacity:0.9" fill="#000000" d="M 404.5,255.5 C 432.116,254.616 445.616,267.949 445,295.5C 437.476,317.672 422.31,326.172 399.5,321C 383.676,313.524 376.509,301.024 378,283.5C 381.274,268.73 390.107,259.397 404.5,255.5 Z M 406.5,269.5 C 402.029,271.007 398.195,273.673 395,277.5C 388.068,294.637 393.568,305.304 411.5,309.5C 423.404,307.763 430.071,300.929 431.5,289C 429.501,274.51 421.168,268.01 406.5,269.5 Z"/></g>
</svg>
