<svg xmlns="http://www.w3.org/2000/svg" version="1.0" width="512.000000pt" height="512.000000pt" viewBox="0 0 512.000000 512.000000" preserveAspectRatio="xMidYMid meet">

<g transform="translate(0.000000,512.000000) scale(0.100000,-0.100000)" fill="#0027ff" stroke="none">
<path d="M2404 4975 c-12 -8 -31 -41 -44 -74 -19 -53 -26 -62 -59 -72 -20 -6 -53 -20 -75 -31 l-38 -20 -61 27 c-40 17 -70 24 -87 20 -37 -8 -220 -195 -220 -224 0 -12 11 -49 25 -81 25 -60 25 -60 7 -98 -11 -20 -25 -53 -31 -73 -10 -33 -19 -40 -72 -59 -86 -33 -89 -39 -89 -203 0 -159 4 -169 95 -201 48 -18 51 -21 83 -96 l32 -77 -25 -54 c-39 -85 -38 -90 78 -206 116 -115 122 -118 206 -79 l52 24 78 -32 c77 -30 79 -32 97 -81 33 -91 42 -95 204 -95 162 0 171 4 204 95 18 49 20 51 97 81 l78 32 52 -24 c84 -39 90 -36 206 79 116 116 117 121 78 206 l-25 54 32 77 c32 75 35 78 83 96 91 32 95 42 95 201 0 164 -3 170 -89 203 -53 19 -62 26 -72 59 -6 20 -20 53 -31 73 -18 38 -18 38 7 98 14 32 25 69 25 81 0 29 -183 216 -220 224 -17 4 -47 -3 -87 -20 l-61 -27 -38 20 c-22 11 -55 25 -75 31 -33 10 -40 19 -59 72 -32 86 -40 89 -200 89 -103 0 -141 -4 -156 -15z m232 -195 c22 -62 34 -73 104 -95 30 -10 81 -31 112 -46 69 -35 81 -35 143 -8 l48 21 40 -40 40 -40 -21 -51 c-12 -27 -22 -57 -22 -66 0 -8 15 -46 34 -83 19 -37 39 -88 46 -112 15 -59 32 -76 91 -95 l49 -17 0 -58 0 -58 -55 -22 c-62 -25 -64 -28 -95 -120 -12 -35 -33 -83 -46 -105 -29 -51 -30 -69 -3 -130 l21 -48 -40 -40 -40 -40 -51 21 c-64 28 -71 28 -134 -7 -28 -16 -83 -39 -121 -51 -68 -22 -69 -23 -95 -81 l-26 -59 -55 0 -55 0 -26 59 c-26 58 -27 59 -95 81 -38 12 -94 36 -124 51 -66 35 -68 35 -131 7 l-51 -21 -40 40 -40 40 21 48 c27 61 26 79 -3 130 -13 22 -34 70 -46 105 -31 92 -33 95 -95 120 l-55 22 0 58 0 58 49 17 c59 19 76 36 91 95 7 24 27 75 46 112 19 37 34 75 34 83 0 9 -10 39 -22 66 l-21 51 40 40 40 40 48 -21 c62 -27 74 -27 143 8 31 15 82 36 112 46 70 22 82 33 104 95 l18 50 58 0 58 0 18 -50z" fill="#0027ff"/>
<path d="M2480 4549 c-227 -37 -411 -276 -386 -501 25 -217 181 -383 394 -420 315 -54 600 247 528 556 -45 191 -197 335 -386 365 -73 12 -74 12 -150 0z m217 -190 c109 -52 167 -146 167 -269 0 -88 -22 -145 -79 -208 -117 -131 -333 -131 -450 0 -58 63 -79 120 -79 208 1 146 88 256 233 297 63 17 134 8 208 -28z" fill="#0027ff"/>
<path d="M778 4388 c-31 -24 -38 -67 -38 -224 0 -135 -3 -160 -20 -194 -30 -60 -73 -103 -171 -175 l-88 -65 -156 0 c-162 0 -205 -9 -219 -45 -3 -9 -6 -217 -6 -461 l0 -445 25 -24 c24 -24 27 -25 186 -25 158 0 162 0 191 -26 41 -34 122 -74 183 -90 72 -20 242 -17 380 6 81 13 169 20 269 20 132 0 155 2 194 21 76 37 126 145 104 224 -7 26 -4 34 24 63 38 39 59 106 51 164 -5 35 -2 44 19 61 74 58 89 190 31 271 -18 26 -22 44 -22 117 0 82 -2 89 -31 126 -16 21 -50 48 -74 61 -41 20 -57 22 -225 22 l-180 0 0 173 c0 166 -1 174 -27 230 -36 76 -114 157 -185 192 -68 33 -186 46 -215 23z m179 -187 c26 -19 51 -50 68 -84 25 -53 26 -61 23 -190 l-3 -134 -37 -48 c-45 -58 -47 -83 -12 -160 24 -52 25 -61 14 -99 -12 -41 -75 -110 -153 -169 -32 -24 -37 -34 -37 -67 0 -30 6 -43 26 -59 35 -27 58 -26 109 4 l42 24 22 -23 c18 -19 20 -27 11 -50 -16 -42 -12 -108 9 -149 19 -36 19 -38 -1 -74 -13 -27 -18 -53 -16 -91 3 -49 1 -53 -22 -60 -14 -4 -88 -7 -165 -7 -133 0 -143 1 -191 27 -91 48 -84 12 -84 437 l0 377 77 54 c111 80 187 160 225 238 32 63 33 72 36 199 2 73 7 133 11 133 5 0 26 -13 48 -29z m591 -600 c8 -5 12 -21 10 -37 l-3 -29 -174 -3 c-178 -3 -201 2 -201 37 0 37 20 41 190 41 91 0 171 -4 178 -9z m-1148 -371 l0 -340 -80 0 -80 0 0 340 0 340 80 0 80 0 0 -340z m1207 113 c13 -19 12 -24 -6 -42 -20 -20 -32 -21 -227 -21 -122 0 -213 4 -225 10 -21 12 -25 50 -7 68 9 9 69 12 231 10 213 -3 220 -4 234 -25z m-83 -245 c8 -13 8 -23 0 -35 -10 -16 -31 -18 -166 -21 -170 -3 -187 2 -174 53 l7 25 161 -2 c140 -3 162 -5 172 -20z m-72 -243 c21 -46 0 -55 -131 -55 -119 0 -141 6 -141 40 0 34 22 40 142 40 116 0 119 0 130 -25z" fill="#0027ff"/>
<path d="M4590 4220 c-18 -18 -25 -40 -21 -64 1 -5 -6 -6 -16 -3 -138 45 -199 59 -285 64 -375 22 -709 -206 -829 -567 -26 -79 -32 -115 -36 -215 -6 -138 7 -213 57 -342 49 -128 105 -171 167 -128 38 27 37 63 -2 149 -120 259 -71 549 125 745 129 130 258 189 435 198 82 5 116 2 184 -16 93 -23 103 -28 80 -42 -29 -16 -43 -64 -27 -96 23 -49 48 -54 195 -39 196 19 203 30 142 214 -23 68 -50 133 -60 143 -26 26 -83 25 -109 -1z" fill="#0027ff"/>
<path d="M4805 3825 c-32 -32 -31 -62 4 -132 52 -103 66 -166 65 -298 0 -104 -4 -130 -28 -200 -71 -204 -216 -350 -421 -421 -70 -25 -94 -28 -200 -28 -88 0 -137 4 -182 18 -35 10 -63 22 -63 26 0 4 9 15 20 25 36 32 22 107 -24 125 -32 12 -266 -9 -294 -27 -48 -30 -48 -51 -2 -188 23 -70 51 -136 61 -146 42 -42 129 -8 129 50 0 18 4 22 18 18 176 -58 185 -60 327 -61 166 -1 245 17 389 91 75 39 109 65 192 147 90 90 107 113 153 206 87 177 110 350 72 538 -21 102 -83 245 -115 268 -31 22 -74 17 -101 -11z" fill="#0027ff"/>
<path d="M4332 3528 c-92 -83 -184 -167 -204 -187 l-38 -35 -79 77 c-78 76 -101 88 -146 71 -18 -7 -45 -55 -45 -80 0 -9 53 -70 117 -136 138 -139 154 -145 226 -80 262 236 397 359 420 383 54 58 26 139 -48 139 -32 0 -54 -17 -203 -152z" fill="#0027ff"/>
<path d="M2506 3067 l-26 -26 0 -234 c0 -222 1 -236 21 -261 29 -37 89 -37 118 0 20 25 21 39 21 259 0 262 -2 270 -72 281 -30 5 -41 2 -62 -19z" fill="#0027ff"/>
<path d="M1419 2511 c-54 -54 -43 -74 153 -268 143 -142 157 -153 191 -153 49 0 77 28 77 77 0 35 -11 48 -168 205 -186 187 -198 193 -253 139z" fill="#0027ff"/>
<path d="M3448 2372 c-157 -157 -168 -170 -168 -205 0 -49 28 -77 77 -77 34 0 48 11 191 153 196 194 207 214 153 268 -55 54 -67 48 -253 -139z" fill="#0027ff"/>
<path d="M2462 2370 c-23 -11 -70 -40 -103 -65 -69 -54 -101 -65 -185 -65 -94 0 -161 -24 -215 -79 -47 -47 -52 -58 -95 -216 -14 -53 -25 -69 -94 -138 -94 -93 -114 -136 -108 -229 3 -49 14 -83 48 -151 l43 -88 -10 -100 c-12 -118 -6 -160 31 -224 25 -41 46 -60 131 -110 14 -9 7 -31 -70 -195 -129 -277 -136 -295 -125 -324 5 -14 21 -33 35 -42 24 -16 32 -16 123 -1 53 9 111 19 128 23 30 6 32 4 89 -95 77 -135 117 -165 171 -127 12 9 68 117 129 248 59 128 113 239 119 247 12 16 119 11 152 -7 13 -7 48 -76 98 -194 43 -101 87 -191 98 -201 23 -19 60 -22 88 -7 10 6 47 56 82 111 34 56 68 104 75 106 7 3 57 -4 111 -16 148 -32 179 -28 202 28 11 28 6 44 -79 242 -51 117 -88 215 -84 219 4 3 25 18 45 33 41 30 86 113 90 167 2 19 -1 77 -6 128 l-8 93 43 87 c33 67 44 101 47 150 6 93 -14 138 -108 230 -69 68 -80 84 -94 137 -39 144 -49 168 -84 207 -53 59 -107 79 -229 88 l-103 8 -72 52 c-40 29 -91 61 -113 71 -53 25 -138 24 -193 -1z m159 -163 c19 -13 57 -40 85 -60 58 -42 143 -67 225 -67 68 0 116 -15 130 -42 6 -12 20 -56 30 -100 26 -107 39 -130 130 -224 97 -100 99 -115 37 -237 -39 -76 -42 -88 -42 -162 0 -44 1 -109 3 -143 4 -79 -6 -91 -114 -138 -106 -46 -137 -72 -202 -169 -72 -109 -84 -114 -206 -79 -113 33 -161 33 -274 0 -122 -35 -134 -30 -206 79 -65 97 -96 123 -202 169 -108 47 -118 59 -114 138 2 34 3 99 3 143 0 74 -3 86 -42 162 -62 122 -60 137 37 237 91 94 104 117 130 224 10 44 24 88 30 100 14 27 62 42 130 42 104 0 169 25 295 115 57 41 90 44 137 12z m526 -1484 c28 -65 50 -120 48 -122 -2 -1 -35 3 -73 9 -98 18 -113 12 -162 -66 -23 -36 -45 -62 -49 -58 -10 12 -51 110 -51 122 0 6 10 12 23 16 32 8 102 70 128 114 32 54 69 102 78 102 4 0 30 -53 58 -117z m-971 -62 c21 -17 58 -37 82 -44 23 -6 42 -15 42 -20 0 -11 -81 -189 -91 -201 -4 -5 -22 17 -39 48 -43 76 -74 99 -122 92 -21 -3 -56 -9 -78 -12 -24 -4 -40 -3 -40 3 0 6 29 73 66 149 l65 138 38 -60 c21 -33 56 -75 77 -93z" fill="#0027ff"/>
<path d="M2405 2041 c-93 -26 -163 -69 -241 -146 -116 -114 -168 -240 -167 -405 2 -215 122 -405 316 -500 68 -33 177 -60 247 -60 178 0 362 98 463 247 159 232 132 521 -67 719 -115 115 -237 165 -402 163 -52 0 -114 -8 -149 -18z m328 -178 c201 -96 288 -333 194 -536 -74 -162 -262 -260 -434 -228 -259 48 -407 316 -307 558 23 56 85 134 132 166 22 16 67 40 99 53 50 21 71 24 153 22 83 -3 104 -7 163 -35z" fill="#0027ff"/>
<path d="M2728 1693 c-24 -21 -91 -82 -150 -135 -59 -54 -111 -98 -116 -98 -4 0 -30 23 -57 50 -42 42 -55 50 -86 50 -29 0 -43 -6 -58 -26 -37 -47 -29 -69 67 -166 94 -97 119 -113 156 -98 28 10 365 314 383 344 19 33 15 65 -12 91 -36 37 -76 33 -127 -12z" fill="#0027ff"/>
</g>
</svg>