<?xml version="1.0" encoding="UTF-8"?>
<!DOCTYPE svg PUBLIC "-//W3C//DTD SVG 1.1//EN" "http://www.w3.org/Graphics/SVG/1.1/DTD/svg11.dtd">
<svg xmlns="http://www.w3.org/2000/svg" version="1.1" width="512px" height="512px" style="shape-rendering:geometricPrecision; text-rendering:geometricPrecision; image-rendering:optimizeQuality; fill-rule:evenodd; clip-rule:evenodd" xmlns:xlink="http://www.w3.org/1999/xlink">
<g><path style="opacity:0.935" fill="#000000" d="M 240.5,45.5 C 283.765,41.0337 312.931,59.0337 328,99.5C 328.9,103.834 329.734,108.168 330.5,112.5C 370.501,112.333 410.501,112.5 450.5,113C 457.181,115.013 462.014,119.18 465,125.5C 465.667,234.833 465.667,344.167 465,453.5C 462.438,459.061 458.272,462.894 452.5,465C 321.167,465.667 189.833,465.667 58.5,465C 52.7284,462.894 48.5617,459.061 46,453.5C 45.3333,344.167 45.3333,234.833 46,125.5C 48.986,119.18 53.8193,115.013 60.5,113C 100.499,112.5 140.499,112.333 180.5,112.5C 186.456,77.5464 206.456,55.2131 240.5,45.5 Z M 249.5,59.5 C 284.381,59.1803 306.215,75.847 315,109.5C 317.886,145.586 302.052,168.753 267.5,179C 229.908,183.07 206.075,166.903 196,130.5C 192.836,97.3231 206.669,74.4898 237.5,62C 241.699,61.4723 245.699,60.6389 249.5,59.5 Z M 63.5,127.5 C 102.5,127.5 141.5,127.5 180.5,127.5C 188.346,169.01 213.346,191.676 255.5,195.5C 297.654,191.676 322.654,169.01 330.5,127.5C 369.501,127.333 408.501,127.5 447.5,128C 448.416,128.374 449.25,128.874 450,129.5C 451.493,200.751 451.993,272.084 451.5,343.5C 379.5,343.5 307.5,343.5 235.5,343.5C 235.667,324.497 235.5,305.497 235,286.5C 229.296,259.573 213.129,242.74 186.5,236C 201.2,221.521 205.367,204.354 199,184.5C 186.894,159.364 167.06,149.53 139.5,155C 115.274,164.612 104.107,182.446 106,208.5C 107.819,219.307 112.653,228.474 120.5,236C 93.264,243.237 77.0973,260.737 72,288.5C 71.5001,306.83 71.3334,325.164 71.5,343.5C 67.5,343.5 63.5,343.5 59.5,343.5C 59.3333,272.833 59.5,202.166 60,131.5C 60.6897,129.65 61.8564,128.316 63.5,127.5 Z M 152.5,167.5 C 173.12,169.286 184.787,180.453 187.5,201C 185.658,221.509 174.491,232.676 154,234.5C 133.744,232.744 122.577,221.744 120.5,201.5C 122.649,182.021 133.316,170.687 152.5,167.5 Z M 306.5,222.5 C 344.835,222.333 383.168,222.5 421.5,223C 422.701,223.903 423.535,225.069 424,226.5C 424.983,255.586 424.65,284.586 423,313.5C 422.5,314 422,314.5 421.5,315C 383.167,315.667 344.833,315.667 306.5,315C 305.299,314.097 304.465,312.931 304,311.5C 303.333,283.167 303.333,254.833 304,226.5C 304.662,225.016 305.496,223.683 306.5,222.5 Z M 127.5,249.5 C 130.833,249.5 134.167,249.5 137.5,249.5C 135.468,268.479 133.968,287.479 133,306.5C 139.681,313.348 146.514,320.015 153.5,326.5C 160.986,319.515 168.319,312.348 175.5,305C 173.283,286.598 171.617,268.098 170.5,249.5C 196.314,249.492 212.814,261.826 220,286.5C 221.358,305.471 221.858,324.471 221.5,343.5C 214.833,343.5 208.167,343.5 201.5,343.5C 201.5,320.833 201.5,298.167 201.5,275.5C 196.833,275.5 192.167,275.5 187.5,275.5C 187.5,298.167 187.5,320.833 187.5,343.5C 165.167,343.5 142.833,343.5 120.5,343.5C 120.5,320.833 120.5,298.167 120.5,275.5C 115.5,275.5 110.5,275.5 105.5,275.5C 105.5,298.167 105.5,320.833 105.5,343.5C 99.1667,343.5 92.8333,343.5 86.5,343.5C 86.3334,326.163 86.5001,308.83 87,291.5C 90.905,268.097 104.405,254.097 127.5,249.5 Z M 152.5,249.5 C 153.5,249.5 154.5,249.5 155.5,249.5C 156.352,265.202 157.685,280.868 159.5,296.5C 157.486,306.116 153.486,307.282 147.5,300C 149.585,283.253 151.251,266.42 152.5,249.5 Z M 59.5,357.5 C 190.167,357.5 320.833,357.5 451.5,357.5C 451.667,387.502 451.5,417.502 451,447.5C 450.5,449.333 449.333,450.5 447.5,451C 319.5,451.667 191.5,451.667 63.5,451C 61.6667,450.5 60.5,449.333 60,447.5C 59.5,417.502 59.3334,387.502 59.5,357.5 Z M 90.5,398.5 C 107.17,398.333 123.837,398.5 140.5,399C 139.54,402.73 139.207,406.563 139.5,410.5C 122.83,410.667 106.163,410.5 89.5,410C 85.3759,405.695 85.7092,401.862 90.5,398.5 Z M 207.5,399.5 C 278.332,398.335 349.332,398.168 420.5,399C 425.371,402.178 425.704,405.845 421.5,410C 350.501,410.5 279.501,410.667 208.5,410.5C 208.815,406.629 208.482,402.962 207.5,399.5 Z"/></g>
<g><path style="opacity:0.961" fill="#000000" d="M 220.5,82.5 C 221.251,81.4265 222.251,81.2599 223.5,82C 248.507,94.1695 273.174,106.836 297.5,120C 272.489,133.294 247.155,146.127 221.5,158.5C 221.82,133.271 221.487,107.937 220.5,82.5 Z"/></g>
<g><path style="opacity:0.819" fill="#000000" d="M 71.5,139.5 C 76.5,139.5 81.5,139.5 86.5,139.5C 86.5,144.5 86.5,149.5 86.5,154.5C 81.5,154.5 76.5,154.5 71.5,154.5C 71.5,149.5 71.5,144.5 71.5,139.5 Z"/></g>
<g><path style="opacity:0.819" fill="#000000" d="M 71.5,166.5 C 76.5,166.5 81.5,166.5 86.5,166.5C 86.5,171.5 86.5,176.5 86.5,181.5C 81.5,181.5 76.5,181.5 71.5,181.5C 71.5,176.5 71.5,171.5 71.5,166.5 Z"/></g>
<g><path style="opacity:0.82" fill="#000000" d="M 71.5,193.5 C 76.5,193.5 81.5,193.5 86.5,193.5C 86.5,198.5 86.5,203.5 86.5,208.5C 81.5,208.5 76.5,208.5 71.5,208.5C 71.5,203.5 71.5,198.5 71.5,193.5 Z"/></g>
<g><path style="opacity:0.905" fill="#000000" d="M 304.5,207.5 C 344.168,207.333 383.835,207.5 423.5,208C 431.333,210.5 436.5,215.667 439,223.5C 439.667,253.833 439.667,284.167 439,314.5C 436.5,322.333 431.333,327.5 423.5,330C 383.833,330.667 344.167,330.667 304.5,330C 296.667,327.5 291.5,322.333 289,314.5C 288.333,284.167 288.333,253.833 289,223.5C 291.685,215.65 296.852,210.316 304.5,207.5 Z M 306.5,222.5 C 305.496,223.683 304.662,225.016 304,226.5C 303.333,254.833 303.333,283.167 304,311.5C 304.465,312.931 305.299,314.097 306.5,315C 344.833,315.667 383.167,315.667 421.5,315C 422,314.5 422.5,314 423,313.5C 424.65,284.586 424.983,255.586 424,226.5C 423.535,225.069 422.701,223.903 421.5,223C 383.168,222.5 344.835,222.333 306.5,222.5 Z"/></g>
<g><path style="opacity:0.961" fill="#000000" d="M 315.5,234.5 C 347.833,234.5 380.167,234.5 412.5,234.5C 412.5,257.5 412.5,280.5 412.5,303.5C 380.167,303.5 347.833,303.5 315.5,303.5C 315.5,280.5 315.5,257.5 315.5,234.5 Z"/></g>
<g><path style="opacity:0.924" fill="#000000" d="M 166.5,370.5 C 180.14,368.398 191.473,372.398 200.5,382.5C 274.498,383.333 348.498,383.833 422.5,384C 434.845,388.021 440.345,396.521 439,409.5C 436.5,417.333 431.333,422.5 423.5,425C 349.5,425.333 275.5,425.667 201.5,426C 188.213,440.489 172.879,443.156 155.5,434C 152.355,432.022 149.688,429.522 147.5,426.5C 126.444,425.967 105.444,425.133 84.5,424C 70.2932,415.502 67.7932,404.336 77,390.5C 79.5641,388.273 82.3974,386.439 85.5,385C 106.102,383.701 126.769,383.034 147.5,383C 152.608,376.791 158.942,372.625 166.5,370.5 Z M 90.5,398.5 C 85.7092,401.862 85.3759,405.695 89.5,410C 106.163,410.5 122.83,410.667 139.5,410.5C 139.207,406.563 139.54,402.73 140.5,399C 123.837,398.5 107.17,398.333 90.5,398.5 Z M 207.5,399.5 C 208.482,402.962 208.815,406.629 208.5,410.5C 279.501,410.667 350.501,410.5 421.5,410C 425.704,405.845 425.371,402.178 420.5,399C 349.332,398.168 278.332,398.335 207.5,399.5 Z"/></g>
</svg>
