<?xml version="1.0" standalone="no"?>
<!DOCTYPE svg PUBLIC "-//W3C//DTD SVG 20010904//EN"
 "http://www.w3.org/TR/2001/REC-SVG-20010904/DTD/svg10.dtd">
<svg version="1.0" xmlns="http://www.w3.org/2000/svg"
 width="250.000000pt" height="250.000000pt" viewBox="0 0 250.000000 250.000000"
 preserveAspectRatio="xMidYMid meet">

<g transform="translate(0.000000,250.000000) scale(0.100000,-0.100000)"
fill="#283380" stroke="none">
<path d="M1083 2196 c-208 -40 -386 -137 -529 -289 -185 -196 -278 -452 -260
-718 27 -419 311 -758 727 -871 116 -31 346 -31 460 0 375 102 649 397 714
769 86 492 -223 966 -714 1094 -99 27 -298 34 -398 15z m322 -157 c245 -44
477 -231 581 -466 92 -207 88 -462 -10 -667 -204 -423 -716 -584 -1125 -353
-87 49 -219 174 -276 261 -83 129 -126 274 -126 431 -1 230 75 411 240 575
193 191 444 268 716 219z"/>
<path d="M1191 1774 c-20 -25 -21 -39 -21 -266 0 -187 3 -245 14 -266 8 -15
93 -105 188 -199 162 -161 177 -173 211 -173 47 0 77 28 77 73 0 28 -19 51
-165 197 l-165 165 0 221 c0 209 -1 223 -21 248 -16 20 -29 26 -59 26 -30 0
-43 -6 -59 -26z"/>
</g>
</svg>
