<?xml version="1.0" encoding="UTF-8"?>
<!DOCTYPE svg PUBLIC "-//W3C//DTD SVG 1.1//EN" "http://www.w3.org/Graphics/SVG/1.1/DTD/svg11.dtd">
<svg xmlns="http://www.w3.org/2000/svg" version="1.1" width="512px" height="512px" style="shape-rendering:geometricPrecision; text-rendering:geometricPrecision; image-rendering:optimizeQuality; fill-rule:evenodd; clip-rule:evenodd" xmlns:xlink="http://www.w3.org/1999/xlink">
<g><path style="opacity:0.928" fill="#000000" d="M 73.5,57.5 C 195.167,57.3333 316.834,57.5 438.5,58C 453.667,62.5 463.5,72.3333 468,87.5C 468.667,179.167 468.667,270.833 468,362.5C 457.583,412.583 427.417,443.083 377.5,454C 343.549,459.23 313.549,450.897 287.5,429C 257.5,428.667 227.5,428.333 197.5,428C 181.075,422.317 176.241,411.484 183,395.5C 187.705,389.397 193.872,385.73 201.5,384.5C 203.011,376.261 204.677,368.094 206.5,360C 163.5,359.667 120.5,359.333 77.5,359C 60.2865,355.452 49.1199,345.286 44,328.5C 43.3333,248.167 43.3333,167.833 44,87.5C 48.6835,72.3174 58.5168,62.3174 73.5,57.5 Z M 80.5,71.5 C 197.5,71.3333 314.5,71.5 431.5,72C 444.748,74.3279 452.248,82.1612 454,95.5C 454.667,160.167 454.667,224.833 454,289.5C 450.389,283.556 446.389,277.889 442,272.5C 441.667,210.833 441.333,149.167 441,87.5C 439.786,85.9512 438.286,84.7845 436.5,84C 316.167,83.3333 195.833,83.3333 75.5,84C 73.714,84.7845 72.214,85.9512 71,87.5C 70.5,154.833 70.3333,222.166 70.5,289.5C 66.1667,289.5 61.8333,289.5 57.5,289.5C 57.3333,224.832 57.5,160.166 58,95.5C 59.8908,82.1125 67.3908,74.1125 80.5,71.5 Z M 84.5,99.5 C 134.331,98.5011 184.331,98.1678 234.5,98.5C 234.5,162.167 234.5,225.833 234.5,289.5C 184.499,289.667 134.499,289.5 84.5,289C 85.8326,225.736 85.8326,162.569 84.5,99.5 Z M 249.5,98.5 C 276.835,98.3334 304.169,98.5 331.5,99C 330.505,128.093 330.171,157.26 330.5,186.5C 326.5,186.5 322.5,186.5 318.5,186.5C 318.891,176.767 318.391,167.1 317,157.5C 314.8,152.465 311.633,148.132 307.5,144.5C 313.998,133.333 312.331,123.5 302.5,115C 289.343,108.502 278.843,111.336 271,123.5C 268.685,130.715 269.185,137.715 272.5,144.5C 267.876,148.96 264.709,154.293 263,160.5C 262.5,169.16 262.334,177.827 262.5,186.5C 258.167,186.5 253.833,186.5 249.5,186.5C 249.5,157.167 249.5,127.833 249.5,98.5 Z M 345.5,98.5 C 372.835,98.3334 400.169,98.5 427.5,99C 426.505,128.093 426.171,157.26 426.5,186.5C 422.5,186.5 418.5,186.5 414.5,186.5C 414.891,176.767 414.391,167.1 413,157.5C 410.768,152.441 407.601,148.108 403.5,144.5C 409.998,133.333 408.331,123.5 398.5,115C 385.343,108.502 374.843,111.336 367,123.5C 364.685,130.715 365.185,137.715 368.5,144.5C 363.876,148.96 360.709,154.293 359,160.5C 358.5,169.16 358.334,177.827 358.5,186.5C 354.167,186.5 349.833,186.5 345.5,186.5C 345.5,157.167 345.5,127.833 345.5,98.5 Z M 288.5,126.5 C 294.33,126.161 296.83,128.827 296,134.5C 294.179,137.991 291.346,139.157 287.5,138C 283.297,133.731 283.63,129.897 288.5,126.5 Z M 384.5,126.5 C 390.33,126.161 392.83,128.827 392,134.5C 390.179,137.991 387.346,139.157 383.5,138C 379.297,133.731 379.63,129.897 384.5,126.5 Z M 159.5,139.5 C 177.235,142.962 183.069,153.295 177,170.5C 169.624,179.872 160.457,182.039 149.5,177C 138.82,168.096 137.32,157.929 145,146.5C 149.22,142.638 154.054,140.305 159.5,139.5 Z M 287.5,153.5 C 294.026,153.178 298.86,155.845 302,161.5C 303.406,169.749 303.906,178.083 303.5,186.5C 294.833,186.5 286.167,186.5 277.5,186.5C 277.334,178.493 277.5,170.493 278,162.5C 279.871,158.006 283.038,155.006 287.5,153.5 Z M 383.5,153.5 C 389.565,153.282 394.398,155.616 398,160.5C 399.376,169.098 399.876,177.765 399.5,186.5C 390.833,186.5 382.167,186.5 373.5,186.5C 373.334,178.493 373.5,170.493 374,162.5C 375.871,158.006 379.038,155.006 383.5,153.5 Z M 157.5,194.5 C 190.407,197.409 207.074,215.409 207.5,248.5C 175.833,248.5 144.167,248.5 112.5,248.5C 112.369,217.649 127.369,199.649 157.5,194.5 Z M 308.5,246.5 C 314.119,234.845 311.786,225.012 301.5,217C 286.761,211.016 276.261,215.183 270,229.5C 268.831,235.691 269.665,241.524 272.5,247C 268.086,251.755 264.919,257.255 263,263.5C 262.5,272.16 262.334,280.827 262.5,289.5C 258.167,289.5 253.833,289.5 249.5,289.5C 249.5,260.167 249.5,230.833 249.5,201.5C 276.835,201.333 304.169,201.5 331.5,202C 330.677,214.091 330.177,226.258 330,238.5C 322.673,240.747 315.506,243.414 308.5,246.5 Z M 345.5,201.5 C 372.835,201.333 400.169,201.5 427.5,202C 426.839,220.436 426.173,238.936 425.5,257.5C 419.553,252.609 413.053,248.609 406,245.5C 410.061,233.018 406.561,223.185 395.5,216C 384.091,212.027 374.925,214.861 368,224.5C 366.241,227.608 365.408,230.941 365.5,234.5C 358.798,234.336 352.131,234.669 345.5,235.5C 345.5,224.167 345.5,212.833 345.5,201.5 Z M 287.5,229.5 C 295.489,229.319 297.822,232.819 294.5,240C 287.244,242.626 284.078,240.126 285,232.5C 285.698,231.309 286.531,230.309 287.5,229.5 Z M 383.5,229.5 C 389.784,228.619 392.617,231.286 392,237.5C 391.612,238.428 390.945,239.095 390,239.5C 386.974,238.128 383.807,237.462 380.5,237.5C 380.018,234.169 381.018,231.503 383.5,229.5 Z M 353.5,249.5 C 388.897,249.282 417.064,263.282 438,291.5C 461.236,330.651 459.569,368.651 433,405.5C 404.84,436.835 370.34,447.002 329.5,436C 287.903,420.045 265.903,389.712 263.5,345C 265.93,301.449 287.263,271.449 327.5,255C 336.186,252.564 344.853,250.731 353.5,249.5 Z M 287.5,256.5 C 289.199,256.34 290.866,256.506 292.5,257C 287.366,261.133 282.532,265.633 278,270.5C 277.445,263.269 280.612,258.602 287.5,256.5 Z M 57.5,304.5 C 123.834,304.333 190.168,304.5 256.5,305C 251.341,317.627 248.674,330.794 248.5,344.5C 192.499,344.667 136.499,344.5 80.5,344C 67.2523,341.672 59.7523,333.839 58,320.5C 57.5006,315.177 57.334,309.844 57.5,304.5 Z M 331.5,311.5 C 332.721,310.535 334.054,310.702 335.5,312C 354.369,323.266 373.369,334.266 392.5,345C 372.251,356.707 352.084,368.541 332,380.5C 332.817,357.408 332.65,334.408 331.5,311.5 Z M 221.5,359.5 C 230.833,359.5 240.167,359.5 249.5,359.5C 250.512,368.385 252.846,376.885 256.5,385C 243.167,385.667 229.833,385.667 216.5,385C 218.218,376.532 219.884,368.032 221.5,359.5 Z M 199.5,400.5 C 220.836,400.333 242.169,400.5 263.5,401C 266.115,405.283 269.115,409.283 272.5,413C 248.167,413.667 223.833,413.667 199.5,413C 192.96,408.779 192.96,404.612 199.5,400.5 Z"/></g>
<g><path style="opacity:0.915" fill="#000000" d="M 151.5,125.5 C 169.803,122.735 183.303,129.402 192,145.5C 197.271,160.225 194.771,173.392 184.5,185C 214.274,200.376 226.774,224.876 222,258.5C 221.167,260.667 219.667,262.167 217.5,263C 179.167,263.667 140.833,263.667 102.5,263C 100.333,262.167 98.8333,260.667 98,258.5C 93.2225,224.884 105.722,200.384 135.5,185C 125.575,174.231 122.742,161.731 127,147.5C 131.926,136.4 140.092,129.067 151.5,125.5 Z M 159.5,139.5 C 154.054,140.305 149.22,142.638 145,146.5C 137.32,157.929 138.82,168.096 149.5,177C 160.457,182.039 169.624,179.872 177,170.5C 183.069,153.295 177.235,142.962 159.5,139.5 Z M 157.5,194.5 C 127.369,199.649 112.369,217.649 112.5,248.5C 144.167,248.5 175.833,248.5 207.5,248.5C 207.074,215.409 190.407,197.409 157.5,194.5 Z"/></g>
<g><path style="opacity:0.917" fill="#000000" d="M 322.5,289.5 C 324.199,289.34 325.866,289.506 327.5,290C 356.247,306.455 384.747,323.289 413,340.5C 415.54,345.097 414.707,348.93 410.5,352C 384.669,366.748 359.003,381.748 333.5,397C 329.909,399.805 325.909,400.805 321.5,400C 320,399.167 318.833,398 318,396.5C 317.333,362.167 317.333,327.833 318,293.5C 319.397,291.93 320.897,290.596 322.5,289.5 Z M 331.5,311.5 C 332.65,334.408 332.817,357.408 332,380.5C 352.084,368.541 372.251,356.707 392.5,345C 373.369,334.266 354.369,323.266 335.5,312C 334.054,310.702 332.721,310.535 331.5,311.5 Z"/></g>
</svg>
