<svg width="205" height="205" viewBox="0 0 205 205" fill="none" xmlns="http://www.w3.org/2000/svg">
<path d="M102.965 204.54H102.516C46.2791 204.54 0.525879 158.774 0.525879 102.52V102.07C0.525879 45.8173 46.2791 0.0506592 102.516 0.0506592H102.965C159.202 0.0506592 204.955 45.8173 204.955 102.07V102.52C204.955 158.774 159.202 204.54 102.965 204.54ZM102.516 6.97242C50.0919 6.97242 7.4456 49.6312 7.4456 102.07V102.52C7.4456 154.96 50.0919 197.618 102.516 197.618H102.965C155.389 197.618 198.036 154.96 198.036 102.52V102.07C198.036 49.6312 155.389 6.97242 102.965 6.97242H102.516Z" fill="white"/>
<path d="M44.0441 48.2399L89.5897 109.151L43.7603 158.677H54.0777L94.2051 115.319L126.624 158.677H161.728L113.622 94.3389L156.282 48.2399H145.965L109.013 88.1716L79.1548 48.2399H44.0509H44.0441ZM59.2121 55.8401H75.335L146.546 151.077H130.423L59.2121 55.8401Z" fill="white"/>
</svg>
