<svg width="205" height="205" viewBox="0 0 205 205" fill="none" xmlns="http://www.w3.org/2000/svg">
<path d="M102.421 204.263C46.2119 204.263 0.486328 158.524 0.486328 102.299C0.486328 46.0734 46.2119 0.334351 102.421 0.334351C158.63 0.334351 204.355 46.0734 204.355 102.299C204.355 158.524 158.63 204.263 102.421 204.263ZM102.421 7.25611C50.0316 7.25611 7.40605 49.8942 7.40605 102.299C7.40605 154.704 50.0316 197.342 102.421 197.342C154.81 197.342 197.435 154.704 197.435 102.299C197.435 49.8942 154.81 7.25611 102.421 7.25611Z" fill="white"/>
<path d="M164.428 81.8867C163.653 74.4042 161.986 66.1327 155.848 61.7858C151.094 58.4149 144.846 58.2903 139.012 58.2972C126.681 58.3042 114.344 58.318 102.013 58.3249C90.1522 58.3388 78.2917 58.3457 66.4313 58.3596C61.4768 58.3665 56.6607 57.9789 52.059 60.1247C48.1079 61.9659 45.0148 65.4682 43.1534 69.3651C40.5723 74.7849 40.0326 80.9245 39.7212 86.9188C39.1469 97.8344 39.2091 108.778 39.8942 119.686C40.3993 127.646 41.6795 136.444 47.8311 141.518C53.2838 146.01 60.9786 146.231 68.0505 146.238C90.4981 146.259 112.953 146.28 135.407 146.294C138.286 146.301 141.289 146.245 144.223 145.927C149.994 145.304 155.495 143.65 159.204 139.372C162.948 135.06 163.91 129.058 164.477 123.376C165.861 109.588 165.847 95.6679 164.428 81.8867ZM89.0312 121.624V82.9665L122.495 102.292L89.0312 121.624Z" fill="white"/>
</svg>
